<svg height="512" viewBox="0 0 512 512" width="512" xmlns="http://www.w3.org/2000/svg"><path d="m392 137.52v-25.52h-56v184h56l8.243-19.234a69.161 69.161 0 0 0 3.906-42.446c-7.165-31.851-12.149-64.153-12.149-96.8z" fill="#f7a116"/><path d="m216 208a69.184 69.184 0 0 0 -8.243 68.766l8.243 19.234h56v-104l-16-32z" fill="#f7a116"/><path d="m384 280v96h-160v-96h48v-64h64v64z" fill="#fec9a3"/><path d="m336 248.427v-32.427h-64v32.427a71.4 71.4 0 0 0 64 0z" fill="#feb784"/><path d="m424 320v176h-192v-48c-17.47-20.79-20.79-49.5-8-71.58l.188-.311-.188-.109-78.79 100.01a32.16 32.16 0 0 1 -51.74-38.11l92.27-136.75a48 48 0 0 1 39.79-21.15h14.47l2.43 24.28a61.877 61.877 0 0 0 123.14 0l2.43-24.28h16a40 40 0 0 1 40 40z" fill="#95573a"/><path d="m424 347.39v148.61h-171.81c56.95-22.81 126-66.25 171.81-148.61z" fill="#8f4d2e"/><path d="m384 496h-16v-48a8 8 0 0 1 1.875-5.148c15.242-18.133 17.773-43.364 6.305-62.786l13.781-8.132c14.422 24.425 11.953 55.757-5.961 78.89z" fill="#82462a"/><path d="m376 112v56a72.006 72.006 0 0 1 -72 72c-1.88 0-3.74-.07-5.59-.21a72.019 72.019 0 0 1 -66.41-71.79v-56a64 64 0 0 1 64-64h16a63.972 63.972 0 0 1 64 64z" fill="#fec9a3"/><path d="m376 112v56a72.006 72.006 0 0 1 -72 72c-1.88 0-3.74-.07-5.59-.21a71.993 71.993 0 0 0 38.59-63.79v-80a71.681 71.681 0 0 0 -18.01-47.62 64 64 0 0 1 57.01 63.62z" fill="#fec093"/><path d="m304 200a24.027 24.027 0 0 1 -24-24h16a8 8 0 0 0 16 0h16a24.027 24.027 0 0 1 -24 24z" fill="#f7a468"/><path d="m376 120h8a24 24 0 0 1 24 24 24 24 0 0 1 -24 24h-8a0 0 0 0 1 0 0v-48a0 0 0 0 1 0 0z" fill="#feb784"/><circle cx="340" cy="140" fill="#7a432a" r="12"/><circle cx="268" cy="140" fill="#7a432a" r="12"/><path d="m392 104v16h-16a94.115 94.115 0 0 1 -45.29-49.22l-2.71-6.78-6.19 2.75-1.81.8-26.44 11.76a63.264 63.264 0 0 0 -37.56 57.79 63.258 63.258 0 0 1 -14.66 40.49l-25.34 30.41v-104a79.961 79.961 0 0 1 80-80h16q4.05 0 8 .39a79.139 79.139 0 0 1 16 3.28 80.019 80.019 0 0 1 56 76.33z" fill="#ffb531"/><path d="m392 104v16h-16a94.132 94.132 0 0 1 -45.29-49.22l-2.71-6.78-6.19 2.75a72.188 72.188 0 0 0 -46.34-40.08 79.857 79.857 0 0 1 20.53-2.67h16a80 80 0 0 1 80 80z" fill="#ffa912"/><path d="m148.271 454.434-4.271-70.434h-56v73.772a30.228 30.228 0 1 0 60.271-3.338z" fill="#fec093"/><path d="m184 416h-64l-16-160h96z" fill="#e0e0de"/><path d="m152 208a48 48 0 0 1 48 48 0 0 0 0 1 0 0h-96a0 0 0 0 1 0 0 48 48 0 0 1 48-48z" fill="#4db7e5"/><path d="m152 208a47.814 47.814 0 0 0 -16 2.79 47.975 47.975 0 0 1 32 45.21h32a48 48 0 0 0 -48-48z" fill="#48add9"/><path d="m160 208.72v-22.052l22.4-29.868-12.8-9.6-22.4 29.863a16.115 16.115 0 0 0 -3.2 9.606v22.051a44.8 44.8 0 0 1 16 0z" fill="#e0e0de"/><path d="m152 208a48.039 48.039 0 0 0 -8 .72v47.28h16v-47.28a48.039 48.039 0 0 0 -8-.72z" fill="#348fd9"/><path d="m200 256h-29.091l-14.545 160h27.636z" fill="#d6d6d4"/><path d="m152 336a16 16 0 1 1 16-16 16.019 16.019 0 0 1 -16 16z" fill="#4db7e5"/><path d="m88 320h64.591a15.409 15.409 0 0 1 15.409 15.409v33.182a15.409 15.409 0 0 1 -15.409 15.409h-64.591a0 0 0 0 1 0 0v-64a0 0 0 0 1 0 0z" fill="#fec9a3"/><path d="m152.591 320h-32a15.409 15.409 0 0 1 15.409 15.409v33.182a15.409 15.409 0 0 1 -15.409 15.409h32a15.409 15.409 0 0 0 15.409-15.409v-33.182a15.409 15.409 0 0 0 -15.409-15.409z" fill="#fec093"/><path d="m336 27.67v54.18a94.511 94.511 0 0 1 -5.29-11.07l-2.71-6.78-6.19 2.75-1.81.8v-43.16a79.139 79.139 0 0 1 16 3.28z" fill="#f7a116"/></svg>