<svg height="512" viewBox="0 0 512 512" width="512" xmlns="http://www.w3.org/2000/svg"><path d="m446.788 282.112-70.788-10.112v-64h-80v64l-74.058 15.869a48 48 0 0 0 -37.942 46.931v65.2h304v-70.37a48 48 0 0 0 -41.212-47.518z" fill="#fec9a3"/><path d="m376 229.4v-45.4h-80v45.4a80.758 80.758 0 0 0 80 0z" fill="#feb784"/><path d="m392 272a112.856 112.856 0 0 1 -112 0l16-24a107.781 107.781 0 0 0 80 0z" fill="#348fd9"/><path d="m315.528 284.969a112.761 112.761 0 0 1 -35.528-12.969l-58.058 15.869a48 48 0 0 0 -37.942 46.931v121.176h56v-103.976z" fill="#348fd9"/><path d="m488 329.63v126.35h-56v-103.98l-4.16-3.75-70.43-63.43a112.823 112.823 0 0 0 34.59-12.82l54.79 10.11a48.007 48.007 0 0 1 41.21 47.52z" fill="#348fd9"/><path d="m432 352v144h-192v-144l75.53-67.03a112.981 112.981 0 0 0 41.88-.15l70.43 63.43z" fill="#4d5e78"/><path d="m335.844 294.762a122.045 122.045 0 0 0 60.594-16.106l6.857-4.572-11.295-2.084-4.468-6.7a105.183 105.183 0 0 1 -103.075.016l-4.457 6.684-10.567 2.888 6.6 4.057a120.485 120.485 0 0 0 59.811 15.817z" fill="#404f66"/><path d="m488 329.63v126.35h-56v-103.98l-4.16-3.75a345.412 345.412 0 0 0 32.26-62.21 47.987 47.987 0 0 1 27.9 43.59z" fill="#3086cd"/><path d="m432 352v144h-192v-10.07c56.06-17.5 133.81-55.56 187.84-137.68z" fill="#44546c"/><path d="m240 384h192v32h-192z" fill="#4db7e5"/><path d="m344 255.4v240.6h-16v-240.6a106.817 106.817 0 0 0 16 0z" fill="#404f66"/><path d="m216 488h24l152-32h40l16-16h40v-56h-40l-56 24-208 16v32a32 32 0 0 0 32 32z" fill="#feb784"/><path d="m456 488h-24l-152-32h-40l-16-16h-40v-56h40l56 24 208 16v32a32 32 0 0 1 -32 32z" fill="#fec9a3"/><path d="m415.817 103.94-8 .061.366 48 8-.061a24 24 0 0 0 -.366-48z" fill="#feb784"/><path d="m256.217 104.058h-.4a24 24 0 0 0 .366 48l7.817-.058v-48z" fill="#feb784"/><path d="m408 96v56a72 72 0 0 1 -66.49 71.79c-1.82.14-3.66.21-5.51.21a72.006 72.006 0 0 1 -72-72v-56a72.022 72.022 0 0 1 47.26-67.63h.01a71.717 71.717 0 0 1 18.29-4.08q3.18-.285 6.44-.29a72.006 72.006 0 0 1 72 72z" fill="#fec9a3"/><path d="m408 96v56a72 72 0 0 1 -66.49 71.79 71.838 71.838 0 0 0 26.49-55.79v-80a72.069 72.069 0 0 0 -38.44-63.71q3.18-.285 6.44-.29a72.006 72.006 0 0 1 72 72z" fill="#fec093"/><g fill="#7a432a"><path d="m299.909 112.271a12 12 0 1 0 12.091 11.908 12.013 12.013 0 0 0 -12.091-11.908z"/><path d="m371.907 111.722a12 12 0 1 0 12.093 11.908 12.013 12.013 0 0 0 -12.093-11.908z"/><path d="m311.27 28.37a83.847 83.847 0 0 1 -45.77 75.34l-1.5.76v-8.47a72.022 72.022 0 0 1 47.26-67.63z"/><path d="m408 96v6.95c-.1.33-.15.5-.15.5l-1.67-.81a83.84 83.84 0 0 1 -46.91-74.63c.13-.01.26-.01.39-.02a72.04 72.04 0 0 1 48.34 68.01z"/></g><path d="m400.5 64h-104.5c-17.67.13-31.8-14.33-31.94-32l-.06-8h96c40.76.18 40.5 40 40.5 40z" fill="#6e3c24"/><path d="m338.4 64h-20.82l-33.18-40h20.82z" fill="#61311b"/><path d="m378.54 64h-20.81l-33.16-40h20.81z" fill="#61311b"/><path d="m360.3 163.256-2.379-7.637a99.074 99.074 0 0 1 -28.709 4.434l-16.937.129.122 16 16.937-.13a115.05 115.05 0 0 0 33.345-5.156z" fill="#f7a468"/><path d="m272 424-24 40-64 32h-160a144.012 144.012 0 0 1 144-144h48l5.93 8.9 10.07 15.1 2.5 1.25a71.728 71.728 0 0 1 37.5 46.75z" fill="#4d5e78"/><path d="m272 424-24 40-64 32h-118.75c58.48-26.12 118.71-68.01 156.68-135.1l10.07 15.1 2.5 1.25a71.728 71.728 0 0 1 37.5 46.75z" fill="#44546c"/><path d="m60.571 496a128.562 128.562 0 0 1 118.958-117.558l18.185-1.3a45.245 45.245 0 0 1 -26.179 24.8 129.411 129.411 0 0 0 -83.535 94.058z" fill="#374357"/><path d="m232 424c-45.865 0-89.053 26.675-116.571 72h21.857l80.143-54z" fill="#374357"/><path d="m155.21 451.106 28.29 13.753 15.34-10.337-28.2-13.706a139.638 139.638 0 0 0 -15.43 10.29z" fill="#404f66"/><path d="m134.941 421.905-29.572-13.058a128.953 128.953 0 0 0 -12.307 12.053l28.793 12.715a129.681 129.681 0 0 1 13.086-11.71z" fill="#404f66"/></svg>