<svg height="512" viewBox="0 0 512 512" width="512" xmlns="http://www.w3.org/2000/svg"><path d="m408 360h48v136h-48z" fill="#fec9a3"/><path d="m103.909 108.868-37.378-12.458-5.062 15.18 13.232 4.41h-18.701v16h16.457l-11.426 4.57 5.938 14.86 34.843-13.938z" fill="#7eb457"/><path d="m448 258.67a121.211 121.211 0 0 1 -.77 13.58l-4.52 39.75h-229.42l-4.52-39.75a120.5 120.5 0 0 1 9.42-62.07 120.6 120.6 0 0 0 10.19-48.47c0-2.05-.05-4.11-.16-6.16l-1.41-27.68c-2.63-51.17 34.97-94.84 85.12-102.63a103.727 103.727 0 0 1 16.07-1.24c56.21 0 101.32 44.57 101.32 98.83 0 1.67-.04 3.35-.13 5.04l-1.41 27.68a120.519 120.519 0 0 0 10.03 54.63 120.667 120.667 0 0 1 10.19 48.49z" fill="#95573a"/><path d="m448 258.67a121.211 121.211 0 0 1 -.77 13.58l-4.52 39.75h-84.2v-211.43a84.29 84.29 0 0 0 -46.58-75.33 103.727 103.727 0 0 1 16.07-1.24c56.21 0 101.32 44.57 101.32 98.83 0 1.67-.04 3.35-.13 5.04l-1.41 27.68a120.519 120.519 0 0 0 10.03 54.63 120.667 120.667 0 0 1 10.19 48.49z" fill="#8f4d2e"/><path d="m400 278.67v81.33h-144v-84.37l32.72-2.97a8 8 0 0 0 7.28-7.97v-56.69h64v57.22a8 8 0 0 0 6.68 7.89z" fill="#fec9a3"/><path d="m360 248.427v-40.427h-64v40.427a71.4 71.4 0 0 0 64 0z" fill="#feb784"/><path d="m180.5 334.791-50.545 100.234a26.962 26.962 0 0 0 48.823 22.7l56.722-74.304 6-14.671z" fill="#fec093"/><path d="m400 128v40a72.005 72.005 0 0 1 -68.37 71.91q-1.8.09-3.63.09a72.006 72.006 0 0 1 -72-72v-40a108.535 108.535 0 0 0 36.9-41.8l3.1-6.2 4.54 3.79a199.188 199.188 0 0 0 64.16 35.82 198.887 198.887 0 0 0 35.3 8.39z" fill="#fec9a3"/><path d="m400 128v40a72.005 72.005 0 0 1 -68.37 71.91 71.921 71.921 0 0 0 33.07-60.58v-59.72a198.887 198.887 0 0 0 35.3 8.39z" fill="#fec093"/><circle cx="292" cy="148" fill="#7a432a" r="12"/><circle cx="364" cy="148" fill="#7a432a" r="12"/><path d="m336 176a8 8 0 0 1 -16 0h-16a24 24 0 0 0 48 0z" fill="#f7a468"/><path d="m456 360h-48a62.084 62.084 0 0 1 0 80v56h-160v-56a61.486 61.486 0 0 1 -12.46-56.63l5.96-14.62-61-33.959 11.54-22.971a64 64 0 0 1 51.41-35.04l28.55-2.6v13.82a56 56 0 0 0 112 0v-12l38.58 6.43a40 40 0 0 1 33.42 39.45z" fill="#7eb457"/><path d="m184 444v-20l-8-72v-88h-43.234a20.766 20.766 0 0 0 -20.766 20.766v19.352a40.948 40.948 0 0 0 2.927 15.2l13.073 32.682v92a28 28 0 0 0 28 28 28 28 0 0 0 28-28z" fill="#fec9a3"/><path d="m120 136v46.111a28.944 28.944 0 0 0 16 25.889v56h32v-56a28.944 28.944 0 0 0 16-25.889v-46.111z" fill="#e0e0de"/><path d="m120 136v15.662l64-4.571v-11.091z" fill="#c7c7c5"/><path d="m144 136h16v40h-16z" fill="#b0b0ae"/><path d="m208 124a12.891 12.891 0 0 1 -11.97 12.85l-60.03 4.29-16 1.15-4.05.29a18.625 18.625 0 0 1 -19.95-18.58c0-.31 0-.63.02-.94a18.389 18.389 0 0 1 1.37-6.13c.04-.09.07-.18.11-.26a18.634 18.634 0 0 1 17.1-11.3c.45 0 .9.02 1.35.05l36.05 2.58 16 1.14 28.03 2.01a12.89 12.89 0 0 1 11.97 12.85z" fill="#f98500"/><path d="m208 124a12.891 12.891 0 0 1 -11.97 12.85l-60.03 4.29-16 1.15-4.05.29a18.625 18.625 0 0 1 -19.95-18.58c0-.31 0-.63.02-.94a18.389 18.389 0 0 1 1.37-6.13c.04-.09.07-.18.11-.26a18.791 18.791 0 0 0 18.45 11.28l4.05-.29 16-1.14 16-1.14 16-1.15 28.03-2a12.819 12.819 0 0 0 9.65-5.54c.14.19.3.42.48.68a12.8 12.8 0 0 1 1.84 6.63z" fill="#f27900"/><path d="m120 120v22.285l16-1.142v-21.143z" fill="#e66000"/><path d="m168 128v-18.857l-16-1.143v20z" fill="#e66000"/><path d="m456 360h-48a62.084 62.084 0 0 1 0 80v56h-160v-15.86c67.71-26.95 145.79-82.25 181.96-195.74a40 40 0 0 1 26.04 37.48z" fill="#77ad50"/></svg>