<svg height="512" viewBox="0 0 512 512" width="512" xmlns="http://www.w3.org/2000/svg"><path d="m344.5 96h-24v32h8a16 16 0 0 1 16 16v88a48 48 0 0 0 48 48v-136a48 48 0 0 0 -48-48z" fill="#7a432a"/><path d="m376 496v-48a62.086 62.086 0 0 0 0-80l8-16 41.237 34.152a29.226 29.226 0 0 0 35.793-46.2l-47.025-46.193a48 48 0 0 0 -33.637-13.759h-52.368v-64h-64v64h-52.368a48 48 0 0 0 -33.632 13.757l-47.03 46.193a29.226 29.226 0 0 0 35.793 46.2l41.237-34.15 8 16c-19.145 22.724-20.481 56.443-.688 80h.688v48" fill="#fec093"/><path d="m328 248.427v-32.427h-64v32.427a71.4 71.4 0 0 0 64 0z" fill="#feb784"/><path d="m376 448v48h-160v-48h-.69c-19.79-23.56-18.46-57.28.69-80l16-88h24v48a40 40 0 0 0 80 0v-48h24l16 88a62.077 62.077 0 0 1 0 80z" fill="#7a432a"/><path d="m368 112v56a71.993 71.993 0 0 1 -65.93 71.74c-2 .17-4.03.26-6.07.26a72.006 72.006 0 0 1 -72-72v-56a64 64 0 0 1 64-64h16a64 64 0 0 1 64 64z" fill="#fec9a3"/><path d="m368 112v56a71.993 71.993 0 0 1 -65.93 71.74 71.819 71.819 0 0 0 27.27-56.41v-80a71.775 71.775 0 0 0 -21.09-50.91q-2.329-2.32-4.844-4.42h.594a64 64 0 0 1 64 64z" fill="#fec093"/><path d="m288 24a80 80 0 0 0 -80 80v24c48 0 128-64 128-64v.4a81.223 81.223 0 0 0 32 63.6l16 8v-32a80 80 0 0 0 -80-80z" fill="#7a432a"/><path d="m296 200a24.027 24.027 0 0 1 -24-24h16a8 8 0 0 0 16 0h16a24.026 24.026 0 0 1 -24 24z" fill="#f7a468"/><circle cx="332.497" cy="140" fill="#7a432a" r="12"/><circle cx="260.497" cy="140" fill="#7a432a" r="12"/><path d="m400 120h-32a63.735 63.735 0 0 0 -17.19-43.65 64.812 64.812 0 0 0 -12.34-10.29 63.721 63.721 0 0 0 -34.47-10.06h-16a63.728 63.728 0 0 0 -34.45 10.05 64.668 64.668 0 0 0 -10.8 8.69c-.52.52-1.04 1.06-1.54 1.6a63.731 63.731 0 0 0 -17.21 43.66h-32a95.628 95.628 0 0 1 26.58-66.3 96.754 96.754 0 0 1 11.98-10.63h.01a95.564 95.564 0 0 1 57.43-19.07h16a96 96 0 0 1 96 96z" fill="#ec8c8c"/><path d="m224 128v-8h-32a16 16 0 0 0 -16 16v40a16 16 0 0 0 16 16h36.185a71.7 71.7 0 0 1 -4.185-24z" fill="#f59898"/><path d="m400 120h-32v48a71.7 71.7 0 0 1 -4.185 24h36.185a16 16 0 0 0 16-16v-40a16 16 0 0 0 -16-16z" fill="#f59898"/><path d="m400.5 168h-32.5a71.7 71.7 0 0 1 -4.185 24h36.185a16 16 0 0 0 16-16v-20.223a15.973 15.973 0 0 1 -15.5 12.223z" fill="#ec8c8c"/><path d="m191.5 168h32.5a71.7 71.7 0 0 0 4.185 24h-36.185a16 16 0 0 1 -16-16v-20.223a15.973 15.973 0 0 0 15.5 12.223z" fill="#ec8c8c"/><path d="m253.547 66.05a64.668 64.668 0 0 0 -10.8 8.69c-.52.52-1.04 1.06-1.54 1.6l-22.63-22.64a96.754 96.754 0 0 1 11.98-10.63h.01z" fill="#e07f7f"/><path d="m373.557 53.84-22.75 22.51a64.812 64.812 0 0 0 -12.34-10.29l23.12-22.87a96.016 96.016 0 0 1 11.97 10.65z" fill="#e07f7f"/><path d="m432 216 8-72-24.91-41.293a16.074 16.074 0 0 0 -21.739-4.176 14.718 14.718 0 0 0 -5.326 19.265l18.37 34.092-8.473 23.5a99.884 99.884 0 0 0 -5.922 33.874 99.813 99.813 0 0 0 .842 12.94l18.717 143.2a30.588 30.588 0 0 0 37.756 25.671 30.526 30.526 0 0 0 22-38.008z" fill="#fec9a3"/><path d="m160.5 216-8-72 24.91-41.293a16.073 16.073 0 0 1 21.738-4.176 14.716 14.716 0 0 1 5.326 19.265l-18.374 34.092 8.473 23.5a99.884 99.884 0 0 1 5.922 33.878 99.814 99.814 0 0 1 -.843 12.94l-18.716 143.2a30.589 30.589 0 0 1 -37.756 25.671 30.525 30.525 0 0 1 -22-38.008z" fill="#fec9a3"/><path d="m128.387 193.316a8 8 0 0 0 -7.887-9.316h-48a8 8 0 0 0 -7.891 6.684l-5.595 33.57a15.977 15.977 0 1 0 13.353 17.058h.023l6.884-41.312h31.777l-4.041 24.254a15.977 15.977 0 1 0 13.354 17.058h.023z" fill="#ec8c8c"/><path d="m376 448v48h-118.69c45.74-23.37 92.29-60.47 124.78-119.38a62.1 62.1 0 0 1 -6.09 71.38z" fill="#6e3c24"/><rect fill="#e0e0de" height="192" rx="16" width="112" x="40" y="296"/><path d="m40 328h112v128h-112z" fill="#ec8c8c"/><path d="m136 296h-12.837l-10.663 32h39.5v-16a16 16 0 0 0 -16-16z" fill="#d6d6d4"/><path d="m59.163 488h76.837a16 16 0 0 0 16-16v-16h-82.17z" fill="#d6d6d4"/><path d="m69.83 456h82.17v-128h-39.503z" fill="#e07f7f"/><path d="m80 368v48l40-24z" fill="#feb2b2"/></svg>