<svg height="512" viewBox="0 0 512 512" width="512" xmlns="http://www.w3.org/2000/svg"><path d="m69.99 432a34.279 34.279 0 0 0 52.53 43.6l53.9-57.876-60.654-55.59z" fill="#feb784"/><path d="m448.846 296.659-88.846-16.659v-72h-96v72l-78.294 12.045a59.136 59.136 0 0 0 -40.164 25.574l-29.775 44.511 60.654 55.59 31.579-33.72v112h280v-152.164a48 48 0 0 0 -39.154-47.177z" fill="#fec9a3"/><g fill="#feb784"><path d="m287.064 272h49.872a31.934 31.934 0 0 0 23.064-9.9v-54.1h-96v54.1a31.935 31.935 0 0 0 23.064 9.9z"/><path d="m392 120h-8v48h8a24 24 0 0 0 0-48z"/><path d="m232.4 120h-.4a24 24 0 0 0 0 48h8v-48z"/></g><path d="m384 112v56a72 72 0 0 1 -144 0v-56a72 72 0 0 1 144 0z" fill="#fec9a3"/><path d="m384 112v56a72.027 72.027 0 0 1 -46.52 67.36 71.632 71.632 0 0 0 14.52-43.36v-80a72.062 72.062 0 0 0 -56-70.22 72.715 72.715 0 0 1 16-1.78 72.006 72.006 0 0 1 72 72z" fill="#fec093"/><path d="m264 72h88v16h-88z" fill="#fec093"/><path d="m282.459 139.999h43.081v16.002h-43.081z" fill="#f7a468" transform="matrix(.371 -.929 .929 .371 53.765 375.382)"/><path d="m384 128v-39.015a42.246 42.246 0 0 0 -32-40.985v24s14.463 34.956 32 56z" fill="#8f4d2e"/><path d="m240 128v-39.015a42.246 42.246 0 0 1 32-40.985v24s-14.463 34.956-32 56z" fill="#8f4d2e"/><path d="m272 48h80v24h-80z" fill="#8f4d2e"/><path d="m352 48v24h-60.892a32 32 0 0 1 -31.565-26.739l-3.543-21.261h56a44.846 44.846 0 0 1 37.313 19.969z" fill="#95573a"/><path d="m488 343.84v72.16h-72v80h-208v-112l-.47.5-31.109 33.22-60.654-55.59 29.773-44.51a59.088 59.088 0 0 1 40.17-25.57l78.29-12.05a52.857 52.857 0 0 0 9.79 15.06c20.48 22.24 56.94 22.05 77.09-.67a53.122 53.122 0 0 0 9.12-14.39l88.85 16.66a48 48 0 0 1 39.15 47.18z" fill="#4db7e5"/><path d="m488 343.84v72.16h-72v80h-135.19c67.21-39.48 141.77-100.64 186.64-191.54a47.98 47.98 0 0 1 20.55 39.38z" fill="#48add9"/><path d="m144 199.72v98.46h-5.26a24 24 0 0 1 -23.28-18.18l-11.46-45.82-16.16-25.85-23.84-38.15 22.2-22.2a33.475 33.475 0 0 0 -15.55-56.14l-6.65-1.66v-16a177.045 177.045 0 0 1 64-18v60.45a111.946 111.946 0 0 0 4.84 32.54q1.38 4.56 3.16 9.01a111.935 111.935 0 0 1 8 41.54z" fill="#4d5e78"/><path d="m176 80.65v193.53a24.006 24.006 0 0 1 -24 24h-8v-98.46a108.177 108.177 0 0 0 -7.73-40.87q-1.935-4.77-3.43-9.68a111.9 111.9 0 0 1 -4.84-32.54v-60.45c4.87-.42 15.38-.04 25.33.5a24 24 0 0 1 22.67 23.97z" fill="#d6d6d4"/><path d="m144 199.72v98.46h-5.26a24 24 0 0 1 -23.28-18.18l-11.46-45.82-16.16-25.85a324.108 324.108 0 0 0 45-59.16q1.38 4.56 3.16 9.01a111.935 111.935 0 0 1 8 41.54z" fill="#44546c"/><path d="m176 80.65v193.53a24.006 24.006 0 0 1 -24 24h-8v-98.46a108.177 108.177 0 0 0 -7.73-40.87q-1.935-4.77-3.43-9.68a363.492 363.492 0 0 0 36.5-85.12 23.966 23.966 0 0 1 6.66 16.6z" fill="#c7c7c5"/><path d="m94.539 232.972h34.841v15.994h-34.841z" fill="#d6d6d4" transform="matrix(.849 -.529 .529 .849 -110.44 95.574)"/><path d="m77.957 206.323h34.841v15.994h-34.841z" fill="#d6d6d4" transform="matrix(.849 -.529 .529 .849 -98.861 82.785)"/><path d="m61.371 179.667h34.841v15.994h-34.841z" fill="#d6d6d4" transform="matrix(.849 -.529 .529 .849 -87.278 69.992)"/><path d="m120 296 19.142 31.9a16 16 0 0 1 .119 16.262l-22.847 39.378 12.214 65.145a33.2 33.2 0 0 1 -32.628 39.315 32 32 0 0 1 -32-32v-104l11.256-45.026a70.615 70.615 0 0 1 18.574-32.8l.291-.291a16.957 16.957 0 0 1 21.432-2.177 16.942 16.942 0 0 1 5.756 21.673z" fill="#fec9a3"/><path d="m336 400h56v16h-56z" fill="#60d1e0"/><circle cx="348" cy="132" fill="#7a432a" r="12"/><circle cx="276" cy="132" fill="#7a432a" r="12"/><path d="m384 120v48.424a96 96 0 0 1 -4.927 30.359l-11.78 35.339a32 32 0 0 1 -30.358 21.878h-49.871a32 32 0 0 1 -30.358-21.881l-11.78-35.34a96 96 0 0 1 -4.926-30.357v-48.422l27.25 40.878a16 16 0 0 0 13.313 7.122h62.874a16 16 0 0 0 13.313-7.125z" fill="#95573a"/><path d="m302.891 208h-14.891v-16h14.891c10.957 0 21.554-2.516 29.078-6.906l8.062 13.812c-10.043 5.867-23.231 9.094-37.14 9.094z" fill="#fec9a3"/><path d="m312 24h-9.565l24.686 48h17.987l-24.183-47.022a44.626 44.626 0 0 0 -8.925-.978z" fill="#82462a"/><path d="m270.435 24 24.686 48h17.987l-24.686-48z" fill="#82462a"/><path d="m280.114 300.758a50.191 50.191 0 0 1 -6.328-5.7 54.584 54.584 0 0 1 -4.8-6.136c-27.3 36.74-64.756 87.07-67.054 89.878l6.068 5.2 5.664 5.648c.507-.507 1.673-1.681 66.45-88.89z" fill="#45a7d1"/><path d="m422.473 379.3-66.521-91.64a53.1 53.1 0 0 1 -5.07 6.731 50.232 50.232 0 0 1 -5.824 5.5l64.469 88.809z" fill="#45a7d1"/><path d="m408 360h16v136h-16z" fill="#45a7d1"/></svg>