<svg height="512" viewBox="0 0 512 512" width="512" xmlns="http://www.w3.org/2000/svg"><path d="m280 496v-115.569a660.018 660.018 0 0 0 -91.79-335.769 42.06 42.06 0 0 0 -36.21-20.662 42.06 42.06 0 0 0 -36.209 20.662 660.018 660.018 0 0 0 -91.791 335.769v115.569" fill="#4db7e5"/><path d="m280 380.43v115.57h-256v-115.57q0-25.89 2.02-51.59a657.975 657.975 0 0 1 12.67-86.86q3.84-17.91 8.67-35.59a659.99 659.99 0 0 1 68.43-161.73 42.067 42.067 0 0 1 72.42 0 660.229 660.229 0 0 1 44.98 91.65q4.53 11.37 8.62 22.89 7.89 22.14 14.16 44.77a659.744 659.744 0 0 1 24.03 176.46z" fill="#60d1e0"/><path d="m125.5 76.172q-4.377 8.051-8.523 16.2l14.265 7.25q4.038-7.958 8.313-15.8z" fill="#9fe4ed"/><path d="m79.926 181.5 15.195 5a622.213 622.213 0 0 1 28.379-71.078l-14.469-6.844a639.206 639.206 0 0 0 -29.105 72.922z" fill="#9fe4ed"/><path d="m255.97 203.97-36.01 19.56-193.94 105.31a657.975 657.975 0 0 1 12.67-86.86l194.5-105.67q4.53 11.37 8.62 22.89 7.89 22.14 14.16 44.77z" fill="#4d5e78"/><path d="m280 380.43v115.57h-256v-47.04c75.44-39.08 170.38-120.61 217.81-289.76q7.89 22.14 14.16 44.77a659.744 659.744 0 0 1 24.03 176.46z" fill="#5ac6d4"/><path d="m255.97 203.97-36.01 19.56a611.693 611.693 0 0 0 21.85-64.33q7.89 22.14 14.16 44.77z" fill="#44546c"/><path d="m144 24h16v472h-16z" fill="#5ac6d4"/><path d="m160 176.07v80.01l-16 8.69v-80z" fill="#404f66"/><path d="m392 312v-192h48v114.334a86.833 86.833 0 0 1 -48 77.666z" fill="#95573a"/><path d="m424 120h8a24 24 0 0 1 24 24 24 24 0 0 1 -24 24h-8a0 0 0 0 1 0 0v-48a0 0 0 0 1 0 0z" fill="#feb784"/><path d="m488 313.88v142.12h-56v40h-144v-40h-56v-142.12a40 40 0 0 1 33.42-39.45l62.58-10.43v-64h64v64l62.58 10.43a39.988 39.988 0 0 1 31.57 27.44 39.537 39.537 0 0 1 1.85 12.01z" fill="#fec093"/><g fill="#feb784"><path d="m488 313.88v142.12h-56v40h-144v-40h-40v-1.94c69.02-28.55 167.48-78.43 238.15-152.19a39.537 39.537 0 0 1 1.85 12.01z"/><path d="m288 456h144v40h-144z"/><path d="m392 240.427v-32.427h-64v32.427a71.4 71.4 0 0 0 64 0z"/></g><path d="m438.172 344.228-22.453-82.328a8 8 0 1 0 -15.438 4.2l21.078 77.285-61.359 40.908 3.744 9.984a45.778 45.778 0 0 0 68.256 22.016c19.288-20.951 20.817-49.921 6.172-72.065z" fill="#f59898"/><path d="m319.719 266.1a8 8 0 1 0 -15.438-4.2l-22.453 82.33c-14.645 22.144-13.116 51.114 6.172 72.065a45.778 45.778 0 0 0 68.256-22.016l3.744-9.986-61.359-40.906z" fill="#f59898"/><path d="m432 104v56a72 72 0 1 1 -144 0v-56a64 64 0 0 1 64-64h16c.43 0 .85 0 1.27.02a63.991 63.991 0 0 1 62.71 62.3c.01.57.02 1.13.02 1.68z" fill="#fec9a3"/><path d="m432 104v56a72.021 72.021 0 0 1 -61.88 71.29 71.851 71.851 0 0 0 25.88-55.29v-80a71.931 71.931 0 0 0 -26.73-55.98 63.991 63.991 0 0 1 62.73 63.98z" fill="#fec093"/><path d="m432 104v3.56l-56-43.56-27.58 13.79a7.985 7.985 0 0 0 -4.42 7.15v145.28a72.044 72.044 0 0 1 -56-70.22v-56a64 64 0 0 1 64-64h16c.43 0 .85 0 1.27.02a63.991 63.991 0 0 1 62.71 62.3c.01.57.02 1.13.02 1.68z" fill="#fec093"/><path d="m360 192a24.027 24.027 0 0 1 -24-24h16a8 8 0 0 0 16 0h16a24.026 24.026 0 0 1 -24 24z" fill="#f7a468"/><circle cx="396.497" cy="132" fill="#7a432a" r="12"/><circle cx="324.497" cy="132" fill="#7a432a" r="12"/><path d="m264 120h8a24 24 0 0 1 24 24 24 24 0 0 1 -24 24h-8a0 0 0 0 1 0 0v-48a0 0 0 0 1 0 0z" fill="#feb784" transform="matrix(-1 0 0 -1 560 288)"/><path d="m256 480h24l152-32 16-16h40v-48h-48l-40 32-168 16v24a24 24 0 0 0 24 24z" fill="#fec093"/><path d="m464 480h-24l-152-32-16-16h-40v-48h48l40 32 168 16v24a24 24 0 0 1 -24 24z" fill="#fec9a3"/><path d="m360 24a80 80 0 0 0 -80 80v130.334a86.833 86.833 0 0 0 48 77.666v-227.056a8 8 0 0 1 4.422-7.155l27.578-13.789 72 56h8v-16a80 80 0 0 0 -80-80z" fill="#95573a"/><path d="m360 24c-2.7 0-5.368.143-8 .4v43.6l8-4 8 6.222v-45.822c-2.632-.257-5.3-.4-8-.4z" fill="#6e3c24"/></svg>