<svg height="512" viewBox="0 0 512 512" width="512" xmlns="http://www.w3.org/2000/svg"><path d="m280 160h16v16h-16z" fill="#feb784"/><path d="m424 160h16v16h-16z" fill="#feb784"/><path d="m24 352h208v32h-208z" fill="#348fd9"/><path d="m24 384h208v112h-208z" fill="#48add9"/><path d="m176 264a32.032 32.032 0 0 0 -32 32v80h-64v-80a16 16 0 0 1 32 0v56h16v-56a32 32 0 0 0 -64 0v160h16v-32h64v32h16v-160a16 16 0 0 1 32 0v56h16v-56a32.032 32.032 0 0 0 -32-32zm-96 144v-16h64v16z" fill="#e0e0de"/><path d="m197.3 445.8c-21.349 0-21.349-5.8-42.7-5.8-21.334 0-21.334 5.8-42.669 5.8-21.317 0-21.317-5.8-42.633-5.8s-21.328 5.8-42.655 5.8c-.938 0-1.786-.024-2.645-.046v50.246h208.002v-55.662c-13.757 1.226-16.43 5.462-34.7 5.462z" fill="#60d1e0"/><path d="m488 323.11v172.89h-256v-172.89a32 32 0 0 1 26.74-31.57l69.26-11.54v-64h64v64l69.26 11.54a32.011 32.011 0 0 1 26.74 31.57z" fill="#fec9a3"/><path d="m392 248.427v-32.427h-64v32.427a71.4 71.4 0 0 0 64 0z" fill="#feb784"/><path d="m280 128h8a0 0 0 0 1 0 0v48a0 0 0 0 1 0 0h-8a24 24 0 0 1 -24-24 24 24 0 0 1 24-24z" fill="#feb784"/><path d="m432 112v56a72 72 0 0 1 -70.84 71.99c-.39.01-.77.01-1.16.01a72.006 72.006 0 0 1 -72-72v-56a64 64 0 0 1 64-64h16a63.987 63.987 0 0 1 64 64z" fill="#fec9a3"/><path d="m432 112v56a72 72 0 0 1 -70.84 71.99 71.97 71.97 0 0 0 35.92-62.32v-80a71.658 71.658 0 0 0 -19.17-48.9 64 64 0 0 1 54.09 63.23z" fill="#fec093"/><path d="m360 200a24.027 24.027 0 0 1 -24-24h16a8 8 0 0 0 16 0h16a24.026 24.026 0 0 1 -24 24z" fill="#f7a468"/><circle cx="396.497" cy="140" fill="#7a432a" r="12"/><circle cx="324.497" cy="140" fill="#7a432a" r="12"/><path d="m432 128h8a24 24 0 0 1 24 24 24 24 0 0 1 -24 24h-8a0 0 0 0 1 0 0v-48a0 0 0 0 1 0 0z" fill="#feb784"/><path d="m440 88v40h-160v-40a64 64 0 0 1 64-64h32a63.987 63.987 0 0 1 64 64z" fill="#d3669a"/><path d="m440 88v40h-101.27c30.21-21.06 60.36-48.8 83.1-84.68a63.8 63.8 0 0 1 18.17 44.68z" fill="#cc5e93"/><path d="m305.141 37.23 23.086 90.77h16.5l-25.211-99.127a63.822 63.822 0 0 0 -14.375 8.357z" fill="#c7568c"/><path d="m392.8 26.305-25.425 101.695h16.489l23.885-95.521a63.522 63.522 0 0 0 -14.949-6.174z" fill="#c7568c"/><rect fill="#9fe4ed" height="48" rx="24" width="64" x="280" y="80"/><rect fill="#9fe4ed" height="48" rx="24" width="64" x="376" y="80"/><path d="m428.435 83.565-40.87 40.87a23.783 23.783 0 0 0 12.435 3.565h16a23.941 23.941 0 0 0 12.435-44.435z" fill="#60d1e0"/><path d="m332.435 83.565-40.87 40.87a23.783 23.783 0 0 0 12.435 3.565h16a23.941 23.941 0 0 0 12.435-44.435z" fill="#60d1e0"/><path d="m416 64h-16a31.891 31.891 0 0 0 -27.55 16h-24.9a31.891 31.891 0 0 0 -27.55-16h-16a32 32 0 0 0 0 64h16a32.032 32.032 0 0 0 32-32h16a32.032 32.032 0 0 0 32 32h16a32 32 0 0 0 0-64zm-96 48h-16a16 16 0 0 1 0-32h16a16 16 0 0 1 0 32zm96 0h-16a16 16 0 0 1 0-32h16a16 16 0 0 1 0 32z" fill="#5ac6d4"/><path d="m488 323.11v172.89h-209.95c75.11-29.68 160.62-84.84 206.7-186.94a31.811 31.811 0 0 1 3.25 14.05z" fill="#fec093"/><path d="m296 448h128v16h-128z" fill="#fec093"/><path d="m424 448h16v48h-16z" fill="#feb784"/><path d="m280 448h16v48h-16z" fill="#feb784"/><path d="m440 448h-160a62.084 62.084 0 0 1 0-80l6.76-81.13 28.85-4.81 6.11 30.56a39.039 39.039 0 0 0 76.56 0l6.11-30.56 28.85 4.81 6.76 81.13a62.077 62.077 0 0 1 0 80z" fill="#d3669a"/><path d="m440 448h-71.75a350.019 350.019 0 0 0 76.92-72.9 62.079 62.079 0 0 1 -5.17 72.9z" fill="#cc5e93"/></svg>