<svg height="512" viewBox="0 0 512 512" width="512" xmlns="http://www.w3.org/2000/svg"><path d="m240 224h144v40h-144z" fill="#374357"/><path d="m454.115 285.572-70.115-21.572-24-8v-72h-48-48v72l-24 8-70.116 21.574a48 48 0 0 0 -33.884 45.877v164.549h352v-164.55a48 48 0 0 0 -33.885-45.878z" fill="#fec093"/><path d="m328.348 256a47.965 47.965 0 0 0 31.652-11.941v-60.059h-48-48v60.058a47.963 47.963 0 0 0 31.651 11.942z" fill="#feb784"/><path d="m488 331.45v164.55h-352v-164.55a48 48 0 0 1 33.88-45.88l70.12-21.57 16-5.33v5.33a56 56 0 0 0 112 0v-5.33l16 5.33 70.11 21.57a48 48 0 0 1 33.89 45.88z" fill="#374357"/><path d="m288 280v216h-152v-164.55a47.986 47.986 0 0 1 33.88-45.88l70.12-21.57z" fill="#404f66"/><path d="m488 331.45v164.55h-152v-216l48-16 70.12 21.57a48.026 48.026 0 0 1 33.88 45.88z" fill="#404f66"/><path d="m488 340.15v155.85h-152v-21.98c53.63-20.63 114.39-59.74 152-133.87z" fill="#3b495e"/><g fill="#374357"><path d="m214.47 379.29-12.94 9.42-59.09-81.28a48.213 48.213 0 0 1 10.59-12.66z"/><path d="m408 336h16v160h-16z"/><path d="m481.57 307.46-59.1 81.25-12.94-9.42 61.46-84.5a48.029 48.029 0 0 1 10.58 12.67z"/></g><path d="m392 104h-8v48h8a24 24 0 0 0 0-48z" fill="#feb784"/><path d="m232.4 104h-.4a24 24 0 0 0 0 48h8v-48z" fill="#feb784"/><path d="m384 96v58.72a142.556 142.556 0 0 1 -11.53 56.18v.01a48.006 48.006 0 0 1 -44.12 29.09h-32.7a48.025 48.025 0 0 1 -44.12-29.09 142.641 142.641 0 0 1 -11.53-56.19v-56.25c0-33.82 22.51-63.86 54.08-72.18a68.937 68.937 0 0 1 13.13-2.13 72 72 0 0 1 76.79 71.84z" fill="#fec9a3"/><path d="m384 96v58.72a142.556 142.556 0 0 1 -11.53 56.18v.01a48.006 48.006 0 0 1 -44.12 29.09h-19.34a72 72 0 0 0 38.99-64v-80a72.057 72.057 0 0 0 -53.92-69.71 68.937 68.937 0 0 1 13.13-2.13 72 72 0 0 1 76.79 71.84z" fill="#fec093"/><path d="m282.458 115.996h43.085v16.005h-43.085z" fill="#f7a468" transform="matrix(.371 -.928 .928 .371 75.946 360.183)"/><path d="m302.891 184h-14.891v-16h14.891c10.949 0 21.546-2.519 29.078-6.91l8.062 13.82c-10.051 5.864-23.242 9.09-37.14 9.09z" fill="#f7a468"/><circle cx="276" cy="115.996" fill="#7a432a" r="12"/><circle cx="348" cy="115.996" fill="#7a432a" r="12"/><path d="m240 120v-32c0-26.51 17.908-48 40-48l-1.408 5.068c-7.842 28.232-21.055 53.888-38.592 74.932z" fill="#6e3c24"/><path d="m384 120v-55.015a25.754 25.754 0 0 0 -32-24.985v24s14.463 34.956 32 56z" fill="#6e3c24"/><path d="m384 58.422v5.578h-104a40 40 0 0 1 -40-40h109.578a34.43 34.43 0 0 1 19.094 5.781 34.423 34.423 0 0 1 15.328 28.641z" fill="#61311b"/><path d="m323.026 251.675-35.026-11.675-48-16v40l48 16 23.026 7.675a18.974 18.974 0 1 0 12-36z" fill="#4d5e78"/><path d="m384 224-42.529 14.177a8 8 0 0 0 -5.471 7.589v34.234l48-16z" fill="#4d5e78"/><path d="m304 319.43v176.57h-16v-181.39a55.8 55.8 0 0 0 16 4.82z" fill="#353f52"/><path d="m216 368h72v32h-72z" fill="#4d5e78"/><path d="m336 368h72v32h-72z" fill="#4d5e78"/><path d="m248 412v1.44a99.946 99.946 0 0 1 -13.18 49.62l-18.82 32.94h-192a255.551 255.551 0 0 1 3.15-40q1.755-11.145 4.49-22.09a256.014 256.014 0 0 1 22.48-58.38l5.64-10.59a100 100 0 0 1 188.24 47.06z" fill="#3b495e"/><path d="m248 412v1.44a99.946 99.946 0 0 1 -13.18 49.62l-18.82 32.94h-53.64l15.91-27.85a109.631 109.631 0 0 0 14.45-54.4v-1.59a109.641 109.641 0 0 0 -61.84-98.69 100.01 100.01 0 0 1 117.12 98.53z" fill="#374357"/><path d="m176 408a24.006 24.006 0 0 1 -24 24 23.709 23.709 0 0 1 -6.88-1.12l-25.12 25.12h-92.85q1.755-11.145 4.49-22.09a256.014 256.014 0 0 1 22.48-58.38l5.64-10.59a99.56 99.56 0 0 1 6.16-10.07l53.85 23.25 20.72 8.95a23.628 23.628 0 0 1 11.51-3.07 24.006 24.006 0 0 1 24 24z" fill="#d6d6d4"/><path d="m67.836 432-15.367-4.453a232.471 232.471 0 0 1 18.09-44.563l3.324-6.23 14.117 7.531-3.324 6.231a216.182 216.182 0 0 0 -16.84 41.484z" fill="#ebebe9"/><path d="m119.758 352-7.758-13.992a77.256 77.256 0 0 1 45.809-9l-1.868 15.89a61.078 61.078 0 0 0 -36.183 7.102z" fill="#404f66"/><path d="m144 456h16v16h-16z" fill="#a3a3a1"/><path d="m176 408a24.006 24.006 0 0 1 -24 24 23.709 23.709 0 0 1 -6.88-1.12l-25.12 25.12h-35.91a611.259 611.259 0 0 1 35.68-77.88l20.72 8.95a23.628 23.628 0 0 1 11.51-3.07 24.006 24.006 0 0 1 24 24z" fill="#c7c7c5"/></svg>