<svg height="512" viewBox="0 0 512 512" width="512" xmlns="http://www.w3.org/2000/svg"><path d="m347.777 296h8.446a83.776 83.776 0 0 0 74.932-46.311 83.769 83.769 0 0 0 8.845-37.466v-108.223h-176v108.223a83.769 83.769 0 0 0 8.845 37.466 83.776 83.776 0 0 0 74.932 46.311z" fill="#f7a116"/><path d="m432 280h-48v-64h-64v64h-48a40 40 0 0 0 -40 40v176h240v-176a40 40 0 0 0 -40-40z" fill="#fec9a3"/><path d="m384 248.427v-32.427h-64v32.427a71.4 71.4 0 0 0 64 0z" fill="#feb784"/><path d="m472 320v176h-240v-176a40 40 0 0 1 40-40h32v8a47.962 47.962 0 0 0 49.48 47.98c26.27-.79 46.52-23.71 46.52-49.99v-5.99h32a40 40 0 0 1 40 40z" fill="#374357"/><path d="m320 248v248h-88v-176a39.973 39.973 0 0 1 40-40h16v-32z" fill="#404f66"/><g fill="#374357"><path d="m320 307.49v25.68l-42.38-53.17h10.38v-12.67z"/><path d="m288 496h-16v-45.184a69.979 69.979 0 0 1 1.883-87.972l12.234 10.312a54.026 54.026 0 0 0 .008 69.7 8 8 0 0 1 1.875 5.144z"/><path d="m312.31 310.38-76.01 48.37-4.3 2.92v-19.15l14.33-9.13-11.35-28.56a39.86 39.86 0 0 1 11.12-15.3l13.97 35.12 10.5-6.68-13.96-34.9a39.837 39.837 0 0 1 15.39-3.07h.62l11.68 29.23 17.95-11.42z"/></g><path d="m472 320v176h-88v-24.5c27.87-22.25 64.42-70.15 85.94-164.18a39.692 39.692 0 0 1 2.06 12.68z" fill="#3b495e"/><path d="m472 320v176h-88v-248h32v32h16a39.993 39.993 0 0 1 36.95 24.69c.36.86.69 1.74.99 2.63a39.692 39.692 0 0 1 2.06 12.68z" fill="#404f66"/><path d="m472 350.86v145.14h-88v-52.74a320.377 320.377 0 0 0 88-92.4z" fill="#3b495e"/><path d="m426.3 280-42.3 52.92v-25.62l32-40.04v12.74z" fill="#374357"/><path d="m416 496h16v-45.184a69.979 69.979 0 0 0 -1.883-87.972l-12.234 10.312a54.026 54.026 0 0 1 -.008 69.7 8 8 0 0 0 -1.875 5.144z" fill="#374357"/><path d="m472 342.52v18.98l-4.3-2.75-76.01-48.37 10.06-12.57 17.95 11.42 11.73-29.23h.57a39.825 39.825 0 0 1 15.54 3.14l-14.11 34.83 10.5 6.68 14.1-35.02a40.039 40.039 0 0 1 10.92 15.06l-11.28 28.7z" fill="#374357"/><path d="m424 112v56a72 72 0 1 1 -144 0v-56a64 64 0 0 1 64-64h16c1.33 0 2.65.04 3.95.12a64 64 0 0 1 60.05 63.88z" fill="#fec9a3"/><path d="m424 112v56a72.043 72.043 0 0 1 -96 67.9 72.033 72.033 0 0 0 48-67.9v-80a71.645 71.645 0 0 0 -12.05-39.88 64 64 0 0 1 60.05 63.88z" fill="#fec093"/><path d="m352 200a24.027 24.027 0 0 1 -24-24h16a8 8 0 0 0 16 0h16a24.027 24.027 0 0 1 -24 24z" fill="#f7a468"/><path d="m248 112h8a24 24 0 0 1 24 24 24 24 0 0 1 -24 24h-8a0 0 0 0 1 0 0v-48a0 0 0 0 1 0 0z" fill="#feb784" transform="matrix(-1 0 0 -1 528 272)"/><path d="m440 104v136a40.015 40.015 0 0 1 -40 40v-166.94a16 16 0 0 0 -7.77-13.72l-8.23-4.94-64-38.4-40 56h-16v-8a80 80 0 0 1 80-80h16a80 80 0 0 1 80 80z" fill="#ffa912"/><circle cx="388" cy="140" fill="#7a432a" r="12"/><circle cx="316" cy="140" fill="#7a432a" r="12"/><path d="m440 104v136a40.015 40.015 0 0 1 -40 40v-166.94a16 16 0 0 0 -7.77-13.72l-8.23-4.94v-6.4a72.084 72.084 0 0 0 -38.99-64h14.99a80 80 0 0 1 80 80z" fill="#f7a116"/><path d="m336 333.27v162.73h-16v-172.23a47.86 47.86 0 0 0 16 9.5z" fill="#353f52"/><path d="m264.76 412v1.44a100.041 100.041 0 0 1 -13.17 49.62l-18.83 32.94h-192a256.158 256.158 0 0 1 30.12-120.47l5.65-10.59a100 100 0 0 1 188.23 47.06z" fill="#374357"/><path d="m264.76 412v1.44a100.041 100.041 0 0 1 -13.17 49.62l-18.83 32.94h-60.07l12.96-22.67a117.45 117.45 0 0 0 15.47-58.24v-1.7a117.159 117.159 0 0 0 -55.36-99.57 100 100 0 0 1 119 98.18z" fill="#313b4c"/><path d="m192.76 408a24 24 0 0 1 -24 24 23.7 23.7 0 0 1 -6.87-1.12l-25.13 25.12h-92.73c-19.27-80 36.73-96 38.58-100.92l52.48 22.49 22.16 9.5a23.658 23.658 0 0 1 11.51-3.07 24 24 0 0 1 24 24z" fill="#bfbfbd"/><path d="m135.65 359.512-7.757-13.992a77.243 77.243 0 0 1 45.808-9l-1.867 15.891a61.074 61.074 0 0 0 -36.184 7.101z" fill="#3b495e"/><path d="m72.764 424.746-16-.336a77.728 77.728 0 0 1 17.543-47.465l.777-.945 12.359 10.156-.773.942a61.663 61.663 0 0 0 -13.906 37.648z" fill="#d6d6d4"/><path d="m192.76 408a24 24 0 0 1 -24 24 23.7 23.7 0 0 1 -6.87-1.12l-25.13 25.12h-45.63c10.82-35.03 26.99-60.3 43.96-78.43l22.16 9.5a23.658 23.658 0 0 1 11.51-3.07 24 24 0 0 1 24 24z" fill="#b0b0ae"/><path d="m168.764 448h16v16h-16z" fill="#b0b0ae"/></svg>