<svg height="512" viewBox="0 0 512 512" width="512" xmlns="http://www.w3.org/2000/svg"><path d="m232 160h16v16h-16z" fill="#feb784"/><path d="m376 160h16v16h-16z" fill="#feb784"/><path d="m224 120h24v16h-24z" fill="#ffb531"/><path d="m406.58 290.43-28.29-4.72-26.29-4.38-1.32-.22a8 8 0 0 1 -6.68-7.89v-57.22h-64v56.69a8 8 0 0 1 -7.28 7.97l-.72.07-25.85 2.35-26.98 2.45a47.948 47.948 0 0 0 -37.62 24.52c-.47.83-.91 1.69-1.33 2.56l-66.27 138.42a26.965 26.965 0 0 0 48.83 22.7l21.22-30.79 35.54-51.57h12.46v104.63h208v-166.12a40 40 0 0 0 -33.42-39.45z" fill="#fec9a3"/><path d="m344 248.427v-32.427h-64v32.427a71.4 71.4 0 0 0 64 0z" fill="#feb784"/><path d="m392 64h-24v32h8a16 16 0 0 1 16 16v88a48 48 0 0 0 48 48v-136a48 48 0 0 0 -48-48z" fill="#f7a116"/><path d="m232 128h8a0 0 0 0 1 0 0v48a0 0 0 0 1 0 0h-8a24 24 0 0 1 -24-24 24 24 0 0 1 24-24z" fill="#feb784"/><path d="m384 112v56a72 72 0 1 1 -144 0v-56a64 64 0 0 1 64-64h16a63.933 63.933 0 0 1 64 64z" fill="#fec9a3"/><path d="m384 112v56a72.08 72.08 0 0 1 -88 70.22 72.044 72.044 0 0 0 56-70.22v-80a71.686 71.686 0 0 0 -9.62-35.98 64.015 64.015 0 0 1 41.62 59.98z" fill="#fec093"/><path d="m312 200a24.027 24.027 0 0 1 -24-24h16a8 8 0 0 0 16 0h16a24.026 24.026 0 0 1 -24 24z" fill="#f7a468"/><circle cx="348.497" cy="140" fill="#7a432a" r="12"/><circle cx="276.497" cy="140" fill="#7a432a" r="12"/><path d="m400 104v32l-16-8-32-64s-6.12 4.9-16 11.99c-25.82 18.53-77.28 52.01-112 52.01v-24a80 80 0 0 1 80-80h16a80 80 0 0 1 80 80z" fill="#ffb531"/><path d="m184 440v2.94l-21.22 30.79a26.965 26.965 0 0 1 -48.83-22.7l66.27-138.42c.42-.87.86-1.73 1.33-2.56l-5.55 49.95z" fill="#fec093"/><path d="m153.66 303.23a26.516 26.516 0 0 1 -6.2.77h-1.17c-13.1 0-24.52-9.51-27.7-23.07l-9.45-40.36-8.92-15.24-28.22-48.18 20.61-22a34.934 34.934 0 0 0 6.24-37.45 32.363 32.363 0 0 0 -21.6-18.43l-5.25-1.4v-15.86a156.557 156.557 0 0 1 56-17.34v26.84a175.489 175.489 0 0 0 9.01 55.52q2.58 7.74 4.42 15.67a174.007 174.007 0 0 1 4.14 27.35z" fill="#d3669a"/><path d="m176 88.43v185.11c0 14.54-9.57 26.66-22.34 29.69l-8.09-113.18a174.007 174.007 0 0 0 -4.14-27.35q-1.83-7.92-4.42-15.67a175.489 175.489 0 0 1 -9.01-55.52v-26.84c1.15-.14 2.28-.39 3.43-.49 4.52-.42 14.28-.04 23.51.5a22.059 22.059 0 0 1 17.83 11.42 24.791 24.791 0 0 1 3.23 12.33z" fill="#d6d6d4"/><path d="m153.66 303.23a26.516 26.516 0 0 1 -6.2.77h-1.17c-13.1 0-24.52-9.51-27.7-23.07l-9.45-40.36-8.92-15.24a307.273 307.273 0 0 0 41.21-62.63 174.007 174.007 0 0 1 4.14 27.35z" fill="#cc5e93"/><path d="m176 88.43v185.11c0 14.54-9.57 26.66-22.34 29.69l-8.09-113.18a174.007 174.007 0 0 0 -4.14-27.35c12.28-24.48 23.05-53.11 31.34-86.6a24.791 24.791 0 0 1 3.23 12.33z" fill="#c7c7c5"/><path d="m168 460v-20l-8-80 8-64-32-16-3.534-7.068a16.158 16.158 0 0 0 -14.452-8.932 16.159 16.159 0 0 0 -16 13.873l-6.014 42.127 16 40v100a28 28 0 0 0 28 28 28 28 0 0 0 28-28z" fill="#fec9a3"/><g fill="#d6d6d4"><path d="m100.044 239.307h32.974v16.004h-32.974z" transform="matrix(.833 -.554 .554 .833 -117.419 105.858)"/><path d="m84.646 212.893h32.974v16.004h-32.974z" transform="matrix(.833 -.554 .554 .833 -105.372 92.918)"/><path d="m69.247 186.478h32.974v16.004h-32.974z" transform="matrix(.833 -.554 .554 .833 -93.324 79.977)"/></g><path d="m392 448v48h-160v-48l-.91-1.11c-.59-.74-1.16-1.48-1.72-2.24l-.01-.01c-.3-.41-.59-.81-.87-1.23s-.57-.83-.84-1.24q-.57-.855-1.11-1.74c-.09-.16-.18-.31-.27-.46-.38-.62-.74-1.24-1.09-1.87-.19-.33-.37-.67-.54-1.01-.38-.7-.74-1.41-1.09-2.12a62.14 62.14 0 0 1 8.45-66.97l14.15-84.92 25.85-2.35v39.27a40 40 0 0 0 80 0v-38.67l26.29 4.38 13.71 82.29a62.106 62.106 0 0 1 0 80z" fill="#5ac6d4"/><path d="m392 448v48h-111.51a494.5 494.5 0 0 0 118.55-117.69 62.063 62.063 0 0 1 -7.04 69.69z" fill="#57bfcc"/><path d="m400 104v32l-16-8-32-64s-6.12 4.9-16 11.99v-3.99a71.7 71.7 0 0 0 -18.34-48h2.34a80 80 0 0 1 80 80z" fill="#ffa912"/><path d="m384 128h8a24 24 0 0 1 24 24 24 24 0 0 1 -24 24h-8a0 0 0 0 1 0 0v-48a0 0 0 0 1 0 0z" fill="#feb784"/></svg>