<svg height="512" viewBox="0 0 512 512" width="512" xmlns="http://www.w3.org/2000/svg"><path d="m456 145.52v-25.52h-56v184h56l8.243-19.234a69.161 69.161 0 0 0 3.906-42.446c-7.165-31.851-12.149-64.153-12.149-96.8z" fill="#8f4d2e"/><path d="m280 216a69.184 69.184 0 0 0 -8.243 68.766l8.243 19.234h56v-104l-16-32z" fill="#8f4d2e"/><path d="m488 496v-168a40 40 0 0 0 -40-40h-48v-64h-64v64h-48a40 40 0 0 0 -40 40v168" fill="#fec9a3"/><path d="m400 256.427v-32.427h-64v32.427a71.4 71.4 0 0 0 64 0z" fill="#feb784"/><path d="m440 120v56a72 72 0 0 1 -144 0v-56a64 64 0 0 1 64-64h16a64 64 0 0 1 64 64z" fill="#fec9a3"/><path d="m440 120v56a72.027 72.027 0 0 1 -46.52 67.36 71.632 71.632 0 0 0 14.52-43.36v-80a72.084 72.084 0 0 0 -38.99-64h6.99a64 64 0 0 1 64 64z" fill="#fec093"/><path d="m368 208a24.027 24.027 0 0 1 -24-24h16a8 8 0 0 0 16 0h16a24.026 24.026 0 0 1 -24 24z" fill="#f7a468"/><circle cx="404.497" cy="148" fill="#7a432a" r="12"/><circle cx="332.497" cy="148" fill="#7a432a" r="12"/><path d="m456 112v16h-16a94.132 94.132 0 0 1 -45.29-49.22l-2.71-6.78-9.5 4.22-24.94 11.09a63.264 63.264 0 0 0 -37.56 57.79 63.258 63.258 0 0 1 -14.66 40.49l-25.34 30.41v-104a79.961 79.961 0 0 1 80-80h16a80 80 0 0 1 80 80z" fill="#95573a"/><path d="m440 128h8a24 24 0 0 1 24 24 24 24 0 0 1 -24 24h-8a0 0 0 0 1 0 0v-48a0 0 0 0 1 0 0z" fill="#feb784"/><path d="m488 328v168h-240v-168a40 40 0 0 1 40-40l5.37 8.06a89.7 89.7 0 0 0 149.26 0l5.37-8.06a40.01 40.01 0 0 1 40 40z" fill="#f59898"/><path d="m488 328v168h-212.58c65.91-38.91 150.31-100.19 209.69-182.92a39.611 39.611 0 0 1 2.89 14.92z" fill="#ec8c8c"/><path d="m454.891 379.93-13.782 8.14c11.243 19.032 8.336 44.258-7.234 62.782a8.011 8.011 0 0 0 -1.875 5.148v40h16v-37.172c18.258-23.484 21.1-54.828 6.891-78.898z" fill="#e07f7f"/><path d="m294.891 388.07-13.782-8.14c-14.209 24.07-11.367 55.414 6.891 78.898v37.172h16v-40a8.011 8.011 0 0 0 -1.875-5.148c-15.57-18.524-18.477-43.752-7.234-62.782z" fill="#e07f7f"/><path d="m456 112v16h-16a94.115 94.115 0 0 1 -45.29-49.22l-2.71-6.78-8 3.55-1.5.67a72.453 72.453 0 0 0 -11.59-15.13 71.731 71.731 0 0 0 -46.14-20.93 79.718 79.718 0 0 1 35.23-8.16h16q4.05 0 8 .39a79.139 79.139 0 0 1 16 3.28 80.019 80.019 0 0 1 56 76.33z" fill="#8f4d2e"/><path d="m24 272h224v224h-224z" fill="#f35244"/><path d="m248 288-208 208h208z" fill="#ea4a3b"/><path d="m184 272h64v224h-64z" fill="#de4132"/><path d="m208 272h16v192h-16z" fill="#cf3b2e"/><path d="m200 272h-16v-24a32 32 0 0 0 -64 0v24h-16v-24a48 48 0 0 1 96 0z" fill="#d6d6d4"/><path d="m120 408h-48v-80l24-16 24 16z" fill="#ffb531"/><path d="m88 272h16v64h-16z" fill="#e0e0de"/><path d="m237.449 496h10.551v-12.058l-26.422-25.676a7.983 7.983 0 0 0 -11.195.039l-26.383 26.017v11.678h10.943l21.1-20.805z" fill="#cf3b2e"/><path d="m152 296h-16v-48a32 32 0 0 0 -64 0v48h-16v-48a48 48 0 0 1 96 0z" fill="#e0e0de"/><path d="m400 35.67v54.18a94.511 94.511 0 0 1 -5.29-11.07l-2.71-6.78-8 3.55v-43.16a79.139 79.139 0 0 1 16 3.28z" fill="#82462a"/></svg>