<svg height="512" viewBox="0 0 512 512" width="512" xmlns="http://www.w3.org/2000/svg"><path d="m464 440v-110.37a48 48 0 0 0 -41.212-47.518l-70.788-10.112v-32h-80v32l-74.058 15.869a48 48 0 0 0 -37.942 46.931v105.2" fill="#fec9a3"/><path d="m352 253.4v-45.4h-80v45.4a80.758 80.758 0 0 0 80 0z" fill="#feb784"/><path d="m464 329.63v110.37h-304v-105.2a48 48 0 0 1 37.94-46.93l58.06-12.44a52.575 52.575 0 0 0 52.57 52.57h6.86a52.575 52.575 0 0 0 52.57-52.57v-1.14l54.79 7.82a47.748 47.748 0 0 1 20.9 8.31h.01a48.446 48.446 0 0 1 8.22 7.37 47.907 47.907 0 0 1 12.08 31.84z" fill="#e0e0de"/><path d="m464 329.63v110.37h-206.45c69.32-39.2 138.26-86.59 194.37-142.21a47.907 47.907 0 0 1 12.08 31.84z" fill="#d6d6d4"/><path d="m232.4 128h-.4a24 24 0 0 0 0 48h8v-48z" fill="#feb784"/><path d="m384 112.01v63.99a72.006 72.006 0 0 1 -72 72c-.9 0-1.8-.02-2.69-.05a72.006 72.006 0 0 1 -69.31-71.95v-63.99a72 72 0 0 1 144 0z" fill="#fec9a3"/><path d="m384 112.01v63.99a72.006 72.006 0 0 1 -72 72c-.9 0-1.8-.02-2.69-.05a71.858 71.858 0 0 0 26.69-55.95v-80a72.05 72.05 0 0 0 -47.99-67.89 72.018 72.018 0 0 1 95.99 67.9z" fill="#fec093"/><path d="m240 120h144v16h-144z" fill="#fec093"/><path d="m277.8 92.613a174.36 174.36 0 0 0 68.4 0l5.8-1.159 32 52.546v-32a72 72 0 0 0 -144 0v32l32-52.546z" fill="#95573a"/><circle cx="276" cy="148" fill="#7a432a" r="12"/><circle cx="348" cy="148" fill="#7a432a" r="12"/><path d="m333.672 179.781a98.826 98.826 0 0 1 -28.734 4.219h-16.938v16h16.938a114.782 114.782 0 0 0 33.39-4.906z" fill="#f7a468"/><path d="m400 352h16v128h-16z" fill="#bfbfbd"/><path d="m208 352h16v128h-16z" fill="#bfbfbd"/><path d="m192 488h24l152-32h32l24-16h40v-56h-40l-56 24-208 16v32a32 32 0 0 0 32 32z" fill="#feb784"/><path d="m432 488h-24l-152-32h-32l-24-16h-40v-56h40l56 24 208 16v32a32 32 0 0 1 -32 32z" fill="#fec9a3"/><path d="m176 152v272a64 64 0 0 1 -128 0v-272a64 64 0 1 1 128 0z" fill="#404f66"/><path d="m176 152v272a64 64 0 0 1 -128 0v-16.44c47-61.48 92.08-152.16 120.44-285.76a63.63 63.63 0 0 1 7.56 30.2z" fill="#3b495e"/><g fill="#ffb531"><rect height="48" rx="8" width="32" x="48" y="160"/><rect height="48" rx="8" width="32" x="144" y="160"/><rect height="48" rx="8" transform="matrix(-1 0 0 -1 320 784)" width="32" x="144" y="368"/><rect height="48" rx="8" transform="matrix(-1 0 0 -1 128 784)" width="32" x="48" y="368"/></g><path d="m144 200a16 16 0 0 0 -16 16v16h-32v-16a16 16 0 0 0 -16-16v-32h64z" fill="#c7c7c5"/><path d="m80 376a16 16 0 0 0 16-16v-16h32v16a16 16 0 0 0 16 16v32h-64z" fill="#c7c7c5"/><path d="m104 184h16v16h-16z" fill="#b0b0ae"/><path d="m104 376h16v16h-16z" fill="#b0b0ae"/><path d="m437.212 183.349-50.175.331a64 64 0 0 1 -45.378-18.446l-45.659-45.275h96l50.779 49.7a8 8 0 0 1 -5.567 13.69z" fill="#4d5e78"/><path d="m392 71.959v48h-160v-48a47.969 47.969 0 0 1 48-48h64a48.006 48.006 0 0 1 48 48z" fill="#404f66"/><path d="m392 71.959v48h-98.12a332.568 332.568 0 0 0 78.14-86.97 47.923 47.923 0 0 1 19.98 38.97z" fill="#3b495e"/><path d="m288 119.959h-56v-32h56a16 16 0 0 1 16 16 16 16 0 0 1 -16 16z" fill="#4d5e78"/><path d="m272 87.959h-40v-16a47.748 47.748 0 0 1 6.15-23.53 40.032 40.032 0 0 1 33.85 39.53z" fill="#313b4c"/></svg>