<svg height="512" viewBox="0 0 512 512" width="512" xmlns="http://www.w3.org/2000/svg"><path d="m224 152a24 24 0 0 0 24 24h8v-48h-8a24 24 0 0 0 -24 24z" fill="#feb784"/><path d="m360 336a107.792 107.792 0 0 0 48-89.689v-126.311h-48z" fill="#ffa912"/><path d="m456 496v-166.115a40 40 0 0 0 -33.424-39.456l-55.891-9.315a8 8 0 0 1 -6.685-7.891v-57.223h-64v54.465a8 8 0 0 1 -9.39 7.878l-126.61-22.343-8-176h-48v200.474a32 32 0 0 0 22.455 30.543l105.545 32.983 6.787 38.787a62.019 62.019 0 0 0 9.213 65.213v48" fill="#fec9a3"/><path d="m184 260.235v68.765l16 5v-70.941z" fill="#fec093"/><path d="m360 248.427v-32.427h-64v32.427a71.4 71.4 0 0 0 64 0z" fill="#feb784"/><path d="m456 368h-48a62.084 62.084 0 0 1 0 80v48h-160v-48a62.008 62.008 0 0 1 -9.21-65.21l-6.79-38.79-26.59-8.31 16.38-68.79 58.21 10.28v18.82a48 48 0 0 0 96 0v-13.33l46.58 7.76a40.015 40.015 0 0 1 33.42 39.45z" fill="#d3669a"/><path d="m456 368h-48a62.084 62.084 0 0 1 0 80v48h-149.46c59.87-42.25 131.51-106.73 182.59-197.23a39.937 39.937 0 0 1 14.87 31.11z" fill="#cc5e93"/><path d="m400 112v56a72 72 0 0 1 -70.97 71.99c-.34.01-.69.01-1.03.01a72.006 72.006 0 0 1 -72-72v-56a64 64 0 0 1 64-64h16a63.949 63.949 0 0 1 64 64z" fill="#fec9a3"/><path d="m400 112v56a72 72 0 0 1 -70.97 71.99 71.981 71.981 0 0 0 38.97-63.99v-80a71.7 71.7 0 0 0 -16.76-46.17 64.009 64.009 0 0 1 48.76 62.17z" fill="#fec093"/><path d="m296 120h80v16h-80z" fill="#fec093"/><circle cx="364.497" cy="140" fill="#7a432a" r="12"/><circle cx="292.497" cy="140" fill="#7a432a" r="12"/><path d="m326.891 200h-6.891v-16h6.891c10.957 0 21.554-2.516 29.078-6.906l8.062 13.812c-10.043 5.867-23.231 9.094-37.14 9.094z" fill="#f7a468"/><path d="m184 152v272a64 64 0 1 1 -128 0v-272a64 64 0 1 1 128 0z" fill="#f59898"/><path d="m184 152v272a64.007 64.007 0 0 1 -126.69 12.94c42.1-69.55 91.2-172.46 122.11-308.74a63.59 63.59 0 0 1 4.58 23.8z" fill="#ec8c8c"/><g fill="#ebebe9"><rect height="48" rx="8" width="32" x="56" y="160"/><rect height="48" rx="8" width="32" x="152" y="160"/><rect height="48" rx="8" transform="matrix(-1 0 0 -1 336 784)" width="32" x="152" y="368"/><rect height="48" rx="8" transform="matrix(-1 0 0 -1 144 784)" width="32" x="56" y="368"/></g><path d="m152 200a16 16 0 0 0 -16 16v16h-32v-16a16 16 0 0 0 -16-16v-32h64z" fill="#c7c7c5"/><path d="m88 376a16 16 0 0 0 16-16v-16h32v16a16 16 0 0 0 16 16v32h-64z" fill="#c7c7c5"/><path d="m112 184h16v16h-16z" fill="#b0b0ae"/><path d="m112 376h16v16h-16z" fill="#b0b0ae"/><path d="m88 80h64a0 0 0 0 1 0 0v32a16 16 0 0 1 -16 16h-32a16 16 0 0 1 -16-16v-32a0 0 0 0 1 0 0z" fill="#fec9a3"/><path d="m416 496h-16v-48a8.011 8.011 0 0 1 1.875-5.148 54.022 54.022 0 0 0 .008-69.7 8.018 8.018 0 0 1 -1.883-5.152v-16h16v13.18a69.975 69.975 0 0 1 0 85.64z" fill="#c7568c"/><path d="m328 24a80 80 0 0 0 -80 80v160a107.792 107.792 0 0 0 48 89.689v-233.689l64-56 40 56h8v-16a80 80 0 0 0 -80-80z" fill="#ffb531"/><path d="m408 120h-160v-40a56 56 0 0 1 56-56h48a56 56 0 0 1 56 56z" fill="#4d5e78"/><path d="m352 24h-32a56 56 0 0 1 56 56v40h32v-40a56 56 0 0 0 -56-56z" fill="#44546c"/><path d="m288 88h80v32h-80z" fill="#556a8a"/><path d="m328 56a24 24 0 0 1 24 24v8a0 0 0 0 1 0 0h-48a0 0 0 0 1 0 0v-8a24 24 0 0 1 24-24z" fill="#353f52"/><path d="m408 128h-8v48h8a24 24 0 0 0 0-48z" fill="#feb784"/></svg>