<svg height="512" viewBox="0 0 512 512" width="512" xmlns="http://www.w3.org/2000/svg"><path d="m232 240v200a32 32 0 0 1 -32 32h-136a31.976 31.976 0 0 1 -32-32v-200a32 32 0 0 1 32-32h136a31.85 31.85 0 0 1 16.11 4.34 32.274 32.274 0 0 1 10.39 9.71 31.845 31.845 0 0 1 5.5 17.95z" fill="#d6d6d4"/><path d="m232 240v200a32 32 0 0 1 -32 32h-136a32.071 32.071 0 0 1 -29.8-20.32c62.34-51.36 130.48-127.82 181.91-239.34a32.274 32.274 0 0 1 10.39 9.71 31.845 31.845 0 0 1 5.5 17.95z" fill="#c7c7c5"/><g fill="#bfbfbd"><rect height="200" rx="8" width="16" x="64" y="240"/><rect height="200" rx="8" width="16" x="104" y="240"/><rect height="200" rx="8" width="16" x="144" y="240"/><rect height="200" rx="8" width="16" x="184" y="240"/></g><circle cx="88" cy="464" fill="#44546c" r="32"/><path d="m184 496a16 16 0 0 1 -16-16v-8h32v8a16 16 0 0 1 -16 16z" fill="#44546c"/><rect fill="#e0e0de" height="32" rx="16" width="96" x="80" y="32"/><path d="m96 64h16v144h-16z" fill="#c7c7c5"/><path d="m144 64h16v144h-16z" fill="#c7c7c5"/><path d="m96 64h16v16h-16z" fill="#bfbfbd"/><path d="m144 64h16v16h-16z" fill="#bfbfbd"/><path d="m400 161.52v-41.52h-56v200h56l8.243-19.234a69.161 69.161 0 0 0 3.906-42.446c-7.165-31.851-12.149-64.153-12.149-96.8z" fill="#8f4d2e"/><path d="m224 232a69.184 69.184 0 0 0 -8.243 68.766l8.243 19.234h56v-104l-16-32z" fill="#8f4d2e"/><path d="m392 304h-48v-64h-64v64h-48a40 40 0 0 0 -40 40v152h240v-152a40 40 0 0 0 -40-40z" fill="#fec9a3"/><path d="m344 272.427v-32.427h-64v32.427a71.4 71.4 0 0 0 64 0z" fill="#feb784"/><path d="m384 136v56a72 72 0 1 1 -144 0v-56a64 64 0 0 1 64-64h16a63.956 63.956 0 0 1 64 64z" fill="#fec9a3"/><path d="m312 224a24.027 24.027 0 0 1 -24-24h16a8 8 0 0 0 16 0h16a24.026 24.026 0 0 1 -24 24z" fill="#f7a468"/><path d="m240 160h128v24h-128z" fill="#fec093"/><path d="m384 136v56a72.051 72.051 0 0 1 -87.29 70.37 72.029 72.029 0 0 0 52.59-69.35v-80a71.686 71.686 0 0 0 -11.07-38.38 64.011 64.011 0 0 1 45.77 61.36z" fill="#fec093"/><path d="m304 48a80 80 0 0 0 -80 80v104l25.341-30.409a63.246 63.246 0 0 0 14.659-40.491 63.246 63.246 0 0 1 37.559-57.795l34.441-15.305 2.713 6.782a94.1 94.1 0 0 0 45.287 49.218h16v-16a80 80 0 0 0 -80-80z" fill="#95573a"/><path d="m384 144h8a24 24 0 0 1 24 24 24 24 0 0 1 -24 24h-8a0 0 0 0 1 0 0v-48a0 0 0 0 1 0 0z" fill="#feb784"/><path d="m432 496v-152a40 40 0 0 0 -40-40l-5.374 8.062a89.691 89.691 0 0 1 -74.626 39.938 89.691 89.691 0 0 1 -74.626-39.938l-5.374-8.062a40 40 0 0 0 -40 40v152" fill="#e0e0de"/><path d="m432 344v152h-240v-152a40 40 0 0 1 40-40h32l48 128 48-128h32a39.978 39.978 0 0 1 40 40z" fill="#348fd9"/><path d="m432 344v152h-176.2c64.47-37.81 131.28-93.11 171.03-171.67a39.8 39.8 0 0 1 5.17 19.67z" fill="#3086cd"/><path d="m344 51.674a79.554 79.554 0 0 0 -16-3.27v43.152l8-3.556 2.713 6.782a94.017 94.017 0 0 0 4.344 9.218h.943z" fill="#82462a"/><path d="m272 440h16v16h-16z" fill="#2a71ad"/><path d="m398.891 395.93-13.782 8.14c11.239 19.032 8.332 44.266-7.234 62.782a8.011 8.011 0 0 0 -1.875 5.148v24h16v-21.172c18.258-23.484 21.1-54.828 6.891-78.898z" fill="#2a71ad"/><path d="m238.891 404.07-13.782-8.14c-14.209 24.07-11.367 55.414 6.891 78.898v21.172h16v-24a8.011 8.011 0 0 0 -1.875-5.148c-15.566-18.516-18.473-43.752-7.234-62.782z" fill="#2a71ad"/><path d="m304 424h16v72h-16z" fill="#2a71ad"/><rect fill="#ffa912" height="80" rx="40" width="336" x="144" y="88"/><path d="m400 112v16h-176v-16a87.889 87.889 0 0 1 85.24-87.95c.92-.04 1.84-.05 2.76-.05a87.9 87.9 0 0 1 88 88z" fill="#ffb531"/><path d="m400 112v16h-41.87c-12.37-52.57-26.9-83.17-48.89-103.95.92-.04 1.84-.05 2.76-.05a88 88 0 0 1 88 88z" fill="#ffa912"/><path d="m400 112v16h-176v-16a88.826 88.826 0 0 1 1.45-16h173.1a88.826 88.826 0 0 1 1.45 16z" fill="#f98500"/><path d="m400 112v16h-48c-2.14-12.01-4.32-22.6-6.63-32h53.18a88.826 88.826 0 0 1 1.45 16z" fill="#e67007"/></svg>