<svg height="512" viewBox="0 0 512 512" width="512" xmlns="http://www.w3.org/2000/svg"><path d="m216 256h80l8.98 26.83-97.8-.03z" fill="#45a7d1"/><path d="m320 160h16v16h-16z" fill="#feb784"/><path d="m176 160h16v16h-16z" fill="#feb784"/><path d="m168 112h16v24h-16z" fill="#95573a"/><path d="m350.576 290.429-62.576-10.429v-64h-64v64l-62.576 10.429a40 40 0 0 0 -33.424 39.456v166.115h256v-166.115a40 40 0 0 0 -33.424-39.456z" fill="#fec9a3"/><path d="m288 248.427v-32.427h-64v32.427a71.4 71.4 0 0 0 64 0z" fill="#feb784"/><path d="m336 64h-24v32h8a16 16 0 0 1 16 16v88a48 48 0 0 0 48 48v-136a48 48 0 0 0 -48-48z" fill="#82462a"/><path d="m176 128h8a0 0 0 0 1 0 0v48a0 0 0 0 1 0 0h-8a24 24 0 0 1 -24-24 24 24 0 0 1 24-24z" fill="#feb784"/><path d="m328 112v56a72.006 72.006 0 0 1 -72 72c-2.18 0-4.35-.1-6.48-.29a72.007 72.007 0 0 1 -65.52-71.71v-56a64 64 0 0 1 64-64h16c1.97 0 3.93.09 5.86.27a63.988 63.988 0 0 1 58.14 63.73z" fill="#fec9a3"/><path d="m328 112v56a72.006 72.006 0 0 1 -72 72c-2.18 0-4.35-.1-6.48-.29a71.979 71.979 0 0 0 38.44-63.71v-80a71.714 71.714 0 0 0 -18.1-47.73 63.988 63.988 0 0 1 58.14 63.73z" fill="#fec093"/><circle cx="220" cy="140" fill="#7a432a" r="12"/><circle cx="292" cy="140" fill="#7a432a" r="12"/><path d="m344 104v32l-16-8-32-64s-10.1 8.08-25.27 18.49c-27.53 18.9-71.78 45.51-102.73 45.51v-24a79.93 79.93 0 0 1 80-80h16a80 80 0 0 1 80 80z" fill="#95573a"/><path d="m344 104v32l-16-8-32-64s-10.1 8.08-25.27 18.49a72.144 72.144 0 0 0 -47.37-54.62 79.929 79.929 0 0 1 24.64-3.87h16a80 80 0 0 1 80 80z" fill="#8f4d2e"/><path d="m328 128h8a24 24 0 0 1 24 24 24 24 0 0 1 -24 24h-8a0 0 0 0 1 0 0v-48a0 0 0 0 1 0 0z" fill="#feb784"/><path d="m256 200a24.027 24.027 0 0 1 -24-24h16a8 8 0 0 0 16 0h16a24.027 24.027 0 0 1 -24 24z" fill="#f7a468"/><path d="m384 329.88v62.12h-256v-62.12a40 40 0 0 1 33.42-39.45l38.23-6.38 7.53-1.25.82-2.8 2.62-7.87 5.38-16.13a77.755 77.755 0 0 0 32 10.67 78.254 78.254 0 0 0 16 0 77.755 77.755 0 0 0 32-10.67l5.33 16 2.67 8 .98 2.83 7.02 1.17 38.58 6.43a39.988 39.988 0 0 1 33.42 39.45z" fill="#4db7e5"/><path d="m384 329.88v62.12h-59.86a335.483 335.483 0 0 0 51.58-86.49 39.915 39.915 0 0 1 8.28 24.37z" fill="#48add9"/><path d="m350.08 416a61.843 61.843 0 0 1 -14.08 32v48h-160v-48a62.1 62.1 0 0 1 0-80l56-80h48l56 80q1.725 2.055 3.26 4.22a62.118 62.118 0 0 1 10.82 43.78z" fill="#60d1e0"/><path d="m350.08 416h-188.16a62.081 62.081 0 0 1 14.08-48h160q1.725 2.055 3.26 4.22a62.118 62.118 0 0 1 10.82 43.78z" fill="#ebebe9"/><path d="m350.08 416a61.843 61.843 0 0 1 -14.08 32v48h-160v-1.09c51.59-19 115.55-54.97 163.26-122.69a62.118 62.118 0 0 1 10.82 43.78z" fill="#5ac6d4"/><path d="m350.08 416h-47.9a322.662 322.662 0 0 0 37.08-43.78 62.118 62.118 0 0 1 10.82 43.78z" fill="#e0e0de"/><path d="m312 284-3.2 2.4c-.12.09-.24.17-.36.26a94.328 94.328 0 0 1 -104.88 0l-3.91-2.61 7.53-1.25.82-2.8 2.62-7.87 1.82 1.21a78.288 78.288 0 0 0 86.94.12l1.95-1.46 2.67 8 .98 2.83z" fill="#45a7d1"/><path d="m264 266.67v229.33h-16v-229.33a78.254 78.254 0 0 0 16 0z" fill="#45a7d1"/><path d="m184 496.005h-160a144 144 0 0 1 144-144h48l16 24 2.5 1.249a71.714 71.714 0 0 1 37.5 46.751l-24 40z" fill="#e0e0de"/><path d="m197.71 377.145a47.051 47.051 0 0 1 -10.53 15.15 43.291 43.291 0 0 1 -15.64 9.65 129.06 129.06 0 0 0 -37.83 20.91 127.7 127.7 0 0 0 -12.76 11.63 129.274 129.274 0 0 0 -32.95 61.52h-27.43a128.561 128.561 0 0 1 118.96-117.56z" fill="#b0b0ae"/><path d="m232 424.005-14.57 18-19.07 12.85-15.48 10.43-45.59 30.72h-21.86a163.083 163.083 0 0 1 38.7-44.14 138.711 138.711 0 0 1 15.39-10.47 123.1 123.1 0 0 1 62.48-17.39z" fill="#b0b0ae"/><g fill="#c7c7c5"><path d="m198.36 454.855-15.48 10.43-28.75-13.42a138.711 138.711 0 0 1 15.39-10.47z"/><path d="m133.71 422.855a127.7 127.7 0 0 0 -12.76 11.63l-28.12-13.47a129.1 129.1 0 0 1 12.16-11.92z"/></g></svg>