<svg xmlns="http://www.w3.org/2000/svg" width="1240" height="1240"><path d="M0 620.001v620.001l620.25-.251 620.25-.251.251-619.75.251-619.75H0v620.001m.497.499c0 341 .114 480.649.253 310.332s.139-449.317 0-620S.497 279.5.497 620.5M100 620v520h1040V100H100v520m139.676-362.343c-.372.372-.676 163.726-.676 363.01V983h99.003l-.252-362.75-.251-362.75-48.574-.259c-26.716-.143-48.878.044-49.25.416M533 620v363h98V692.27l76.25-.567c59.582-.444 79.476-.915 91.007-2.154 73.244-7.87 120.888-29.441 157.504-71.309 8.418-9.626 14.475-18.779 21.245-32.107 8.334-16.406 11.987-26.306 16.284-44.133 12.007-49.807 9.743-110.228-5.806-155-3.661-10.543-14.396-32.122-20.345-40.895-29.26-43.156-74.655-70.287-137.139-81.963-34.006-6.354-54.289-7.112-190.75-7.129L533 257v363m98-145.5V610h70.622c76.228 0 80.306-.222 102.018-5.559 33.01-8.113 59.228-27.081 75.441-54.579 8.233-13.962 14.103-33.38 16.435-54.362 1.826-16.435 1.835-26.754.036-42.5-2.995-26.219-9.374-44.37-21.893-62.29-17.393-24.899-43.958-41.355-77.659-48.107-16.631-3.332-23.696-3.603-94.072-3.603H631v135.5" fill="undefined" fill-rule="evenodd"/></svg>