<svg width="150" height="150" xmlns="http://www.w3.org/2000/svg">
 <!-- Created with Method Draw - http://github.com/duopixel/Method-Draw/ -->

 <g>
  <title>Layer 1</title>
  <metadata transform="matrix(0.11111111773384952,0,0,0.11111111773384952,0,0) ">Created by potrace 1.15, written by Peter Selinger 2001-2017</metadata>
  <g stroke="null" id="svg_9">
   <g id="svg_4" fill="#000000" transform="matrix(0.04337053307029289,0,0,-0.03837098411871942,-863.1373886258444,-346.5961410082441) ">
    <path stroke="null" fill="#0C372C" id="svg_5" d="m21165.25748,-9297.770494c-253,-147 -632,-366 -842,-487l-382,-220l0,-980l0,-980l368,-212c202,-116 582,-335 844,-487l478,-276l845,488l844,487l0,980l0,980l-840,485c-462,267 -844,486 -847,487c-4,1 -214,-119 -468,-265zm1234,-357l761,-440l0,-890l0,-890l-764,-441l-765,-442l-528,305c-290,168 -634,366 -764,441l-237,137l0,890l-1,890l543,313c298,172 641,370 762,441c121,71 223,128 226,127c3,0 348,-199 767,-441z"/>
    <path stroke="null" fill="#0C372C" id="svg_6" d="m21951.25748,-11059.770494l0,-830l255,0l255,0l0,830l0,830l-255,0l-255,0l0,-830zm430,5l0,-755l-175,0l-175,0l0,755l0,755l175,0l175,0l0,-755z"/>
    <path stroke="null" fill="#0C372C" id="svg_7" d="m20801.25748,-11289.770494l0,-600l255,0l255,0l0,600l0,600l-255,0l-255,0l0,-600zm430,0l0,-520l-175,0l-175,0l0,520l0,520l175,0l175,0l0,-520z"/>
    <path stroke="null" fill="#0C372C" id="svg_8" d="m21373.25748,-11486.770494l3,-398l255,0l255,0l3,398l2,397l-260,0l-260,0l2,-397zm438,-3l0,-320l-180,0l-180,0l0,320l0,320l180,0l180,0l0,-320z"/>
   </g>
  </g>
 </g>
</svg>