<svg height="512" viewBox="0 0 512 512" width="512" xmlns="http://www.w3.org/2000/svg"><path d="m432.846 296.659-88.846-16.659v-72h-48-48v72l-85.412 26.278a64 64 0 0 0 -30.852 20.813l-83.8 103.145a35.425 35.425 0 0 0 -7.936 22.341 35.424 35.424 0 0 0 35.423 35.423h4.148a35.423 35.423 0 0 0 27.041-12.542l77.388-91.458v112h288v-152.164a48 48 0 0 0 -39.154-47.177z" fill="#fec9a3"/><path d="m271.064 272h49.872a31.934 31.934 0 0 0 23.064-9.9v-54.1h-48-48v54.1a31.935 31.935 0 0 0 23.064 9.9z" fill="#feb784"/><path d="m472 343.84v48.16h-64v104h-224v-112l-33 39-53.62-53.62 34.36-42.29a63.973 63.973 0 0 1 30.85-20.81l85.41-26.28v8a48 48 0 0 0 96 0v-8l54.69 10.25 34.16 6.41a48 48 0 0 1 39.15 47.18z" fill="#f35244"/><path d="m376 120h-8v48h8a24 24 0 0 0 0-48z" fill="#feb784"/><path d="m216.4 120h-.4a24 24 0 0 0 0 48h8.48l-.48-48z" fill="#feb784"/><path d="m368 112v56a72 72 0 0 1 -144 0v-56a72.009 72.009 0 0 1 69.07-71.94c.97-.04 1.95-.06 2.93-.06a72.006 72.006 0 0 1 72 72z" fill="#fec9a3"/><path d="m368 112v56a72.006 72.006 0 0 1 -63.79 71.53 71.831 71.831 0 0 0 26.79-56.03v-80a72.078 72.078 0 0 0 -37.93-63.44c.97-.04 1.95-.06 2.93-.06a72.006 72.006 0 0 1 72 72z" fill="#feb784"/><circle cx="260" cy="131.746" fill="#6e3c24" r="12"/><circle cx="332" cy="131.746" fill="#6e3c24" r="12"/><path d="m266.458 139.746h43.085v16.005h-43.085z" fill="#f7a468" transform="matrix(.371 -.928 .928 .371 43.84 360.255)"/><g fill="#6e3c24"><path d="m368 128v-39.015a42.246 42.246 0 0 0 -32-40.985v24s14.463 34.956 32 56z"/><path d="m224 128v-39.015a42.246 42.246 0 0 1 32-40.985v24s-14.463 34.956-32 56z"/><path d="m336 48v24h-80v-24l2.687-4.031a44.846 44.846 0 0 1 37.313-19.969 44.846 44.846 0 0 1 37.313 19.969z"/></g><path d="m296 24a44.62 44.62 0 0 0 -8.239.849l23.755 47.151h17.914l-23.605-46.853a44.774 44.774 0 0 0 -9.825-1.147z" fill="#7a432a"/><path d="m264.435 37.1 14.824 34.9h17.385l-18.735-44.1a44.735 44.735 0 0 0 -13.474 9.2z" fill="#7a432a"/><path d="m368 120v48.424a96 96 0 0 1 -4.927 30.359l-11.78 35.339a32 32 0 0 1 -30.358 21.878h-49.871a32 32 0 0 1 -30.358-21.881l-11.78-35.34a96 96 0 0 1 -4.926-30.357v-48.422l27.25 40.878a16 16 0 0 0 13.313 7.122h62.874a16 16 0 0 0 13.313-7.125z" fill="#6e3c24"/><path d="m286.891 208h-14.891v-16h14.891c10.949 0 21.547-2.52 29.078-6.91l8.062 13.82c-10.051 5.863-23.242 9.09-37.14 9.09z" fill="#fec9a3"/><path d="m47.931 430.239a35.423 35.423 0 0 0 27.492 57.761h4.148a35.422 35.422 0 0 0 27.041-12.542l44.388-52.458-53.621-53.621z" fill="#fec093"/><path d="m184 376h-80l-8-128h96z" fill="#e0e0de"/><path d="m88 216h112v32h-112z" fill="#95573a"/><path d="m160 216h40v32h-40z" fill="#8f4d2e"/><path d="m98 280 4 64h84l4-64z" fill="#ffb531"/><path d="m160 248v32h30l2-32z" fill="#d6d6d4"/><path d="m160 376h24l2-32h-26z" fill="#d6d6d4"/><path d="m160 344h26l4-64h-30z" fill="#ffa912"/><path d="m113.848 135.422 4.941-13.551-15.031-5.484-4.942 13.551a29.549 29.549 0 0 0 7.762 31.945 13.594 13.594 0 0 1 3.574 14.695l-4.941 13.551 15.031 5.484 4.942-13.551a29.549 29.549 0 0 0 -7.762-31.945 13.594 13.594 0 0 1 -3.574-14.695z" fill="#e0e0de"/><path d="m164.4 150.117a13.6 13.6 0 0 1 -3.574-14.695l4.942-13.551-15.032-5.484-4.941 13.551a29.549 29.549 0 0 0 7.762 31.945 13.6 13.6 0 0 1 3.574 14.695l-4.941 13.551 15.031 5.484 4.941-13.551a29.548 29.548 0 0 0 -7.762-31.945z" fill="#e0e0de"/><path d="m472 343.84v48.16h-64v104h-224v-18.16c66.37-20.78 162.97-70.35 214.69-187.59l34.16 6.41a48 48 0 0 1 39.15 47.18z" fill="#ea4a3b"/><path d="m408 392h64v24h-64z" fill="#fec093"/><path d="m81.858 488h-9.858a32 32 0 0 1 -32-32v-104h56l17.372 98.439a32 32 0 0 1 -31.514 37.561z" fill="#fec9a3"/><path d="m40 272h64a16 16 0 0 1 16 16v48a16 16 0 0 1 -16 16h-64a0 0 0 0 1 0 0v-80a0 0 0 0 1 0 0z" fill="#fec9a3"/></svg>