<svg height="512" viewBox="0 0 512 512" width="512" xmlns="http://www.w3.org/2000/svg"><path d="m102.229 424a42.438 42.438 0 0 0 64.888 53.413l46.519-55.123-65.006-58.8z" fill="#feb784"/><path d="m455.845 289.569-87.845-17.569v-32h-80v32l-56 11.2v212.8h192v-96h64v-71.208a40 40 0 0 0 -32.155-39.223z" fill="#fec9a3"/><path d="m424 400h64v96h-64z" fill="#fec9a3"/><path d="m448 496v-96h-24v96" fill="#fec093"/><path d="m488 328.79v71.21h-64v96h-192v-96l-18.364 22.29-65.006-58.8 43.89-57.23a67.259 67.259 0 0 1 38.44-22.85l57.04-11.41 40 16 40-16 87.84 17.57a37.238 37.238 0 0 1 5.59 1.56 39.967 39.967 0 0 1 26.57 37.66z" fill="#c7c7c5"/><path d="m488 328.79v71.21h-64v96h-175c69.67-24.01 165.88-79.16 212.43-204.87a39.967 39.967 0 0 1 26.57 37.66z" fill="#bfbfbd"/><path d="m424 283.2v212.8h-192v-212.8l56-11.2 40 96 40-96 44.6 8.92z" fill="#909741"/><path d="m424 283.2v212.8h-192v-4.87c67.3-31.81 144.68-92.99 180.6-210.21z" fill="#898f3d"/><path d="m320 368h16v128h-16z" fill="#7c852c"/><rect fill="#919c48" height="80" rx="8" width="80" x="360" y="408"/><path d="m392 408h16v80h-16z" fill="#7c852c"/><path d="m368 408h64a8 8 0 0 1 8 8v24a0 0 0 0 1 0 0h-80a0 0 0 0 1 0 0v-24a8 8 0 0 1 8-8z" fill="#9aa955"/><rect fill="#919c48" height="64" rx="8" width="64" x="216" y="312"/><path d="m224 312h48a8 8 0 0 1 8 8v24a0 0 0 0 1 0 0h-64a0 0 0 0 1 0 0v-24a8 8 0 0 1 8-8z" fill="#9aa955"/><path d="m130.643 488a34.643 34.643 0 0 1 -34.643-34.643v-53.357h56l12.066 44.242a34.644 34.644 0 0 1 -33.423 43.758z" fill="#fec9a3"/><path d="m96 320h64a16 16 0 0 1 16 16v48a16 16 0 0 1 -16 16h-64a0 0 0 0 1 0 0v-80a0 0 0 0 1 0 0z" fill="#fec9a3"/><path d="m160 320h-32a16 16 0 0 1 16 16v48a16 16 0 0 1 -16 16h32a16 16 0 0 0 16-16v-48a16 16 0 0 0 -16-16z" fill="#fec093"/><path d="m144 320h-32l8-255.976h16z" fill="#c7c7c5"/><path d="m138.25 136.016h-20.5l-.5 16h21.5z" fill="#b0b0ae"/><path d="m114.75 232.016h26.5l-.5-16h-25.5z" fill="#b0b0ae"/><circle cx="152" cy="256" fill="#d6d6d4" r="32"/><path d="m157.656 261.656-11.312-11.312 37.656-37.656v-28.688h16v32a8 8 0 0 1 -2.344 5.656z" fill="#c7c7c5"/><circle cx="192" cy="184" fill="#d6d6d4" r="16"/><path d="m112 400h32a0 0 0 0 1 0 0v24a16 16 0 0 1 -16 16 16 16 0 0 1 -16-16v-24a0 0 0 0 1 0 0z" fill="#4d5e78"/><path d="m32 424h-16c0-25.547 11.7-38.711 22.02-50.324 9.648-10.86 17.98-20.235 17.98-39.7s-8.332-28.84-17.98-39.7c-10.32-11.612-22.02-24.776-22.02-50.323 0-25.531 11.7-38.687 22.023-50.3 9.645-10.844 17.977-20.212 17.977-39.661s-8.332-28.828-17.98-39.68c-10.32-11.612-22.02-24.773-22.02-50.312a48.052 48.052 0 0 1 48-48h24a48.052 48.052 0 0 1 48 48h-16a32.036 32.036 0 0 0 -32-32h-24a32.036 32.036 0 0 0 -32 32c0 19.457 8.332 28.828 17.98 39.68 10.32 11.613 22.02 24.773 22.02 50.312s-11.7 38.688-22.023 50.3c-9.645 10.845-17.977 20.208-17.977 39.661 0 19.465 8.332 28.84 17.98 39.7 10.32 11.613 22.02 24.777 22.02 50.324s-11.7 38.711-22.02 50.323c-9.648 10.86-17.98 20.235-17.98 39.7z" fill="#a3a3a1"/><path d="m44 496a28.033 28.033 0 0 1 -28-28v-44h16v44a12 12 0 0 0 24 0v-24.688l-2.344 2.344-11.312-11.312 16-16a8 8 0 0 1 13.656 5.656v44a28.033 28.033 0 0 1 -28 28z" fill="#d6d6d4"/><ellipse cx="41.803" cy="281.474" fill="#d6d6d4" rx="20" ry="32" transform="matrix(.866 -.5 .5 .866 -135.137 58.612)"/><path d="m408 128h-8v48h8a24 24 0 1 0 0-48z" fill="#feb784"/><path d="m248.4 128h-.4a24 24 0 0 0 0 48h8v-48z" fill="#feb784"/><path d="m400 120v56a72 72 0 0 1 -70.97 71.99c-.34.01-.69.01-1.03.01a72.006 72.006 0 0 1 -72-72v-56a72 72 0 0 1 144 0z" fill="#fec9a3"/><path d="m400 120v56a72 72 0 0 1 -70.97 71.99 71.981 71.981 0 0 0 38.97-63.99v-80a71.775 71.775 0 0 0 -21.09-50.91c-1.21-1.21-2.45-2.37-3.74-3.49a72.05 72.05 0 0 1 56.83 70.4z" fill="#fec093"/><path d="m400 136v80a48 48 0 0 1 -48 48h-48c-1.22 0-2.42-.05-3.61-.13a48.009 48.009 0 0 1 -44.39-47.87v-80l27.2 34a16 16 0 0 0 12.49 6h64.62a15.926 15.926 0 0 0 12.49-6z" fill="#95573a"/><path d="m293.8 100.613a174.36 174.36 0 0 0 68.4 0l5.8-1.159 32 36.546v-16a72 72 0 0 0 -144 0v16l32-36.546z" fill="#8f4d2e"/><circle cx="292" cy="140" fill="#7a432a" r="12"/><circle cx="364" cy="140" fill="#7a432a" r="12"/><path d="m352 191.147-4.452-6.642c-8.645 5.8-17.6 8.734-26.613 8.734h-16.935v16h16.934c12.242 0 24.195-3.851 35.519-11.445z" fill="#fec9a3"/><path d="m381.5 126.03-21.94-3.52a200.451 200.451 0 0 0 -63.12 0l-21.94 3.52c-18.65 2.99-33.52-13.15-26.5-30.03h160c7.02 16.88-7.85 33.02-26.5 30.03z" fill="#919c48"/><path d="m408 72v24h-160v-24a48 48 0 0 1 48-48h64a47.885 47.885 0 0 1 27.12 8.4c.57.38 1.13.79 1.68 1.2a48 48 0 0 1 19.2 38.4z" fill="#909741"/><path d="m408 72v24h-85.62c24.04-16.55 46.44-37.38 64.74-63.6.57.38 1.13.79 1.68 1.2a48 48 0 0 1 19.2 38.4z" fill="#898f3d"/><path d="m381.5 126.03-21.94-3.52a198.742 198.742 0 0 0 -24.34-2.37c6.7-5.2 12.62-12.92 13.79-24.14h58.99c7.02 16.88-7.85 33.02-26.5 30.03z" fill="#909741"/><path d="m400 136v80a48 48 0 0 1 -48 48h-48c-1.22 0-2.42-.05-3.61-.13a72.014 72.014 0 0 0 67.61-71.87v-17.96a16.145 16.145 0 0 0 4.8-4.04z" fill="#8f4d2e"/><path d="m328 288-40-16 20.723 49.735z" fill="#e0e0de"/><path d="m347.277 321.735 20.723-49.735-40 16z" fill="#e0e0de"/><rect fill="#919c48" height="64" rx="8" width="64" x="376" y="312"/><path d="m384 312h48a8 8 0 0 1 8 8v24a0 0 0 0 1 0 0h-64a0 0 0 0 1 0 0v-24a8 8 0 0 1 8-8z" fill="#9aa955"/><rect fill="#919c48" height="80" rx="8" width="80" x="216" y="408"/><path d="m248 408h16v80h-16z" fill="#7c852c"/><path d="m224 408h64a8 8 0 0 1 8 8v24a0 0 0 0 1 0 0h-80a0 0 0 0 1 0 0v-24a8 8 0 0 1 8-8z" fill="#9aa955"/><path d="m112 400h32v16h-32z" fill="#44546c"/></svg>