<svg height="512" viewBox="0 0 512 512" width="512" xmlns="http://www.w3.org/2000/svg"><path d="m101.842 442.106a35.174 35.174 0 0 0 33.5 45.894 35.174 35.174 0 0 0 32.658-22.111l22.225-54.39-68.2-31.4z" fill="#feb784"/><path d="m439.522 283.88-79.522-19.88v-72h-96v72l-84.97 18.208a48 48 0 0 0 -35.586 32.078l-21.395 65.736-.024.074 68.2 31.4v-.009l17.775-43.487v128h280v-150.031a64 64 0 0 0 -48.478-62.089z" fill="#fec9a3"/><path d="m312 264a68.208 68.208 0 0 0 48-19.736v-52.273h-96v52.273a68.208 68.208 0 0 0 48 19.736z" fill="#feb784"/><path d="m488 345.97v46.03h-72v104h-208v-128l-17.77 43.49-68.18-31.47 21.39-65.73a47.992 47.992 0 0 1 35.59-32.08l84.97-18.21a48 48 0 0 0 96 0l63.68 15.92 15.84 3.96a64 64 0 0 1 48.48 62.09z" fill="#348fd9"/><path d="m488 345.97v46.03h-72v104h-208v-4.66c70.87-24.21 169.81-80.69 215.68-211.42l15.84 3.96a64 64 0 0 1 48.48 62.09z" fill="#3086cd"/><rect fill="#4d5e78" height="144" rx="20" width="40" x="24" y="216"/><path d="m44 312a20 20 0 0 1 -20-20v48a20 20 0 0 0 40 0v-48a20 20 0 0 1 -20 20z" fill="#44546c"/><rect fill="#4d5e78" height="144" rx="20" width="40" x="192" y="216"/><path d="m212 312a20 20 0 0 1 -20-20v48a20 20 0 0 0 40 0v-48a20 20 0 0 1 -20 20z" fill="#44546c"/><path d="m64 272h128v32h-128z" fill="#e0e0de"/><path d="m64 272h16v32h-16z" fill="#d6d6d4"/><path d="m171.338 446.042-11.338-118.042v-64a16 16 0 0 0 -16-16h-40a16 16 0 0 0 -16 16v6.863a16 16 0 0 0 .161 2.262l7.839 54.875v122.215a37.785 37.785 0 1 0 75.338-4.173z" fill="#fec9a3"/><path d="m384 109.59v32.83a258.2 258.2 0 0 1 -5.02 50.67 68.3 68.3 0 0 1 -133.96 0q-2.505-12.525-3.76-25.21t-1.26-25.46v-32.83a72 72 0 0 1 144 0z" fill="#fec9a3"/><path d="m384 109.59v32.83a258.2 258.2 0 0 1 -5.02 50.67 68.351 68.351 0 0 1 -83.75 52.83 72.031 72.031 0 0 0 54.77-69.92v-80a72.057 72.057 0 0 0 -29.16-57.87 72.017 72.017 0 0 1 63.16 71.46z" fill="#fec093"/><circle cx="276" cy="129.59" fill="#7a432a" r="12"/><circle cx="348" cy="129.59" fill="#7a432a" r="12"/><path d="m310.891 192h-14.891v-16h14.891c10.949 0 21.547-2.52 29.078-6.91l8.062 13.82c-10.051 5.863-23.242 9.09-37.14 9.09z" fill="#f7a468"/><path d="m240 120h-8a24 24 0 0 0 0 48h9.273q-1.268-12.746-1.273-25.584z" fill="#feb784"/><path d="m392 120h-8v22.416q0 12.824-1.273 25.584h9.273a24 24 0 0 0 0-48z" fill="#feb784"/><path d="m240 120v-32c0-26.51 17.909-48 40-48l-1.408 5.068c-7.842 28.232-21.055 53.888-38.592 74.932z" fill="#e67007"/><path d="m384 120v-55.015a25.754 25.754 0 0 0 -32-24.985v24s14.463 34.956 32 56z" fill="#e67007"/><path d="m352 64h-112a40 40 0 0 1 40-40h33.373a54.626 54.626 0 0 1 38.627 16z" fill="#f98500"/><path d="m285.845 24 31.938 40h20.472l-31.938-40z" fill="#e67007"/><path d="m250.44 37.262 25.624 26.738h22.164l-34.8-36.312a39.905 39.905 0 0 0 -12.988 9.574z" fill="#e67007"/><path d="m408 352h16v144h-16z" fill="#2d7dbf"/></svg>