<svg height="512" viewBox="0 0 512 512" width="512" xmlns="http://www.w3.org/2000/svg"><path d="m488 345.97v150.03h-280v-128l-17.77 43.49-5.35 13.09-16.88 41.31a34.744 34.744 0 0 1 -2.35 4.78c-.44.76-.92 1.5-1.41 2.21a35.242 35.242 0 0 1 -6.1 6.73c-.65.55-1.33 1.09-2.02 1.6-.35.25-.7.5-1.06.74l-9.3 4.47c-.83.26-1.67.48-2.52.68l-7.9.9a35.174 35.174 0 0 1 -33.5-45.89l20.21-62.09 21.39-65.73a48.015 48.015 0 0 1 35.59-32.08l42.72-9.15 28.32-6.08 13.93-2.98v-72h96v72l13.56 3.39 29.25 7.31 36.71 9.18a64 64 0 0 1 48.48 62.09z" fill="#fec9a3"/><path d="m360 249.161v-41.161h-96v41.161a85.053 85.053 0 0 0 96 0z" fill="#feb784"/><path d="m184.88 424.58-16.88 41.31a34.744 34.744 0 0 1 -2.35 4.78c-.44.76-.92 1.5-1.41 2.21a35.242 35.242 0 0 1 -6.1 6.73c-.65.55-1.33 1.09-2.02 1.6-.35.25-.7.5-1.06.74l-9.3 4.47c-.83.26-1.67.49-2.52.68l-7.9.9a35.174 35.174 0 0 1 -33.5-45.89l20.21-62.09 21.39-65.73a47.846 47.846 0 0 1 11.81-19.19c9.14 6.33 19.46 17.53 21.42 29.57 2.36 14.54 6.04 66.84 8.21 99.91z" fill="#fec093"/><path d="m416 368v128h-208v-128l13.75-94.94 28.32-6.08 5.34 29.79a57.517 57.517 0 0 0 113.18 0l4.97-29.38 29.25 7.31z" fill="#4db7e5"/><path d="m168 242.74a42.6 42.6 0 0 1 -1.28 10.36l-10.92 43.69a20.082 20.082 0 0 1 -33.68 9.33 14.316 14.316 0 0 0 -20.24 0 20.07 20.07 0 0 1 -32.01-4.93 19.707 19.707 0 0 1 -1.67-4.4l-10.92-43.69a42.738 42.738 0 0 1 41.46-53.1h26.52a42.75 42.75 0 0 1 42.74 42.74z" fill="#7eb457"/><path d="m168 242.74a42.6 42.6 0 0 1 -1.28 10.36l-10.92 43.69a20.082 20.082 0 0 1 -33.68 9.33 14.316 14.316 0 0 0 -20.24 0 20.07 20.07 0 0 1 -32.01-4.93c30.7-14.23 65.76-40.24 86.66-87.58a42.567 42.567 0 0 1 11.47 29.13z" fill="#77ad50"/><g fill="#5f9548"><path d="m120 224h-16v-11.156a45.808 45.808 0 0 0 -20.438-38.188l8.876-13.312a61.778 61.778 0 0 1 27.562 51.5z"/><path d="m112 231.84a50.535 50.535 0 0 1 -28.508-8.852l9.016-13.218a34.413 34.413 0 0 0 38.984 0l9.016 13.218a50.535 50.535 0 0 1 -28.508 8.852z"/><path d="m119.265 199.705-5.841-.742c-7.133-25.391 13.549-49.943 39.311-46.667l5.841.742c7.133 25.391-13.549 49.943-39.311 46.667z"/></g><path d="m171.338 446.043-9.479-112.066a24 24 0 0 0 -23.915-21.977h-41.944l-5.91-29.55a12.95 12.95 0 0 0 -12.701-10.45h-31.989a10.752 10.752 0 0 0 -10.485 13.113l8.744 39.348a24.952 24.952 0 0 0 24.357 19.539h27.984v104.4c0 20.542 15.606 38.69 36.129 39.561a37.786 37.786 0 0 0 39.209-41.918z" fill="#fec9a3"/><path d="m392 120h-8v48h8a24 24 0 1 0 0-48z" fill="#feb784"/><path d="m232.4 120h-.4a24 24 0 0 0 0 48h8v-48z" fill="#feb784"/><path d="m384 112v64a72 72 0 1 1 -144 0v-64a72 72 0 0 1 144 0z" fill="#fec9a3"/><path d="m384 112v64a72.045 72.045 0 0 1 -89.15 69.94 72.019 72.019 0 0 0 54.85-69.94v-80a71.775 71.775 0 0 0 -21.09-50.91c-1.41-1.41-2.88-2.77-4.41-4.06a72.034 72.034 0 0 1 59.8 70.97z" fill="#fec093"/><path d="m256 64h96v16h-96z" fill="#fec093"/><path d="m384 120v-55.015a25.754 25.754 0 0 0 -32-24.985v24s14.463 34.956 32 56z" fill="#82462a"/><path d="m240 120v-55.015a25.754 25.754 0 0 1 32-24.985v24s-14.463 34.956-32 56z" fill="#82462a"/><path d="m352 64h-112a40 40 0 0 1 40-40h46.111a28.944 28.944 0 0 1 25.889 16z" fill="#95573a"/><path d="m333.68 176.344a99.077 99.077 0 0 1 -28.742 4.215h-16.938v16h16.938a115.016 115.016 0 0 0 33.382-4.9z" fill="#f7a468"/><circle cx="276" cy="132" fill="#7a432a" r="12"/><circle cx="348" cy="132" fill="#7a432a" r="12"/><path d="m488 345.97v150.03h-219.97c70.8-28.88 155.4-85.94 198.11-198.2a63.958 63.958 0 0 1 21.86 48.17z" fill="#fec093"/><path d="m416 387.09v108.91h-147.97c48.85-19.93 104.27-53.27 147.97-108.91z" fill="#48add9"/></svg>