<svg height="512" viewBox="0 0 512 512" width="512" xmlns="http://www.w3.org/2000/svg"><path d="m384 496v-96l27.189 27.189a34.515 34.515 0 0 0 52.493-4.344 34.516 34.516 0 0 0 -2.724-43.474l-65.253-70.691a47.2 47.2 0 0 0 -28.828-14.82l-46.877-5.86v-80h-80v80l-40.782 5.1a64 64 0 0 0 -39.089 20.1l-103.337 109.484a32.24 32.24 0 0 0 -8.792 22.126v5.365a32.236 32.236 0 0 0 20.264 29.931 32.237 32.237 0 0 0 34.767-7.137l72.969-72.969v96z" fill="#fec9a3"/><path d="m320 267.856v-59.856h-80v59.856a71.963 71.963 0 0 0 80 0z" fill="#feb784"/><path d="m446.38 363.58-46.8 52-15.58-15.58v96h-208v-96l-15.58 15.58-47.31-52.57 47.02-49.82a63.974 63.974 0 0 1 39.09-20.09l24.78-3.1a54 54 0 0 0 54 54h4a54 54 0 0 0 54-54l30.88 3.86a47.24 47.24 0 0 1 28.83 14.82z" fill="#f98500"/><path d="m352 120v72a72 72 0 1 1 -144 0v-72a64 64 0 0 1 64-64h16a64 64 0 0 1 64 64z" fill="#fec9a3"/><path d="m352 120v72a72.041 72.041 0 0 1 -92 69.18 72.028 72.028 0 0 0 52-69.18v-80a71.775 71.775 0 0 0 -21.09-50.91 70.093 70.093 0 0 0 -5.66-5.09h2.75a64 64 0 0 1 64 64z" fill="#fec093"/><path d="m352 120v14.42a60.96 60.96 0 0 1 -27.31-27.31l-4.69-9.37a105.081 105.081 0 0 1 -9.32 10.2 106.519 106.519 0 0 1 -73.9 29.8h-28.78v-17.74a64 64 0 0 1 64-64h16a64 64 0 0 1 64 64z" fill="#fec093"/><path d="m352 120v8a61.037 61.037 0 0 1 -35.31-30.63l-4.69-9.37a105.081 105.081 0 0 1 -9.32 10.2 106.577 106.577 0 0 1 -55.76 28.25 107.261 107.261 0 0 1 -16.37 1.53c-.59.02-1.18.02-1.77.02h-20.78v-8a64 64 0 0 1 64-64h16a64 64 0 0 1 64 64z" fill="#ffb531"/><circle cx="244" cy="156" fill="#7a432a" r="12"/><circle cx="316" cy="156" fill="#7a432a" r="12"/><path d="m192 336v144a16 16 0 0 1 -16 16h-80a16 16 0 0 1 -16-16v-144a16 16 0 0 1 16-16h80a15.99 15.99 0 0 1 16 16z" fill="#e0e0de"/><path d="m192 336v144a16 16 0 0 1 -16 16h-80a16 16 0 0 1 -16-16v-10.97c40.16-33.14 78.3-80.17 104.07-146.85a16 16 0 0 1 7.93 13.82z" fill="#d6d6d4"/><circle cx="136" cy="440" fill="#c7c7c5" r="32"/><rect fill="#4db7e5" height="48" rx="8" width="64" x="104" y="344"/><path d="m160 344h-48a8 8 0 0 0 -8 8v16a8 8 0 0 1 8-8h48a8 8 0 0 1 8 8v-16a8 8 0 0 0 -8-8z" fill="#48add9"/><path d="m96 496h-56v-80h56a16 16 0 0 1 16 16v48a16 16 0 0 1 -16 16z" fill="#fec9a3"/><path d="m96 416h-32a16 16 0 0 1 16 16v48a16 16 0 0 1 -16 16h32a16 16 0 0 0 16-16v-48a16 16 0 0 0 -16-16z" fill="#fec093"/><path d="m270.891 200h-14.891v16h14.891c13.9 0 27.089-3.227 37.14-9.09l-8.062-13.82c-7.531 4.39-18.129 6.91-29.078 6.91z" fill="#f7a468"/><path d="m176 268a12 12 0 0 1 -24 0v-16a28 28 0 0 0 -56 0v68h16v-68a12 12 0 0 1 24 0v16a28 28 0 0 0 56 0v-76h-16z" fill="#bfbfbd"/><path d="m119.867 193.312h.024l8-48a8 8 0 0 0 -7.891-9.312h-48a8 8 0 0 0 -7.891 6.684l-5.595 33.57a15.977 15.977 0 1 0 13.353 17.058h.024l6.886-41.312h31.778l-4.041 24.254a15.977 15.977 0 1 0 13.353 17.058z" fill="#4db7e5"/><path d="m275.97 86.95c-13.65 7.79-23.26 19.5-27.06 32.97l-1.99 6.53a107.261 107.261 0 0 1 -16.37 1.53l2.96-12.41c4.95-17.53 17.21-32.63 34.52-42.52z" fill="#f7a116"/><path d="m176 120h32a0 0 0 0 1 0 0v72a0 0 0 0 1 0 0h-32a16 16 0 0 1 -16-16v-40a16 16 0 0 1 16-16z" fill="#e0e0de"/><path d="m160 151.985v24.015a16 16 0 0 0 16 16h32v-24.015h-32a16 16 0 0 1 -16-16z" fill="#d6d6d4"/><path d="m352 120h32a16 16 0 0 1 16 16v40a16 16 0 0 1 -16 16h-32a0 0 0 0 1 0 0v-72a0 0 0 0 1 0 0z" fill="#e0e0de"/><path d="m384 168h-32v24h32a16 16 0 0 0 16-16v-24a16 16 0 0 1 -16 16z" fill="#d6d6d4"/><path d="m384 120h-32a63.977 63.977 0 0 0 -64-64h-16a63.9 63.9 0 0 0 -45.26 18.74c-.56.56-1.11 1.13-1.65 1.72a63.747 63.747 0 0 0 -17.09 43.54h-32a95.985 95.985 0 0 1 96-96h16a96.022 96.022 0 0 1 96 96z" fill="#d6d6d4"/><path d="m237.47 66.1a63.871 63.871 0 0 0 -10.73 8.64c-.56.56-1.11 1.13-1.65 1.72l-22.58-22.69a95.974 95.974 0 0 1 11.92-10.6z" fill="#c7c7c5"/><path d="m357.54 53.83-22.63 22.63a63.964 63.964 0 0 0 -12.37-10.35l23.09-22.89a95.251 95.251 0 0 1 11.91 10.61z" fill="#c7c7c5"/><path d="m352 120v8a61.037 61.037 0 0 1 -35.31-30.63l-4.69-9.37a105.081 105.081 0 0 1 -9.32 10.2 71.86 71.86 0 0 0 -19.77-37.11 70.093 70.093 0 0 0 -5.66-5.09h10.75a64 64 0 0 1 64 64z" fill="#ffa912"/><path d="m446.38 363.58-46.8 52-15.58-15.58v96h-175.72c64.57-30.59 138.36-88.23 175.87-196.45a47.243 47.243 0 0 1 11.56 9.13z" fill="#f27900"/><path d="m470.676 395.332-46.676-163.332v-88l-24.91-41.279a16.054 16.054 0 0 0 -21.739-4.185 14.763 14.763 0 0 0 -5.326 19.3l18.369 34.164-10.6 41.248a120.434 120.434 0 0 0 -3.794 29.983 120.381 120.381 0 0 0 1.27 17.445l24.969 170.564c2.6 16.546 17.172 28.76 34.3 28.76a34.8 34.8 0 0 0 31.042-18.749l.753-1.471a33.218 33.218 0 0 0 2.342-24.448z" fill="#fec9a3"/><path d="m176 192h16v16h-16z" fill="#b0b0ae"/></svg>