<svg height="512" viewBox="0 0 512 512" width="512" xmlns="http://www.w3.org/2000/svg"><path d="m432 160h16v16h-16z" fill="#feb784"/><path d="m168 288h32v72h-32z" fill="#82462a"/><path d="m88 328h192v32h-192z" fill="#82462a"/><path d="m88 408h-32l96-384h32z" fill="#8f4d2e"/><path d="m280 408h32l-96-384h-32z" fill="#8f4d2e"/><path d="m24 56h320v208h-320z" fill="#e0e0de"/><path d="m56 264h256v32h-256z" fill="#8f4d2e"/><path d="m48 88h16v16h-16z" fill="#ebebe9"/><path d="m48 120h16v96h-16z" fill="#ebebe9"/><path d="m85.333 264h258.667v-208h-50.667z" fill="#d6d6d4"/><path d="m56 264h256v16h-256z" fill="#82462a"/><path d="m461.724 283.223-61.724-11.223v-64h-64v64l-61.724 11.223a32 32 0 0 0 -26.276 31.484v149.293h240v-149.293a32 32 0 0 0 -26.276-31.484z" fill="#fec9a3"/><path d="m400 248.427v-40.427h-64v40.427a71.4 71.4 0 0 0 64 0z" fill="#feb784"/><path d="m440 424v72h-144v-72a62.084 62.084 0 0 1 0-80v-64.73l32.82-5.96 39.18 62.69 39.18-62.69 32.82 5.96v64.73a62.078 62.078 0 0 1 0 80z" fill="#d3669a"/><path d="m440 424v72h-144v-26.85c44.4-22.93 107.43-60.58 153.82-109.05a62.057 62.057 0 0 1 -9.82 63.9z" fill="#cc5e93"/><circle cx="332" cy="140" fill="#7a432a" r="12"/><path d="m288 128h8a0 0 0 0 1 0 0v48a0 0 0 0 1 0 0h-8a24 24 0 0 1 -24-24 24 24 0 0 1 24-24z" fill="#feb784"/><path d="m288 160h16v16h-16z" fill="#feb784"/><path d="m440 112v56a72 72 0 0 1 -72 72c-2.02 0-4.03-.08-6.01-.25a72 72 0 0 1 -65.99-71.75v-56a64 64 0 0 1 64-64h16q3.255 0 6.44.32a64 64 0 0 1 57.56 63.68z" fill="#fec9a3"/><path d="m440 112v56a72 72 0 0 1 -72 72c-2.02 0-4.03-.08-6.01-.25a71.982 71.982 0 0 0 38.51-63.75v-80a71.69 71.69 0 0 0 -18.06-47.68 64 64 0 0 1 57.56 63.68z" fill="#fec093"/><path d="m368 200a24.027 24.027 0 0 1 -24-24h16a8 8 0 0 0 16 0h16a24.027 24.027 0 0 1 -24 24z" fill="#f7a468"/><circle cx="404" cy="140" fill="#7a432a" r="12"/><path d="m456 104v32l-16-8a104.668 104.668 0 0 1 -39.84-63.22l-.16-.78-12.94 24.03-12.72 23.62a107.158 107.158 0 0 1 -94.34 56.35v-64a79.962 79.962 0 0 1 80-80h16a80 80 0 0 1 80 80z" fill="#7a432a"/><path d="m456 104v32l-16-8a104.668 104.668 0 0 1 -39.84-63.22l-.16-.78-12.94 24.03a72.072 72.072 0 0 0 -49.9-60.71 79.739 79.739 0 0 1 22.84-3.32h16a80 80 0 0 1 80 80z" fill="#6e3c24"/><path d="m440 128h8a24 24 0 0 1 24 24 24 24 0 0 1 -24 24h-8a0 0 0 0 1 0 0v-48a0 0 0 0 1 0 0z" fill="#feb784"/><path d="m272 488h24l136-32 16-16h40v-48h-48l-40 32-152 16v24a24 24 0 0 0 24 24z" fill="#feb784"/><path d="m246.47 249.767-.2-1.767h-32l-.2 1.767c-2.889 26-4.509 52.1-5.1 78.233h42.594c-.585-26.131-2.205-52.235-5.094-78.233z" fill="#e0e0de"/><path d="m208.977 328c-.473 20.857-.335 41.73.658 62.584l4.639 97.416h32l4.639-97.416c.993-20.854 1.131-41.727.658-62.584z" fill="#95573a"/><path d="m251.571 328c-.592-26.131-2.212-52.235-5.1-78.233l-.2-1.767h-12.851c1.79 20.361 3.92 48.7 5.224 80z" fill="#d6d6d4"/><path d="m251.571 328h-12.927c2.223 53.351 1.993 115.068-6.511 160h14.141l4.639-97.416c.993-20.854 1.131-41.727.658-62.584z" fill="#8f4d2e"/><path d="m256.58 230.82-10.31 17.18h-32l-8.93-11.17a61.573 61.573 0 0 1 -13.5-38.5c0-1.24.04-2.49.12-3.73a61.669 61.669 0 0 1 4.86-20.54 15.824 15.824 0 0 0 -14.55-22.06h29.69a52.043 52.043 0 0 1 44.62 78.82z" fill="#ebebe9"/><path d="m262.02 189.93a20.845 20.845 0 0 0 -19.39 1.83l-.71.48a21 21 0 0 1 -23.29 0 20.988 20.988 0 0 0 -24.24.67l-2.31 1.73c-.04-.01-.08-.03-.12-.04a61.669 61.669 0 0 1 4.86-20.54 15.824 15.824 0 0 0 -14.55-22.06h29.69a52.022 52.022 0 0 1 50.03 37.73.645.645 0 0 0 .03.2z" fill="#b281c7"/><path d="m464 488h-24l-168-40-16-16h-56v-48h64l40 32 184 24v24a24 24 0 0 1 -24 24z" fill="#fec9a3"/></svg>