<svg height="512" viewBox="0 0 512 512" width="512" xmlns="http://www.w3.org/2000/svg"><path d="m435.417 303.041-61.417-15.041-22-16v-64h-80v64l-22 16-78.462 19.215a64 64 0 0 0 -32.826 19.885l-20.412 23.2 53.583 53.583 36.117-35.883v128h264v-146.336a48 48 0 0 0 -36.583-46.623z" fill="#fec9a3"/><path d="m352 243.859v-59.859h-80v59.856a71.963 71.963 0 0 0 80 0z" fill="#feb784"/><path d="m47.491 430.78a33.463 33.463 0 0 0 -7.491 21.099v1.343c0 14.364 8.448 27.923 21.97 32.767a33.525 33.525 0 0 0 35.951-8.619l73.963-73.486-53.584-53.584z" fill="#fec093"/><path d="m463.79 322.82a47.944 47.944 0 0 0 -28.37-19.78l-61.42-15.04-22-16-24 16-16 64-16-64-24-16-22 16-78.46 19.21a64.054 64.054 0 0 0 -32.83 19.89l-20.41 23.2 53.58 53.58 36.12-35.88v128h200v-64h64v-82.34a47.838 47.838 0 0 0 -8.21-26.84z" fill="#348fd9"/><path d="m472 349.66v82.34h-64v64h-142.64c66.33-36.42 145.72-92.9 198.43-173.18a47.838 47.838 0 0 1 8.21 26.84z" fill="#3086cd"/><path d="m232 224v64a24.006 24.006 0 0 1 -24 24h-112c-.17 0-.35 0-.52-.01a24 24 0 0 1 -23.48-23.99v-64a24.006 24.006 0 0 1 24-24h16l13.63-20.44a8 8 0 0 1 6.65-3.56h39.44a8 8 0 0 1 6.65 3.56l13.63 20.44h16a24.007 24.007 0 0 1 24 24z" fill="#4d5e78"/><path d="m40 232h56a16 16 0 0 1 16 16v48a16 16 0 0 1 -16 16h-56a0 0 0 0 1 0 0v-80a0 0 0 0 1 0 0z" fill="#fec9a3"/><path d="m76 488a36 36 0 0 1 -36-36v-140h56l16 120v20a36 36 0 0 1 -36 36z" fill="#fec9a3"/><path d="m392 120h-8v48h8a24 24 0 1 0 0-48z" fill="#feb784"/><path d="m232.4 120h-.4a24 24 0 0 0 0 48h8v-48z" fill="#feb784"/><path d="m384 112v56a72 72 0 0 1 -66.49 71.79c-1.82.14-3.66.21-5.51.21a72.006 72.006 0 0 1 -72-72v-56a72.005 72.005 0 0 1 65.56-71.71q3.18-.285 6.44-.29a72.006 72.006 0 0 1 72 72z" fill="#fec9a3"/><path d="m384 112v56a72 72 0 0 1 -66.49 71.79 71.838 71.838 0 0 0 26.49-55.79v-80a72.069 72.069 0 0 0 -38.44-63.71q3.18-.285 6.44-.29a72.006 72.006 0 0 1 72 72z" fill="#fec093"/><path d="m240 120v-32c0-26.51 17.909-48 40-48l-1.408 5.068c-7.842 28.232-21.055 53.888-38.592 74.932z" fill="#8f4d2e"/><path d="m384 120v-55.015a25.754 25.754 0 0 0 -32-24.985v24s14.463 34.956 32 56z" fill="#8f4d2e"/><path d="m352 64h-72a40 40 0 0 1 -40-40h73.373a54.626 54.626 0 0 1 38.627 16z" fill="#95573a"/><path d="m304.938 188.559h-16.938v-16h16.938a99.077 99.077 0 0 0 28.742-4.215l4.64 15.312a115.016 115.016 0 0 1 -33.382 4.903z" fill="#f7a468"/><circle cx="276" cy="132" fill="#7a432a" r="12"/><circle cx="348" cy="132" fill="#7a432a" r="12"/><path d="m336 400h72v16h-72z" fill="#2d7dbf"/><path d="m98.489 330.667-2.489-18.667h-56v18.667z" fill="#fec093"/><path d="m264 328 32-40-24-16-22 16h.182z" fill="#62a9e6"/><path d="m360 328-32-40 24-16 22 16h-.182z" fill="#62a9e6"/><path d="m400 368h16v128h-16z" fill="#2d7dbf"/><path d="m232 224v64a24.006 24.006 0 0 1 -24 24h-112c-.17 0-.35 0-.52-.01 45.98-24.46 101.19-62.08 122.83-109.66a23.978 23.978 0 0 1 13.69 21.67z" fill="#44546c"/><circle cx="152" cy="248" fill="#3086cd" r="40"/><circle cx="152" cy="248" fill="#348fd9" r="24"/><g fill="#2d7dbf"><path d="m304 344h16v152h-16z"/><path d="m272 352h16v16h-16z"/><path d="m272 408h16v16h-16z"/><path d="m272 464h16v16h-16z"/></g></svg>