<svg height="512" viewBox="0 0 512 512" width="512" xmlns="http://www.w3.org/2000/svg"><path d="m168 120h32v24h-32z" fill="#ffb531"/><path d="m108.44 334.744-50.485 100.281a26.962 26.962 0 0 0 48.823 22.7l56.26-73.7 6.462-15.355z" fill="#fec093"/><path d="m350.576 282.429-55.891-9.315a8 8 0 0 1 -6.685-7.892v-57.222h-64v56.694a8 8 0 0 1 -7.276 7.967l-45.333 4.121a64 64 0 0 0 -51.37 34.959l-11.581 23 61.06 33.923-6.462 15.355.5-.652a61.166 61.166 0 0 0 11.774 56.633l.688 56h208v-174.115a40 40 0 0 0 -33.424-39.456z" fill="#fec9a3"/><path d="m288 248.427v-32.427h-64v32.427a71.4 71.4 0 0 0 64 0z" fill="#feb784"/><path d="m384 360h-48a62.084 62.084 0 0 1 0 80v56h-160l-.24-19.44-.45-36.56a61.159 61.159 0 0 1 -11.77-56.63l5.96-14.7-61.06-33.923 11.6-22.924a64 64 0 0 1 51.41-35.04l28.55-2.6v13.817a56 56 0 0 0 112 0v-12l38.58 6.43a40.005 40.005 0 0 1 33.42 39.45z" fill="#b281c7"/><path d="m384 360h-48a62.084 62.084 0 0 1 0 80v56h-160l-.24-19.44c80.97-43.24 147.6-97.8 199.33-179.84a39.88 39.88 0 0 1 8.91 25.16z" fill="#a778bb"/><path d="m336 64h-24v32h8a16 16 0 0 1 16 16v88a48 48 0 0 0 48 48v-136a48 48 0 0 0 -48-48z" fill="#ffa912"/><path d="m176 128h8a0 0 0 0 1 0 0v48a0 0 0 0 1 0 0h-8a24 24 0 0 1 -24-24 24 24 0 0 1 24-24z" fill="#feb784"/><path d="m328 112v56a72.006 72.006 0 0 1 -72 72c-.71 0-1.41-.01-2.11-.03a72.015 72.015 0 0 1 -69.89-71.97v-56a64 64 0 0 1 64-64h16a63.94 63.94 0 0 1 64 64z" fill="#fec9a3"/><path d="m328 112v56a72.006 72.006 0 0 1 -72 72c-.71 0-1.41-.01-2.11-.03a71.973 71.973 0 0 0 38.94-63.97v-80a71.675 71.675 0 0 0 -17.45-46.99 64.01 64.01 0 0 1 52.62 62.99z" fill="#fec093"/><circle cx="292.497" cy="140" fill="#7a432a" r="12"/><circle cx="220.497" cy="140" fill="#7a432a" r="12"/><path d="m344 104v32l-16-8-32-64s-7.11 5.69-18.36 13.67c-26.49 18.8-75.95 50.33-109.64 50.33v-24a79.961 79.961 0 0 1 80-80h16a80 80 0 0 1 80 80z" fill="#ffb531"/><path d="m254.891 192h-14.891v-16h14.891c10.957 0 21.554-2.516 29.078-6.906l8.062 13.812c-10.043 5.867-23.231 9.094-37.14 9.094z" fill="#f7a468"/><path d="m224 248v64a16 16 0 0 1 -16 16h-128a16 16 0 0 1 -16-16v-64a16 16 0 0 1 16-16h128a16.005 16.005 0 0 1 16 16z" fill="#f59898"/><path d="m160 200h48v32h-48z" fill="#e0e0de"/><path d="m344 104v32l-16-8-32-64s-7.11 5.69-18.36 13.67a72.107 72.107 0 0 0 -50.17-51 79.857 79.857 0 0 1 20.53-2.67h16a80 80 0 0 1 80 80z" fill="#ffa912"/><path d="m328 128h8a24 24 0 0 1 24 24 24 24 0 0 1 -24 24h-8a0 0 0 0 1 0 0v-48a0 0 0 0 1 0 0z" fill="#feb784"/><path d="m224 248v64a16 16 0 0 1 -16 16h-83.42c34.3-18.58 69.4-47.73 92.19-93.38a15.951 15.951 0 0 1 7.23 13.38z" fill="#ec8c8c"/><circle cx="152" cy="280" fill="#e0e0de" r="48"/><circle cx="152" cy="280" fill="#4db7e5" r="24"/><path d="m112 444v-20l-8-56v-88h-43.234a20.766 20.766 0 0 0 -20.766 20.766v19.352a40.948 40.948 0 0 0 2.927 15.2l13.073 32.682v76a28 28 0 0 0 28 28 28 28 0 0 0 28-28z" fill="#fec9a3"/></svg>