<svg height="512" viewBox="0 0 512 512" width="512" xmlns="http://www.w3.org/2000/svg"><path d="m24 352h464v136h-464z" fill="#4d5e78"/><path d="m488 331.42v20.58h-464v-96a127.808 127.808 0 0 1 112-127.01 129.931 129.931 0 0 1 16-.99h80.89a129.177 129.177 0 0 1 31.11 3.83 128.005 128.005 0 0 1 80 60.63q1.77 3.09 3.38 6.3l.21.41a86.025 86.025 0 0 0 60.41 45.99c1.73.35 3.48.63 5.25.87a85.885 85.885 0 0 1 42.75 18.39 86.074 86.074 0 0 1 32 67z" fill="#f7a116"/><g fill="#ffb531"><path d="m72 156.08v195.92h-16v-180.66a128.237 128.237 0 0 1 16-15.26z"/><path d="m104 137.31v214.69h-16v-206.87a127.327 127.327 0 0 1 16-7.82z"/><path d="m136 128.99v223.01h-16v-219.97a128.016 128.016 0 0 1 16-3.04z"/><path d="m152 128h16v224h-16z"/><path d="m184 128h16v224h-16z"/><path d="m216 128h16v224h-16z"/><path d="m264 131.83v220.17h-16v-223.1a127.016 127.016 0 0 1 16 2.93z"/><path d="m296 144.64v207.36h-16v-215.01a128.29 128.29 0 0 1 16 7.65z"/><path d="m328 170.34v181.66h-16v-196.62a127.04 127.04 0 0 1 16 14.96z"/><path d="m360 217.59v134.41h-16v-159.54q1.77 3.09 3.38 6.3l.21.41a85.749 85.749 0 0 0 12.41 18.42z"/><path d="m392 240.37v111.63h-16v-120.25a86.206 86.206 0 0 0 16 8.62z"/><path d="m424 248.17v103.83h-16v-106.84c1.73.35 3.48.63 5.25.87a84.134 84.134 0 0 1 10.75 2.14z"/><path d="m456 264.42v87.58h-16v-97.83a84.935 84.935 0 0 1 16 10.25z"/></g><path d="m24 400h40v88h-40z" fill="#d6d6d4"/><path d="m64 400h40v88h-40z" fill="#d6d6d4"/><path d="m104 400h40v88h-40z" fill="#d6d6d4"/><path d="m144 400h40v88h-40z" fill="#d6d6d4"/><path d="m374.552 45.132-87.627 25.768a86.6 86.6 0 0 1 -60.271-4.243 143.338 143.338 0 0 0 -117.53-.494 143.339 143.339 0 0 0 -85.124 130.99v122.847l464-256-21.334-10.667a126.292 126.292 0 0 0 -56.479-13.333 126.278 126.278 0 0 0 -35.635 5.132z" fill="#4d5e78"/><path d="m374.552 45.132-87.627 25.768a86.6 86.6 0 0 1 -60.271-4.243 143.338 143.338 0 0 0 -117.53-.494 143.339 143.339 0 0 0 -85.124 130.99v122.847l464-256-21.334-10.667a126.292 126.292 0 0 0 -56.479-13.333 126.278 126.278 0 0 0 -35.635 5.132z" fill="#4d5e78"/><path d="m81.008 140.391-13.375-8.782a119.5 119.5 0 0 1 13.683-17.156l11.532 11.094a103.055 103.055 0 0 0 -11.84 14.844z" fill="#556a8a"/><path d="m64 240h-16v-42.844a118.528 118.528 0 0 1 10.27-48.406l14.625 6.5a102.516 102.516 0 0 0 -8.895 41.906z" fill="#556a8a"/><path d="m24 352v-32l464-256v32z" fill="#404f66"/><path d="m56 400h16v88h-16z" fill="#bfbfbd"/><path d="m136 400h16v88h-16z" fill="#bfbfbd"/><path d="m96 400h16v88h-16z" fill="#bfbfbd"/><path d="m48 400h32v48h-32z" fill="#3b495e"/><path d="m128 400h32v48h-32z" fill="#3b495e"/><path d="m24 472h160v24h-160z" fill="#4d5e78"/><path d="m393.367 148.211 70.883 203.789h16.938l-73.61-211.629z" fill="#3b495e"/><path d="m461.4 302.542-63.4-22.542-22-10.667v-53.333h-80v53.333l-22 10.667-63.4 22.542a39.978 39.978 0 0 0 -26.6 37.672v155.786h304v-155.769a40 40 0 0 0 -26.6-37.689z" fill="#fec9a3"/><path d="m461.4 302.542-63.4-22.542-14-16-48 32-48-32-14 16-63.4 22.542a39.978 39.978 0 0 0 -26.6 37.672v155.786h304v-155.769a40 40 0 0 0 -26.6-37.689z" fill="#bfbfbd"/><path d="m488 340.23v155.77h-304v-155.79a39.978 39.978 0 0 1 26.6-37.67l63.4-22.54 22-10.67 40 90.67 40-90.67 22 10.67 63.4 22.54a39.99 39.99 0 0 1 26.38 33.61 36.785 36.785 0 0 1 .22 4.08z" fill="#348fd9"/><path d="m293.657 332.928 42.343-36.928-48-32-14 16h.182z" fill="#d6d6d4"/><path d="m378.343 332.928-42.343-36.928 48-32 14 16h-.182z" fill="#d6d6d4"/><path d="m232 368h16v128h-16z" fill="#2a71ad"/><path d="m488 340.23v155.77h-214.74c71.15-27.87 156.36-76.55 214.52-159.85a36.785 36.785 0 0 1 .22 4.08z" fill="#3086cd"/><path d="m424 368h16v128h-16z" fill="#2a71ad"/><path d="m376 243.859v-27.859h-80v27.859a71.963 71.963 0 0 0 80 0z" fill="#feb784"/><path d="m416.425 120h-8.425v48h8a24 24 0 1 0 .425-48z" fill="#feb784"/><path d="m255.529 120h-.4a24 24 0 0 0 -.426 48h9.297v-48z" fill="#feb784"/><path d="m408 112v56a72.006 72.006 0 0 1 -72 72c-1.48 0-2.95-.04-4.4-.14a72 72 0 0 1 -67.6-71.86v-56a72.006 72.006 0 0 1 72-72 73.291 73.291 0 0 1 8.16.46 72.015 72.015 0 0 1 63.84 71.54z" fill="#fec9a3"/><path d="m408 112v56a72.006 72.006 0 0 1 -72 72c-1.48 0-2.95-.04-4.4-.14a71.96 71.96 0 0 0 38.73-63.86v-80a71.775 71.775 0 0 0 -21.09-50.91q-2.43-2.43-5.08-4.63a72.015 72.015 0 0 1 63.84 71.54z" fill="#fec093"/><circle cx="300.001" cy="131.683" fill="#7a432a" r="12"/><circle cx="371.999" cy="132.321" fill="#7a432a" r="12"/><path d="m355.639 169.272c-7.562 4.323-18.182 6.745-29.138 6.648l-14.89-.132-.142 16 14.89.132c13.906.123 27.125-2.986 37.22-8.764z" fill="#f7a468"/><path d="m416.25 104.71-.25 15.29-8-.07-47.4-55.71q-1.41 2.775-2.96 5.45a124.2 124.2 0 0 1 -73 57.3l-28.67 8.32.28-32a80 80 0 0 1 160 1.42z" fill="#95573a"/><path d="m416.25 104.71-.25 15.29-8-.07-47.4-55.71q-1.41 2.775-2.96 5.45a72.145 72.145 0 0 0 -34.59-44.57 80.02 80.02 0 0 1 93.2 79.61z" fill="#8f4d2e"/></svg>