<svg height="512" viewBox="0 0 512 512" width="512" xmlns="http://www.w3.org/2000/svg"><path d="m24 344h208v32h-208z" fill="#348fd9"/><path d="m24 376h208v112h-208z" fill="#48add9"/><path d="m152 256a32.032 32.032 0 0 0 -32 32v80h-64v-80a16 16 0 0 1 32 0v56h16v-56a32 32 0 0 0 -64 0v160h16v-32h64v32h16v-160a16 16 0 0 1 32 0v56h16v-56a32.032 32.032 0 0 0 -32-32zm-96 144v-16h64v16z" fill="#e0e0de"/><path d="m197.3 437.8c-21.349 0-21.349-5.8-42.7-5.8-21.334 0-21.334 5.8-42.669 5.8-21.317 0-21.317-5.8-42.633-5.8s-21.328 5.8-42.655 5.8c-.938 0-1.786-.024-2.645-.046v50.246h208.002v-55.662c-13.757 1.226-16.43 5.462-34.7 5.462z" fill="#60d1e0"/><path d="m488 335.83v96.17h-72v56h-200v-56h-80v-96.17a47.992 47.992 0 0 1 39.15-47.17l88.85-16.66v-72h48v-.01h48v72l88.85 16.66a48.036 48.036 0 0 1 39.15 47.18z" fill="#fec093"/><path d="m312 258.412a68.208 68.208 0 0 0 48-19.737v-38.675h-48-48v38.672a68.208 68.208 0 0 0 48 19.74z" fill="#feb784"/><path d="m488 335.83v96.17h-72v56h-200v-10.49c88.91-37.12 188.05-91.46 264.11-168.03a47.73 47.73 0 0 1 7.89 26.35z" fill="#feb784"/><path d="m384 96v46.41a258.048 258.048 0 0 1 -5.02 50.67 68.3 68.3 0 0 1 -133.96 0q-2.505-12.51-3.76-25.21-1.26-12.67-1.26-25.46v-46.41a72 72 0 0 1 144 0z" fill="#fec9a3"/><path d="m384 96v46.41a258.048 258.048 0 0 1 -5.02 50.67 68.332 68.332 0 0 1 -93.1 49.74 72.018 72.018 0 0 0 62.08-71.32v-80a72.072 72.072 0 0 0 -45.32-66.89 72.006 72.006 0 0 1 81.36 71.39z" fill="#fec093"/><circle cx="276" cy="129.586" fill="#7a432a" r="12"/><circle cx="348" cy="129.586" fill="#7a432a" r="12"/><path d="m339.969 169.086c-7.531 4.4-18.133 6.914-29.078 6.914h-14.891v16h14.891c13.89 0 27.078-3.227 37.14-9.086z" fill="#f7a468"/><path d="m240 120h-8a24 24 0 1 0 0 48h9.273q-1.268-12.746-1.273-25.584z" fill="#feb784"/><path d="m392 120h-8v22.416q0 12.823-1.273 25.584h9.273a24 24 0 0 0 0-48z" fill="#feb784"/><path d="m384 96v24l-7.01-8.77a83.262 83.262 0 0 0 -28.94-23.02c-.06-.03-.11-.05-.17-.08a83.238 83.238 0 0 0 -100.87 23.1l-7.01 8.77v-24a72 72 0 0 1 144 0z" fill="#4db7e5"/><path d="m384 96v24l-7.01-8.77a83.262 83.262 0 0 0 -28.94-23.02c-.06-.03-.11-.05-.17-.08a72.073 72.073 0 0 0 -45.24-63.52 72.007 72.007 0 0 1 81.36 71.39z" fill="#48add9"/><g fill="#f5af7d"><path d="m200 352h16v96h-16z"/><path d="m408 352h16v96h-16z"/><path d="m320 344a7.992 7.992 0 0 0 2.1-.281l88-24-4.2-15.438-85.9 23.43-85.9-23.43-4.2 15.438 88 24a7.992 7.992 0 0 0 2.1.281z"/><path d="m312 360h16v40h-16z"/></g><path d="m392 392 48-24h48v72h-40l-48 8-192 40h-48a24 24 0 0 1 -24-24v-56z" fill="#fec093"/><path d="m232 392-48-24h-48v72h40l48 8 192 40h48a24 24 0 0 0 24-24v-56z" fill="#fec9a3"/><rect fill="#4d5e78" height="48" rx="24" width="64" x="232" y="64"/><rect fill="#4d5e78" height="48" rx="24" width="64" x="328" y="64"/><path d="m408 80h-9.136a31.963 31.963 0 0 0 -30.864-24h-16a31.891 31.891 0 0 0 -27.55 16h-24.9a31.891 31.891 0 0 0 -27.55-16h-16a31.963 31.963 0 0 0 -30.864 24h-9.136v16h9.136a31.963 31.963 0 0 0 30.864 24h16a32.032 32.032 0 0 0 32-32h16a32.032 32.032 0 0 0 32 32h16a31.963 31.963 0 0 0 30.864-24h9.136zm-136 24h-16a16 16 0 0 1 0-32h16a16 16 0 0 1 0 32zm96 0h-16a16 16 0 0 1 0-32h16a16 16 0 0 1 0 32z" fill="#404f66"/><path d="m272 104a15.978 15.978 0 0 0 6.558-30.558l-29.116 29.116a15.855 15.855 0 0 0 6.558 1.442z" fill="#44546c"/><path d="m368 104a15.978 15.978 0 0 0 6.558-30.558l-29.116 29.116a15.855 15.855 0 0 0 6.558 1.442z" fill="#44546c"/></svg>