<svg height="512" viewBox="0 0 512 512" width="512" xmlns="http://www.w3.org/2000/svg"><path d="m176 232h-16v-24a8.005 8.005 0 0 0 -8-8h-48a8.005 8.005 0 0 0 -8 8v24h-16v-24a24.027 24.027 0 0 1 24-24h48a24.027 24.027 0 0 1 24 24z" fill="#de4132"/><path d="m32 168h32a8 8 0 0 1 8 8v232a0 0 0 0 1 0 0h-48a0 0 0 0 1 0 0v-232a8 8 0 0 1 8-8z" fill="#de4132"/><path d="m192 168h32a8 8 0 0 1 8 8v232a0 0 0 0 1 0 0h-48a0 0 0 0 1 0 0v-232a8 8 0 0 1 8-8z" fill="#de4132"/><path d="m150.03 224h-44.06a64 64 0 0 0 -62.089 48.478l-14.148 56.591a191.976 191.976 0 0 0 -5.733 46.567v88.364a32 32 0 0 0 32 32h144a32 32 0 0 0 32-32v-88.364a191.976 191.976 0 0 0 -5.733-46.567l-14.148-56.591a64 64 0 0 0 -62.089-48.478z" fill="#f35244"/><path d="m104 256h48a32 32 0 0 1 32 32v208a0 0 0 0 1 0 0h-112a0 0 0 0 1 0 0v-208a32 32 0 0 1 32-32z" fill="#de4132"/><path d="m72 296h112v16h-112z" fill="#cf3b2e"/><path d="m24 408h48v48h-48z" fill="#fc685b"/><path d="m199.992 384a7.956 7.956 0 0 1 -3.242-.688l-144-64a8 8 0 1 1 6.5-14.624l144 64a8 8 0 0 1 -3.258 15.312z" fill="#b0b0ae"/><path d="m56.008 384a8 8 0 0 1 -3.258-15.312l144-64a8 8 0 1 1 6.5 14.624l-144 64a7.956 7.956 0 0 1 -3.242.688z" fill="#bfbfbd"/><path d="m199.992 448a7.956 7.956 0 0 1 -3.242-.688l-144-64a8 8 0 1 1 6.5-14.624l144 64a8 8 0 0 1 -3.258 15.312z" fill="#b0b0ae"/><path d="m56.008 448a8 8 0 0 1 -3.258-15.312l144-64a8 8 0 0 1 6.5 14.624l-144 64a7.956 7.956 0 0 1 -3.242.688z" fill="#bfbfbd"/><path d="m160 496h-64l8-40h48z" fill="#bfbfbd"/><path d="m184 400h48v48h-48z" fill="#fc685b"/><path d="m152 416h64v80h-64z" fill="#fec9a3"/><path d="m488 496v-136.164a48 48 0 0 0 -39.154-47.177l-88.846-16.659v-80h-80v80l-88.846 16.659a48 48 0 0 0 -39.154 47.177v136.164" fill="#fec9a3"/><path d="m360 277.4v-45.4h-80v45.4a80.758 80.758 0 0 0 80 0z" fill="#feb784"/><path d="m488 359.84v136.16h-336v-136.16a48 48 0 0 1 39.15-47.18l56.85-10.66 32-6 16.4 39.36 23.6 56.64 23.18-55.63 16.82-40.37 32 6 56.85 10.66a48.01 48.01 0 0 1 39.15 47.18z" fill="#919c48"/><path d="m488 359.84v136.16h-207.91c65.05-33.14 138.8-85.94 195.01-168.9a47.914 47.914 0 0 1 12.9 32.74z" fill="#909741"/><path d="m400 144h-8v48h8a24 24 0 0 0 0-48z" fill="#feb784"/><path d="m240.4 144h-.4a24 24 0 0 0 0 48h8v-48z" fill="#feb784"/><path d="m392 136v64a72 72 0 0 1 -70.97 71.99c-.34.01-.69.01-1.03.01a72.006 72.006 0 0 1 -72-72v-64a72.006 72.006 0 0 1 72-72c.34 0 .69 0 1.03.01a72 72 0 0 1 70.97 71.99z" fill="#fec9a3"/><path d="m392 136v64a72 72 0 0 1 -70.97 71.99 71.981 71.981 0 0 0 38.97-63.99v-80a72.086 72.086 0 0 0 -38.97-63.99 72 72 0 0 1 70.97 71.99z" fill="#fec093"/><path d="m248 136h128v16h-128z" fill="#fec093"/><circle cx="284" cy="164" fill="#7a432a" r="12"/><circle cx="356" cy="164" fill="#7a432a" r="12"/><path d="m285.8 116.613a174.36 174.36 0 0 0 68.4 0l5.8-1.159 32 36.546v-16a72 72 0 0 0 -144 0v16l32-36.546z" fill="#f98500"/><path d="m424 120a16 16 0 0 1 -16 16h-176a16 16 0 0 1 0-32h16v-12.75q0-9.645.8-19.25.8-9.54 2.36-18.98a34.729 34.729 0 0 1 63.15-13.56 6.839 6.839 0 0 0 11.38 0 34.726 34.726 0 0 1 63.15 13.56q1.575 9.45 2.36 18.98.8 9.6.8 19.25v12.75h16a16 16 0 0 1 16 16z" fill="#95573a"/><path d="m424 120a16 16 0 0 1 -16 16h-176a15.963 15.963 0 0 1 -8.87-2.68c51.69-18.55 113.14-48.62 159.05-95.68a34.611 34.611 0 0 1 6.66 15.38 233.117 233.117 0 0 1 3.16 38.23v12.75h16a16 16 0 0 1 16 16z" fill="#8f4d2e"/><path d="m392 91.25v12.75h-144v-12.75q0-9.645.8-19.25h142.4q.8 9.6.8 19.25z" fill="#6e3c24"/><path d="m339.969 201.094c-7.524 4.39-18.125 6.906-29.078 6.906h-14.891v16h14.891c13.906 0 27.093-3.227 37.14-9.094z" fill="#f7a468"/><path d="m296.4 335.36-48.4 32.64v-66l32-6z" fill="#9aa955"/><path d="m392 302v66l-48.82-31.63 16.82-40.37z" fill="#9aa955"/><path d="m424 424h64v72h-64z" fill="#fec9a3"/><path d="m392 91.25v12.75h-64l40-32h23.2q.8 9.6.8 19.25z" fill="#61311b"/><g fill="#82883a"><path d="m312 384h16v112h-16z"/><path d="m208 384h16v112h-16z"/><path d="m416 384h16v112h-16z"/><path d="m280 384h16v16h-16z"/><path d="m280 448h16v16h-16z"/><path d="m344 432h80v16h-80z"/></g></svg>