<svg height="512" viewBox="0 0 512 512" width="512" xmlns="http://www.w3.org/2000/svg"><path d="m368 267.708v-67.708h-80v67.708a16 16 0 0 1 -11.877 15.459l-72.491 19.333a48 48 0 0 0 -35.632 46.377v139.123h320v-139.123a48 48 0 0 0 -35.632-46.377l-72.491-19.331a16 16 0 0 1 -11.877-15.461z" fill="#fec9a3"/><path d="m368 251.859v-27.859h-80v27.859a71.963 71.963 0 0 0 80 0z" fill="#feb784"/><path d="m452.368 302.5-69.668-18.581a55.978 55.978 0 0 1 -109.4 0l-69.668 18.581a48 48 0 0 0 -35.632 46.377v83.123h64v56h192v-88h64v-51.123a48 48 0 0 0 -35.632-46.377z" fill="#f35244"/><path d="m452.368 302.5-10.17-2.712c-55.06 103.818-129.386 160.212-178.526 188.212h160.328v-88h64v-51.123a48 48 0 0 0 -35.632-46.377z" fill="#ea4a3b"/><path d="m400 112v64a72 72 0 1 1 -144 0v-64a72.006 72.006 0 0 1 72-72 73.291 73.291 0 0 1 8.16.46 72.015 72.015 0 0 1 63.84 71.54z" fill="#fec9a3"/><path d="m400 112v64a72.052 72.052 0 0 1 -90.83 69.51 72.032 72.032 0 0 0 53.16-69.51v-80a71.775 71.775 0 0 0 -21.09-50.91q-2.43-2.43-5.08-4.63a72.015 72.015 0 0 1 63.84 71.54z" fill="#fec093"/><path d="m280 64h88v16h-88z" fill="#fec093"/><path d="m256 120v-32c0-26.51 17.909-48 40-48l-1.408 5.068c-7.842 28.232-21.055 53.888-38.592 74.932z" fill="#95573a"/><path d="m400 120v-55.015a25.754 25.754 0 0 0 -32-24.985v24s14.463 34.956 32 56z" fill="#95573a"/><path d="m368 64h-72a40 40 0 0 1 -40-40h73.373a54.626 54.626 0 0 1 38.627 16z" fill="#82462a"/><path d="m320.934 188.562h-16.934v-16h16.934a99.2 99.2 0 0 0 28.746-4.218l4.64 15.312a115.03 115.03 0 0 1 -33.386 4.906z" fill="#f7a468"/><circle cx="292" cy="129.586" fill="#7a432a" r="12"/><circle cx="364" cy="129.586" fill="#7a432a" r="12"/><path d="m256 120h-8a24 24 0 0 0 0 48h8z" fill="#feb784"/><path d="m408 120h-8v48h8a24 24 0 0 0 0-48z" fill="#feb784"/><path d="m416 368h16v120h-16z" fill="#de4132"/><path d="m224 360h16v128h-16z" fill="#de4132"/><path d="m56 456h280v32h-280z" fill="#bfbfbd"/><path d="m241.666 488h-170.979a18.31 18.31 0 0 1 -17.873-14.337l-28.471-128.118a14.433 14.433 0 0 1 -.343-3.128 14.417 14.417 0 0 1 14.417-14.417h178.546a18.342 18.342 0 0 1 17.986 14.745l24.671 123.355a18.309 18.309 0 0 1 -17.954 21.9z" fill="#e0e0de"/><path d="m238.022 358.112c-57.18 71.967-134.61 102.062-185.439 114.513l.231 1.038a18.308 18.308 0 0 0 17.873 14.337h170.98a18.309 18.309 0 0 0 17.953-21.9z" fill="#d6d6d4"/><ellipse cx="136" cy="408" fill="#ebebe9" rx="15.31" ry="16.721" transform="matrix(.691 -.723 .723 .691 -252.812 224.193)"/></svg>