<svg height="512" viewBox="0 0 512 512" width="512" xmlns="http://www.w3.org/2000/svg"><path d="m-32.433 465.534.433 30.227h144v-48a62 62 0 0 0 9.714-64h38.286v-56a47.722 47.722 0 0 0 -6.329-23.761c-54.366 96.823-135.159 141.785-186.104 161.534z" fill="#77ad50"/><path d="m24 112h112v384h-112z" fill="#45a7d1"/><path d="m24 388.4v107.6h112v-285.153c-31.263 73.258-76.367 135.315-112 177.553z" fill="#3b9dc7"/><circle cx="80" cy="112" fill="#4db7e5" r="56"/><circle cx="80" cy="112" fill="#3291ba" r="24"/><path d="m24 200h112v32h-112z" fill="#404f66"/><path d="m24 392h112v32h-112z" fill="#404f66"/><path d="m200 232h-88v-32h64z" fill="#4d5e78"/><path d="m176 424h-64v-32h88z" fill="#4d5e78"/><path d="m168 232h32v160h-32z" fill="#404f66"/><path d="m224 336h128v-59.765l-24-4.235v-56h-40-40v56l-24 4.235z" fill="#fec9a3"/><path d="m481.11 380.76-71.32 23.97-9.79-36.73v128h-224v-128l-9.722 36.457-71.44-23.437 10.022-46.93a55.994 55.994 0 0 1 45.31-44.83l89.83-15.85a46.591 46.591 0 0 0 46.59 46.59h2.82a46.591 46.591 0 0 0 46.59-46.59l79.11 13.96 10.72 1.89a55.994 55.994 0 0 1 45.31 44.83z" fill="#4d5e78"/><path d="m481.11 380.76-71.32 23.97-9.79-36.73v128h-212.86c68.73-37.18 167.86-104.85 227.97-208.63l10.72 1.89a55.994 55.994 0 0 1 45.31 44.83z" fill="#44546c"/><path d="m81.105 445.349a35.407 35.407 0 0 0 34.764 42.782h1.054a35.372 35.372 0 0 0 34.049-26.273l15.306-57.4-71.44-23.438z" fill="#fec093"/><path d="m494.9 445.349-13.789-64.585-71.313 23.959 15.235 57.131a35.372 35.372 0 0 0 34.049 26.273h1.054a35.407 35.407 0 0 0 34.764-42.778z" fill="#fec093"/><path d="m269.881 340.7-21.881 65.642-136.193 14.148a35.726 35.726 0 0 0 -31.807 35.51 32 32 0 0 0 32 32h32l138.2-32a8 8 0 0 0 5.8-7.692v-104.668a9.3 9.3 0 0 0 -9.3-9.3 9.3 9.3 0 0 0 -8.819 6.36z" fill="#fec9a3"/><path d="m306.119 340.7 21.881 65.642 136.193 14.148a35.726 35.726 0 0 1 31.807 35.51 32 32 0 0 1 -32 32h-32l-138.2-32a8 8 0 0 1 -5.8-7.692v-104.668a9.3 9.3 0 0 1 9.3-9.3 9.3 9.3 0 0 1 8.819 6.36z" fill="#fec9a3"/><g fill="#feb784"><path d="m328 251.859v-35.859h-80v35.859a71.963 71.963 0 0 0 80 0z"/><path d="m208 120a24 24 0 0 0 0 48h16v-48h-15.6z"/><path d="m368 120h-.4-15.6v48h16a24 24 0 1 0 0-48z"/></g><path d="m360 112v30.42a258.2 258.2 0 0 1 -5.02 50.67 68.305 68.305 0 0 1 -133.96 0q-2.505-12.525-3.76-25.21t-1.26-25.46v-30.42a72 72 0 0 1 144 0z" fill="#fec9a3"/><path d="m360 112v30.42a258.2 258.2 0 0 1 -5.02 50.67 68.331 68.331 0 0 1 -84.39 52.66 72.022 72.022 0 0 0 54.11-69.75v-80a71.775 71.775 0 0 0 -21.09-50.91q-2.235-2.235-4.65-4.26a72.028 72.028 0 0 1 61.04 71.17z" fill="#fec093"/><path d="m232 64h104v16h-104z" fill="#fec093"/><path d="m360 120v-55.015a25.754 25.754 0 0 0 -32-24.985v24s14.463 34.956 32 56z" fill="#ffa912"/><path d="m216 120v-55.015a25.754 25.754 0 0 1 32-24.985v24s-14.463 34.956-32 56z" fill="#ffa912"/><path d="m328 64h-112a40 40 0 0 1 40-40h46.111a28.944 28.944 0 0 1 25.889 16z" fill="#ffb531"/><path d="m309.68 176.344a99.149 99.149 0 0 1 -28.742 4.218h-16.938v16h16.938a114.963 114.963 0 0 0 33.382-4.906z" fill="#f7a468"/><circle cx="252" cy="132" fill="#7a432a" r="12"/><circle cx="324" cy="132" fill="#7a432a" r="12"/><rect fill="#feb784" height="120" rx="8" width="16" x="280" y="336"/></svg>