<svg height="512" viewBox="0 0 512 512" width="512" xmlns="http://www.w3.org/2000/svg"><path d="m24 104h112v384h-112z" fill="#d3669a"/><path d="m24 380.4v107.6h112v-285.153c-31.263 73.258-76.367 135.315-112 177.553z" fill="#cc5e93"/><circle cx="80" cy="104" fill="#e080b3" r="56"/><circle cx="80" cy="104" fill="#c7568c" r="24"/><path d="m24 192h112v32h-112z" fill="#82489c"/><path d="m24 384h112v32h-112z" fill="#82489c"/><path d="m200 224h-88v-32h64z" fill="#8d5fa1"/><path d="m176 416h-64v-32h88z" fill="#8d5fa1"/><path d="m168 224h32v160h-32z" fill="#82489c"/><path d="m200 120h24v16h-24z" fill="#95573a"/><path d="m488 461.06a26.981 26.981 0 0 1 -50.78 12.67l-44.07-63.95-12.69-18.41h-12.46v104.63h-160v-104.63h-12.46l-13.77 19.98-42.99 62.38a26.965 26.965 0 0 1 -48.83-22.7l11.69-24.42 54.58-114a47.988 47.988 0 0 1 38.95-27.08l18.6-1.69 30.7-2.79 4.25-.39a8 8 0 0 0 7.28-7.97v-56.69h64v56.69a8 8 0 0 0 7.28 7.97l4.41.4 30.26 2.75 18.88 1.72a47.988 47.988 0 0 1 38.95 27.08l54.02 112.83 12.25 25.59a27.044 27.044 0 0 1 1.95 10.03z" fill="#fec9a3"/><path d="m488 461.06a26.981 26.981 0 0 1 -50.78 12.67l-44.07-63.95 80.65 15.66 12.25 25.59a27.044 27.044 0 0 1 1.95 10.03z" fill="#fec093"/><path d="m320 248.427v-32.427h-64v32.427a71.4 71.4 0 0 0 64 0z" fill="#feb784"/><path d="m368 64h-24v32h8a16 16 0 0 1 16 16v88a48 48 0 0 0 48 48v-136a48 48 0 0 0 -48-48z" fill="#82462a"/><path d="m360 112v56a72.006 72.006 0 0 1 -72 72c-1.07 0-2.14-.02-3.19-.07a72.009 72.009 0 0 1 -68.81-71.93v-56a64 64 0 0 1 64-64h16a63.994 63.994 0 0 1 64 64z" fill="#fec9a3"/><path d="m360 112v56a72.006 72.006 0 0 1 -72 72c-1.07 0-2.14-.02-3.19-.07a71.983 71.983 0 0 0 38.86-63.93v-80a71.708 71.708 0 0 0 -17.64-47.21 63.994 63.994 0 0 1 53.97 63.21z" fill="#fec093"/><path d="m288 200a24.027 24.027 0 0 1 -24-24h16a8 8 0 0 0 16 0h16a24.026 24.026 0 0 1 -24 24z" fill="#f7a468"/><circle cx="324.497" cy="140" fill="#7a432a" r="12"/><circle cx="252.497" cy="140" fill="#7a432a" r="12"/><path d="m376 104v32l-16-8-32-64s-6.17 4.94-16.11 12.07c-25.86 18.54-77.22 51.93-111.89 51.93v-24a80 80 0 0 1 80-80h16a80 80 0 0 1 80 80z" fill="#95573a"/><path d="m376 104v32l-16-8-32-64s-6.17 4.94-16.11 12.07a71.742 71.742 0 0 0 -20.98-46.98 70.093 70.093 0 0 0 -5.66-5.09h10.75a80 80 0 0 1 80 80z" fill="#8f4d2e"/><path d="m368 448v48h-160v-48a62.1 62.1 0 0 1 0-80s3.35-50.49 5.77-84.16l30.7-2.79 6.85 47.29a37.078 37.078 0 0 0 73.36 0l7.01-47.28 30.26 2.75c2.4 33.03 6.05 84.19 6.05 84.19a62.138 62.138 0 0 1 0 80z" fill="#c7ae71"/><path d="m368 448v48h-128.65c44.75-25.1 94.18-61.58 137.54-114a62.029 62.029 0 0 1 -8.89 66z" fill="#c2a667"/><path d="m181.77 411.35-42.99 62.38a26.965 26.965 0 0 1 -48.83-22.7l11.69-24.42z" fill="#fec093"/><path d="m269.881 357.06-13.881 50.94-146.649 27.933a26.266 26.266 0 0 0 -21.351 25.802 26.265 26.265 0 0 0 26.265 26.265h9.88a26.247 26.247 0 0 0 7.547-1.108l156.308-46.892v-80a9.3 9.3 0 0 0 -9.3-9.3 9.3 9.3 0 0 0 -8.819 6.36z" fill="#fec9a3"/><path d="m306.119 357.06 13.881 50.94 146.649 27.933a26.266 26.266 0 0 1 21.351 25.802 26.265 26.265 0 0 1 -26.265 26.265h-9.88a26.247 26.247 0 0 1 -7.547-1.108l-156.308-46.892v-80a9.3 9.3 0 0 1 9.3-9.3 9.3 9.3 0 0 1 8.819 6.36z" fill="#fec9a3"/><g fill="#feb784"><rect height="88" rx="8" width="16" x="280" y="352"/><path d="m216 128h-8a24 24 0 0 0 0 48h8.469a72.6 72.6 0 0 1 -.469-8z"/><path d="m368 128h-8v40a72.6 72.6 0 0 1 -.469 8h8.469a24 24 0 0 0 0-48z"/></g></svg>