<svg xmlns="http://www.w3.org/2000/svg" width="1240" height="1240"><path d="M450.474 243.395c-1.712 1.252-2.022 3.643-3.019 23.25-.958 18.843-1.398 22.406-3.196 25.855-2.175 4.176-6.477 8.619-12.024 12.42-5.065 3.471-6.235 6.721-6.235 17.318 0 9.017-2.345 31.894-3.454 33.687-.401.649-3.545 15.512-3.546 16.764 0 .104 1.755 2.217 3.899 4.695 4.91 5.673 9.209 14.377 9.819 19.881.622 5.606-2.292 20.597-4.483 23.064-2.795 3.147-9.334 5.625-14.903 5.649-2.843.012-5.88.295-6.75.629-5.491 2.107 3.957 5.228 19.633 6.485 12.633 1.013 19.554 2.765 25.067 6.344 1.22.792 6.043 2.379 10.718 3.527 14.097 3.462 16.235 4.114 23 7.015 3.575 1.533 8.975 3.349 12 4.035 7.887 1.789 14.861 3.957 19.744 6.137 2.334 1.042 9.984 3.517 17 5.499 7.016 1.983 14.331 4.391 16.256 5.351 4.088 2.039 14.17 5.263 22 7.036 3.025.685 9.325 2.786 14 4.668 4.675 1.883 12.775 4.466 18 5.74 5.225 1.275 11.075 3.229 13 4.343 4.106 2.377 11.237 4.425 22.917 6.581 5.953 1.099 10.05 2.558 14 4.987 8.309 5.11 18.126 7.18 22.083 4.658 4.019-2.562-4.009-6.786-13.185-6.936-6.455-.106-9.403-1.427-15.267-6.843-7.284-6.726-8.534-8.916-8.541-14.965-.007-4.852-.206-5.286-2.757-5.994-5.529-1.535-13.549-.675-19.25 2.063-8.566 4.115-16.044 3.552-24-1.807-1.925-1.297-7.048-3.337-11.384-4.534-4.336-1.197-11.531-3.715-15.99-5.595-4.458-1.881-12.207-4.536-17.218-5.902-5.012-1.365-12.891-4-17.51-5.856-4.619-1.855-11.47-4.139-15.226-5.075-3.755-.936-10.475-3.24-14.933-5.12-4.996-2.107-14.653-4.767-25.172-6.933-22.436-4.621-24.035-5.11-27.971-8.566-4.985-4.377-6.098-7.824-4.729-14.644.623-3.102 1.136-7.252 1.139-9.223.009-5.74 1.771-10.535 5.023-13.668 1.664-1.603 4.892-6.053 7.173-9.888 4.559-7.666 5.8-13.241 7.685-34.527 2.44-27.558 2.477-32.677.265-36.229-1.121-1.799-2.997-3.858-4.169-4.576-4.388-2.687-5.26-7.313-4.555-24.177.357-8.535 1.139-19.694 1.738-24.799.988-8.419.923-9.463-.694-11.25-2.11-2.332-3.422-2.457-5.998-.574M712 336c-1.1 1.1-2 2.489-2 3.087 0 .597-2.71 3.909-6.023 7.358-7.625 7.941-7.052 8.643 7.848 9.635 15.941 1.061 19.96 1.868 23.304 4.682 3.557 2.993 9.41 5.171 12.044 4.483 3.251-.851 3.799-3.39 1.896-8.794-3.74-10.619-4.914-12.218-11.33-15.423-3.332-1.666-6.882-3.028-7.888-3.028-1.006 0-4.197-.9-7.09-1.999-6.588-2.505-8.257-2.505-10.761-.001m222.057 44.303c-3.646 1.846-6.338 6.168-7.116 11.421a3834.56 3834.56 0 01-2.452 16.098c-2 12.971-1.431 14.991 3.258 11.555 2.74-2.007 3.541-4.026 9.303-23.448 3.469-11.689 2.21-18.261-2.993-15.626m-60.531 21.447c-1.452 3.692-1.734 16.239-.552 24.567 1.95 13.734 3.222 12.479 5.057-4.988 1.29-12.28.233-21.329-2.491-21.329-.729 0-1.636.788-2.014 1.75M685.5 415.995c-6.623.944-11.446 2.78-14.5 5.519-4.925 4.416-6.589 4.768-19.042 4.024-11.613-.693-28.547.595-33.729 2.565-2.022.769-2.233 1.187-1.215 2.414.93 1.12 3.585 1.487 10.858 1.5 10.757.02 21.737 1.99 26.484 4.752 5.18 3.015 7.5 14.137 3.993 19.143-2.435 3.476-7.349 13.893-7.349 15.578 0 3.987 15.043 6.851 17.335 3.301.855-1.325.605-2.735-1.116-6.277-2.231-4.593-2.817-9.072-1.454-11.115.404-.605 2.612-2.275 4.905-3.712 2.294-1.436 5.441-4.316 6.995-6.399 1.553-2.084 3.276-4.119 3.829-4.523 1.68-1.227 7.359-.853 11.16.735 4.436 1.853 10.367 1.937 12.77.179 1.485-1.086 1.697-2.196 1.193-6.25-.337-2.711-.887-7.854-1.222-11.429-1.016-10.831-3.908-12.285-19.895-10.005m59.616 2.889c-1.164 1.164-2.116 2.969-2.116 4.011 0 3.992-4.317 15.616-7.073 19.046-3.696 4.6-4.683 9.257-2.625 12.397 1.328 2.027 2.605 2.442 9.01 2.926 5.306.402 9.587 1.497 14.817 3.792 7.803 3.425 8.88 3.419 17.445-.099 4.126-1.695 8.252-.545 9.461 2.636.531 1.395.965 5.027.965 8.071 0 4.89.358 5.868 3.078 8.409 3.231 3.018 3.585 6.176.753 6.721-.906.175-2.769-.893-4.141-2.373-2.325-2.507-3.436-2.782-16.342-4.046-15.886-1.555-16.233-1.614-30.485-5.156-11.911-2.96-15.038-2.519-16.902 2.384-1.347 3.541-.126 11.917 2.159 14.823 2.217 2.818 8.458 4.12 27.022 5.639 6.952.569 16.177 1.937 20.5 3.039L786 505.02c9.455 2.41 20.231 2.606 22.429.409 2.036-2.037 1.962-4.314-.438-13.429-3.02-11.469-4.695-19.692-5.861-28.777-1.529-11.91-7.582-22.123-16.768-28.288-1.175-.789-3.707-2.684-5.626-4.209-1.919-1.526-5.769-3.366-8.555-4.089-2.786-.723-7.509-2.997-10.495-5.054-6.872-4.732-12.552-5.717-15.57-2.699m-396.095 7.073c-7.213 2.489-9.021 4.831-9.021 11.685 0 7.526 1.787 7.922 7.784 1.728 4.258-4.397 5.59-5.103 13.716-7.272 10.776-2.875 13.5-4.016 13.5-5.652 0-1.936-2.512-2.448-11.832-2.413-5.83.022-10.462.652-14.147 1.924m672.459 4.125c-1.639 1.744-4.186 3.923-5.659 4.841-1.473.918-6.086 4.885-10.25 8.815-7.883 7.442-9.692 11.267-5.321 11.257 2.707-.007 5.381-1.708 14.396-9.162 12.471-10.311 15.533-13.546 15.18-16.037-.523-3.688-4.748-3.543-8.346.286m-102.276.233c-1.452 3.395-1.564 7.344-.233 8.167 1.284.793 2.27-3.351 1.806-7.594l-.37-3.388-1.203 2.815m-588.111 34.512c-1.423 2.658-1.458 18.173-.042 18.173 2.057 0 4.175-7.264 3.719-12.756-.517-6.238-2.038-8.479-3.677-5.417m20.657 4.228c-.962.574-1.75 2.138-1.75 3.476 0 3.26 4.031 4.334 7.569 2.016 3.605-2.363 2.994-5.96-1.069-6.292-1.65-.134-3.788.225-4.75.8m78.5 2.045c-.687.715-1.25 1.643-1.25 2.061 0 1.268 6.926 2.688 17.819 3.653 9.934.88 10.456 1.046 14 4.459 3.446 3.318 4.647 3.736 18.823 6.552 9.029 1.794 17.979 4.253 22.168 6.091 7.44 3.266 13.23 3.946 15.039 1.766 1.64-1.976-1.123-5.295-5.602-6.729-2.061-.659-4.675-2.043-5.81-3.074-3.122-2.839-10.275-4.582-28.437-6.93-13.022-1.683-17.956-2.768-23.408-5.146-7.988-3.485-21.128-5.007-23.342-2.703m597.5 11.472c-4.821 2.615-2.921 4.428 4.641 4.428 4.942 0 8.223-1.957 7.303-4.355-.815-2.123-8.084-2.167-11.944-.073m-126.567 6.386c-9.954 1.572-20.386 4.385-22.446 6.054-4.409 3.57-1.603 4.077 21.096 3.81 23.3-.273 29.174.459 37.167 4.633 2.475 1.292 7.202 3.665 10.506 5.274 11.356 5.53 18.946 14.119 24.095 27.271 2.219 5.668 6.063 11 7.931 11 2.152 0 2.735-4.014 1.539-10.601-1.921-10.583-4.754-16.283-12.199-24.541-6.253-6.936-8.216-8.373-18.681-13.68-16.184-8.206-34.093-11.575-49.008-9.22M355 492.67c-2.245.838-3.933 3.34-3.324 4.927 1.25 3.257 13.789.082 13.142-3.328-.246-1.298-1.398-1.821-4.327-1.964-2.195-.107-4.666.057-5.491.365m87.11 10.697c-1.948 2.348.915 3.547 15.029 6.293 8.222 1.6 15.709 3.725 19.467 5.525 6.402 3.067 21.914 6.157 28.193 5.616 1.972-.169 3.972-1.057 4.583-2.032 1.895-3.026-1.432-4.813-13.511-7.256-6.254-1.266-13.99-3.521-17.192-5.013-6.462-3.01-15.066-4.418-27.307-4.467-5.687-.023-8.468.378-9.262 1.334M690 515.923c0 1.203 4.084 2.411 6.474 1.916 3.299-.685 1.902-2.348-2.224-2.646-2.469-.179-4.25.127-4.25.73m-369.431 9.827c-1.583 7.385-2.508 19.067-2.514 31.75-.007 13.731.847 20.802 2.741 22.696 1.622 1.622 3.502-14.739 3.355-29.196-.232-22.762-1.778-33.663-3.582-25.25m25.844-.796c-4.054.955-5.413 1.855-5.413 3.586 0 3.385 10.14 2.77 12.36-.75.588-.932.86-1.885.605-2.118-1.145-1.044-4.724-1.385-7.552-.718m74.195 1.871c-.949 1.536.577 2.128 7.057 2.733 5.604.524 9.631-.595 8.002-2.224-1.236-1.237-14.336-1.679-15.059-.509m669.499 2.088c-1.587 1.005-2.96 8.123-3.047 15.802-.05 4.377-.566 5.792-3.208 8.801-1.732 1.973-4.357 4.211-5.833 4.974-1.476.763-4.602 2.99-6.946 4.949-2.344 1.959-5.072 3.561-6.063 3.561-.99 0-2.851 1.092-4.135 2.426-1.875 1.948-2.575 4.343-3.559 12.172-1.067 8.503-4.073 18.803-6.391 21.902-.872 1.166-2.293 8.013-4.564 22-2.235 13.761-5.216 17-12.552 13.637-7.436-3.409-9.256-1.093-13.248 16.863-.917 4.125-2.285 10.2-3.039 13.5-.754 3.3-1.884 9.19-2.51 13.089-1.334 8.31-3.917 13.098-7.558 14.012-2.118.532-3.306-.027-6.323-2.973-2.044-1.996-4.414-3.628-5.268-3.628-1.89 0-4.383 2.7-5.314 5.755-.378 1.241-1.768 3.541-3.09 5.111-3.372 4.008-4.224 6.703-6.397 20.243-1.159 7.225-2.692 13.185-3.898 15.151-3.45 5.626-5.1 13.69-6.696 32.74-2.508 29.922-4.038 36.637-9.767 42.869-2.806 3.053-9.328 6.077-13.201 6.121-5.274.059-13.72 2.829-18 5.903-2.284 1.64-5.362 3.285-6.84 3.656-3.656.918-8.66 5.771-8.66 8.4 0 3.235 4.574 6.883 9.345 7.453 2.285.273 34.231.996 70.99 1.607 76.142 1.265 72.268 1.609 71.396-6.344-2.307-21.038-3.128-26.455-4.289-28.304-.739-1.177-3.378-2.833-5.866-3.68-2.599-.886-6.13-3.23-8.3-5.511-2.86-3.006-5.231-4.358-9.776-5.571-13.842-3.696-17-5.015-17-7.099 0-3.31 8.162-5.556 19.088-5.252 8.138.226 9.517.549 13.183 3.091 4.563 3.165 7.42 2.966 9.46-.657 1.638-2.908 2.281-33.791.911-43.682-.88-6.351-1.469-7.848-3.841-9.77-8.232-6.673-8.442-6.954-8.115-10.901.302-3.639.487-3.814 4.812-4.547 2.475-.419 5.625-1.608 7-2.641 2.112-1.585 2.482-2.638 2.375-6.759-.291-11.215 1.919-59.345 2.978-64.871 1.37-7.14 3.819-8.612 5.517-3.316 2.987 9.322 10.925 93.057 9.381 98.96-.85 3.249.651 6.562 3.488 7.702 1.52.611 5.621 1.764 9.115 2.562 3.493.798 6.621 1.72 6.95 2.049 1.139 1.14.592 7.353-.795 9.024-.767.923-3.124 2.371-5.239 3.217-6.641 2.658-7.081 4.504-7.573 31.823l-.433 24.031 2.663 3.165c1.464 1.741 3.656 3.467 4.869 3.837 6.979 2.125 7.456 6.867 1.206 11.989-4.588 3.759-5.782 7.148-3.25 9.227.688.565 6.875 1.324 13.75 1.688 6.875.363 20.375 1.285 30 2.048 55.102 4.366 64.325 4.801 68.121 3.21 3.264-1.368 3.823-2.191 5.677-8.372 2.291-7.636 4.202-17.346 4.202-21.35 0-4.521-3.317-7.005-9.355-7.005-5.068 0-5.357-.148-7.317-3.75-2.006-3.686-3.124-12.936-4.863-40.25-.745-11.717-1.936-15.471-6.109-19.264-4.694-4.267-5.726-6.448-8.651-18.273-1.355-5.479-3.475-11.672-4.711-13.76-1.236-2.089-3.092-7.014-4.124-10.945-1.813-6.906-2.191-7.452-11.225-16.202l-9.349-9.056-4.152-12.854c-2.283-7.069-4.444-15.394-4.803-18.5-.781-6.761-3.247-12.876-7.227-17.927-2.834-3.595-3.494-5.437-8.139-22.719-1.183-4.4-2.83-8.759-3.661-9.687-1.467-1.639-5.314-14.53-5.314-17.809 0-.896-1.814-4.638-4.032-8.315-2.217-3.677-5.157-10.568-6.532-15.315-1.376-4.746-3.571-10.484-4.878-12.752-1.307-2.267-3.154-7.047-4.104-10.622-1.732-6.521-3.87-11.013-5.227-10.985-.4.009-1.354.413-2.12.898m-635.985 5.991c-.766.485-1.045 1.412-.628 2.086 1.358 2.198 6.86 3.805 17.006 4.967 11.996 1.373 19.551 3.36 25.178 6.622 4.903 2.841 11.069 3.244 12.013.785.989-2.58-.988-4.738-5.848-6.383-2.469-.835-5.763-2.354-7.321-3.375-5.258-3.445-36.621-7.096-40.4-4.702m310.53 4.895c-1.672 1.77-4.357 3.292-6.5 3.686-10.787 1.983-13.589 2.965-17.946 6.296-2.589 1.977-6.937 4.444-9.664 5.482-6.1 2.322-21.193 12.243-23.004 15.123-.731 1.163-1.662 3.239-2.069 4.614-.406 1.375-2.052 4.005-3.657 5.845-2.378 2.726-2.862 4.099-2.615 7.422.324 4.364 2.076 5.966 3.307 3.025.413-.985 1.256-4.447 1.874-7.692l1.122-5.899 5.214-1.698c5.528-1.8 7.685-3.166 10.542-6.677.973-1.195 4-2.915 6.727-3.82 2.727-.906 7.501-3.622 10.61-6.036 3.157-2.452 8.453-5.321 12.001-6.501 5.988-1.993 11.406-6.347 11.406-9.166 0-1.413 23.715-.094 31 1.724 3.025.755 8.2 1.839 11.5 2.409 3.3.57 10.95 1.937 17 3.039 15.241 2.775 20.5 2.613 20.5-.633 0-2.364-6.35-4.312-17.763-5.448-7.074-.705-13.637-2.09-19.237-4.06-7.467-2.627-10.263-3.055-23-3.52l-14.5-.529-2.848 3.014M355 550c0 .55 1.098 1 2.441 1 1.343 0 2.719-.45 3.059-1 .361-.583-.656-1-2.441-1-1.682 0-3.059.45-3.059 1m-13.402 7.163c-1.755 2.506-1.268 3.837 1.404 3.837 2.027 0 5.25-3.784 4.397-5.163-.981-1.588-4.29-.831-5.801 1.326m87.652-.558c-1.665.748-1.585 2.872.162 4.322.776.644 6.289 2.037 12.25 3.095 13.146 2.333 17.44 3.519 21.63 5.976 1.765 1.034 8.158 2.824 14.208 3.977 6.05 1.154 14.258 2.786 18.239 3.627 3.982.841 7.694 1.248 8.25.905 1.732-1.071 1.111-4.498-1.239-6.838-2.202-2.192-6.275-3.368-19.75-5.704-3.575-.62-10.1-2.415-14.5-3.99-4.4-1.575-10.7-3.316-14-3.87-7.657-1.286-23.616-2.234-25.25-1.5m349.25 5.482c-1.65 1.067-4.749 2.474-6.886 3.126-4.781 1.458-7.605 5.694-7.61 11.415-.006 6.349.939 6.698 18.813 6.943 8.626.119 23.81.334 33.743.478 18.597.271 24.106-.552 19.654-2.935-1.159-.62-9.53-2.206-18.603-3.525-19.236-2.795-22.341-4.145-27.921-12.134-4.228-6.054-6.146-6.631-11.19-3.368m193.979 9.309c-2.748 6.576-1.084 13.519 2.173 9.066 1.575-2.155 1.818-11.053.327-11.975-.561-.347-1.686.962-2.5 2.909m-80.231 10.854c.497 1.496 5.434 3.401 6.375 2.46.364-.364.093-1.348-.603-2.186-1.54-1.855-6.373-2.085-5.772-.274m-548.593 1.579c-2.07 2.287-2.148 5.171-.141 5.171 2.17 0 8.459-4.267 8.474-5.75.019-1.973-6.429-1.525-8.333.579m77.883 6.519c-4.066 2.973 1.218 5.076 16.894 6.721 6.83.717 12.608 2.064 18.5 4.313 4.712 1.799 11.943 3.84 16.068 4.534 4.125.695 9.66 1.673 12.299 2.174 5.525 1.048 11.826 1.183 14.119.303 2.563-.984 1.815-4.281-1.418-6.247-1.65-1.003-6.937-2.394-11.75-3.091-4.812-.698-15.05-2.757-22.75-4.576-23.388-5.526-38.076-6.972-41.962-4.131m481.247 1.309c.28 1.462 2.41 4.499 4.734 6.75 2.324 2.251 4.967 5.549 5.872 7.33.906 1.78 2.997 4.775 4.648 6.655 5.073 5.777 16.018 24.679 19.073 32.936 1.592 4.306 3.976 9.706 5.297 12 2.721 4.725 3.851 9.832 6.124 27.672.875 6.875 2.483 15.26 3.572 18.634 1.922 5.953 4.864 10.064 6.226 8.702 1.3-1.301.635-17.002-1.264-29.836-2.457-16.61-3.097-19.336-6.816-29.018-1.687-4.39-4.069-11.26-5.295-15.267s-3.675-9.182-5.442-11.5c-1.767-2.318-3.996-5.734-4.954-7.59-2.55-4.944-9.746-13.563-18.681-22.375-6.128-6.043-8.491-7.75-10.73-7.75-2.569 0-2.818.28-2.364 2.657m-177.547 7.593c-3.403 4.224-1.319 19.029 4.016 28.523 4.087 7.274 5.525 7.855 11.99 4.841 2.891-1.347 8.856-3.002 13.256-3.677 4.4-.676 12.95-2.936 19-5.022 6.05-2.087 14.464-4.495 18.699-5.353 13.295-2.691 16.685-5.459 10.073-8.222-3.366-1.406-5.575-1.389-23.894.183-11.102.952-22.945 1.532-26.317 1.288-5.885-.426-6.362-.67-11.846-6.072-7.154-7.046-12.62-9.415-14.977-6.489m-36.005 6.74c-.696 1.12-1.548 4.73-1.892 8.023-.539 5.159-.397 5.987 1.031 5.987 2.795 0 5.707-5.927 5.4-10.991-.304-5.025-2.416-6.43-4.539-3.019m-272.042 17.86c-3.038.855-2.811 2.474.47 3.351 2.27.607 19.671 1.079 30.339.822 5.478-.131 1.502-1.852-8.242-3.567-8.473-1.491-18.472-1.76-22.567-.606m261.394 5.4c-.804 1.237-2.019 5.298-2.7 9.023-1.468 8.024-.575 9.844 3.327 6.775 1.926-1.515 2.856-3.609 3.782-8.518.676-3.579.967-7.188.649-8.019-.85-2.213-3.381-1.843-5.058.739m-217.193 2.172c-.72 1.876 1.153 5.264 3.649 6.6 1.097.587 8.252 1.585 15.9 2.218 15.026 1.243 21.293.546 21.861-2.432.539-2.826-5.031-4.775-18.061-6.318-15.993-1.895-22.641-1.914-23.349-.068M330.93 643.584c-1.993 2.402.087 4.916 4.07 4.916 4.325 0 6.4-2.949 3.559-5.059-2.554-1.896-5.99-1.832-7.629.143m542.737-.917c-1.61 1.609-.392 4.457 3.011 7.04 7.374 5.6 14.338 12.647 17.453 17.661a610.314 610.314 0 006.463 10.132c1.801 2.75 3.943 7.925 4.762 11.5.818 3.575 2.757 11.675 4.307 18 3.622 14.771 3.828 31.437.528 42.5-1.149 3.85-3.015 11.473-4.146 16.94-1.606 7.757-2.919 11.272-5.977 16-2.156 3.333-5.071 8.535-6.477 11.56-3.03 6.517-10.138 15.126-16.513 20-2.518 1.925-6.844 5.802-9.614 8.615-2.77 2.813-5.992 5.418-7.16 5.788-1.168.371-2.669 1.332-3.336 2.136-2.465 2.97 3.849 1.666 20.927-4.32 5.691-1.995 8.782-3.874 13.42-8.156 9.632-8.893 18.199-19.492 19.61-24.262.7-2.366 1.85-4.976 2.555-5.801 3.17-3.706 7.515-14.105 8.566-20.5.633-3.85 2.07-11.05 3.193-16 2.813-12.403 3.471-33.566 1.336-43-.872-3.85-2.533-11.5-3.692-17-2.27-10.773-3.401-13.552-8.342-20.5-1.76-2.475-3.74-5.861-4.398-7.524-.659-1.663-4.726-6.25-9.037-10.194-6.072-5.554-9.215-7.634-13.941-9.227-6.049-2.037-12.215-2.672-13.498-1.388m-173.632 2.267c-.569 1.064-1.035 3.084-1.035 4.489 0 2.88 3.822 17.54 4.973 19.077 1.23 1.641 5.027 15.111 5.027 17.833 0 2.737 4.102 6.667 6.96 6.667 2.332 0 15.284-4.475 18.174-6.279 1.301-.813 6.416-2.475 11.366-3.695 4.95-1.22 12.15-3.922 16-6.004 3.85-2.082 8.8-4.101 11-4.488 5.4-.948 12.996-5.195 16.569-9.265 3.521-4.011 3.98-8.801.934-9.768-2.687-.853-20.691 3.884-28.89 7.602-8.852 4.014-28.213 8.214-33.989 7.374-5.391-.785-7.993-3.27-12.15-11.606-3.55-7.119-9.461-13.871-12.142-13.871-.969 0-2.227.87-2.797 1.934m-31.332 7.008c-1.362 1.617-3.016 5.33-3.677 8.25-1.875 8.289-1.926 8.41-5.202 12.47-1.703 2.111-4.635 7.181-6.517 11.267-4.421 9.604-12.308 19.457-19.003 23.739-2.917 1.866-5.297 3.942-5.289 4.613.052 4.091 4.893 5.908 11.643 4.37 6.484-1.478 8.033-2.846 11.488-10.151 1.56-3.3 4.347-8.597 6.191-11.771 1.845-3.173 3.895-8.187 4.556-11.142.661-2.954 3.01-8.368 5.219-12.032 3.891-6.45 7.705-19.424 6.354-21.61-1.072-1.734-3.263-.974-5.763 1.997m-219.629 1.948c-3.685 1.011-3.599 2.864.206 4.454 4.418 1.845 15.961 3.31 37.575 4.766 18.727 1.262 19.095 1.188 19.13-3.837.03-4.478-2.757-5.002-29.485-5.543-13.75-.278-26.092-.207-27.426.16m-332.959 7.36c-.464 1.237-1.467 4.26-2.229 6.717-.999 3.221-2.362 5.082-4.886 6.671-8.101 5.099-7.993 4.787-8.06 23.27-.084 23.407-.489 25.252-6.818 31.071l-5.16 4.744.269 12.526c.302 14.071.231 14.251-7.906 19.864-9.003 6.211-11.675 20.201-11.116 58.207l.291 19.819-3.169 2.681c-1.744 1.474-6.007 4.48-9.476 6.68C50.035 858.46 45 862.787 45 864.547c0 .737.889 1.962 1.976 2.724 1.693 1.186 3.662 1.135 13.75-.355 14.202-2.098 17.137-2.758 19.886-4.468 5.197-3.232 14.036-4.565 34.134-5.148 16.063-.465 20.499-.89 21.466-2.056 1.525-1.837 1.464-11.111-.092-14.019-.639-1.194-3.367-4.821-6.062-8.059-4.083-4.906-5.704-6.091-9.716-7.101-5.632-1.419-7.342-2.618-7.342-5.152 0-2.18 2.134-3.472 7.347-4.45 7.621-1.43 9.001-5.642 6.07-18.528-1.316-5.787-2.144-7.388-4.91-9.497-6.907-5.269-8.191-13.46-3.064-19.553 2.415-2.869 2.525-3.494 1.989-11.212-.955-13.745 2.736-26.922 6.484-23.151 1.446 1.455 3.221 13.908 3.232 22.671.007 5.772.403 8.019 1.585 9 .866.719 2.811 4.063 4.322 7.431 1.833 4.083 4.148 7.248 6.95 9.5 7.117 5.719 8.463 10.72 5.506 20.467-1.864 6.145-1.839 9.817.101 14.909.838 2.2 1.887 5.424 2.331 7.164 1.323 5.182 10.019 18.265 13.253 19.938 2.454 1.268 6.515 1.441 24.621 1.044 29.272-.64 29.093-.602 35.198-7.452 4.395-4.932 4.985-6.12 4.985-10.043 0-4.021-.472-4.902-4.891-9.14-6.43-6.165-7.843-9.141-9.431-19.864-1.229-8.303-3.533-14.147-5.578-14.147-1.258 0-14.704-19.117-16.545-23.523-.869-2.079-3.323-5.672-5.455-7.984-2.131-2.313-4.399-5.183-5.039-6.379-.64-1.196-3.114-3.398-5.499-4.894-5.099-3.199-12.393-13.382-16.073-22.439-1.392-3.426-3.834-7.591-5.426-9.255-1.592-1.664-4.521-6.39-6.508-10.502-1.988-4.112-4.715-8.625-6.059-10.029-1.345-1.403-2.99-4.113-3.655-6.02-.665-1.908-3.199-6.17-5.63-9.472-2.432-3.302-5.268-7.661-6.303-9.687-3.293-6.448-9.159-8.93-10.793-4.566m157.698 14.717c-3.677.375-7.502 1.317-8.5 2.092-8.123 6.313-13.26 11.395-18.361 18.165-3.273 4.344-5.952 8.379-5.952 8.967 0 .587-2.011 5.174-4.47 10.194-5.488 11.208-6.483 17.294-6.51 39.8-.021 17.911 1.559 28.947 4.822 33.673 1.003 1.453 3.531 6.325 5.618 10.827 2.753 5.938 4.926 9.087 7.917 11.473 2.268 1.808 4.95 4.321 5.961 5.585 3.82 4.773 10.122 6.316 19.333 4.732 2.85-.49 5.641-.216 8.816.866 4.821 1.643 10.504 1.256 10.525-.716.007-.619-2.308-3.375-5.144-6.125-5.319-5.158-9.895-11.966-14.424-21.461-5.441-11.405-6.96-43.046-3.039-63.296 2.906-15.011 16.926-37.337 27.245-43.384 5.278-3.093 6.856-5.546 5.362-8.336-.582-1.087-1.918-2.437-2.969-3-2.081-1.114-15.592-1.143-26.23-.056M319.2 693.2c-1.659 1.659-1.504 8.311.274 11.75 2.006 3.88 15.032 14.699 22.026 18.296 1.775.913 8.515 2.027 16.5 2.727 22.04 1.931 38.664 3.81 53 5.989 18.326 2.786 42.333 5.038 53.706 5.038 8.631 0 9.582-.197 11.839-2.455 1.77-1.769 2.455-3.546 2.455-6.365 0-2.402.775-4.895 2.009-6.464 2.845-3.617 3.547-8.017 1.592-9.972-.951-.951-4.082-1.796-7.842-2.117-3.442-.294-12.334-1.044-19.759-1.667-7.425-.624-16.65-1.793-20.5-2.599-20.331-4.257-30.266-5.343-67.994-7.43-20.052-1.11-33.566-2.793-38.821-4.836-3.679-1.431-6.99-1.39-8.485.105m-54.809 4.016c-1.112 1.256-2.803 3.542-3.759 5.079-.955 1.537-2.759 3.183-4.01 3.658-3.55 1.35-5.543 5.349-7.126 14.295-.802 4.539-1.467 8.78-1.478 9.425-.01.646-1.094 2.453-2.41 4.016-3.61 4.29-5.608 12.417-5.608 22.809 0 12.446 1.497 19.73 5.109 24.854 2.101 2.981 3.377 6.485 4.303 11.818 1.563 9.003 1.687 9.236 6.532 12.295 2.568 1.621 3.969 3.352 4.382 5.414.334 1.67 1.744 3.776 3.14 4.691 2.35 1.539 2.716 1.541 5.034.022 4.611-3.021 2.724-9.351-3.907-13.105-1.328-.752-2.142-3.388-3.159-10.23-.933-6.279-2.329-11.059-4.379-14.997-3.531-6.785-5.564-18.911-4.568-27.245.37-3.088 2.179-8.622 4.112-12.576 2.906-5.944 3.595-8.711 4.357-17.5.901-10.386.924-10.455 4.598-13.542 3.008-2.529 3.715-3.818 3.819-6.967.154-4.673-1.97-5.617-4.982-2.214M541 700.706c-.825.302-2.4 1.347-3.5 2.323s-4.25 2.814-7 4.084c-10.942 5.055-24.459 23.011-29.397 39.052-3.962 12.872-7.268 19.156-11.432 21.729-4.948 3.058-8.834 3.538-14.337 1.769-2.659-.854-10.486-2.474-17.394-3.599-11.699-1.906-19.672-2.547-62.94-5.063-9.075-.527-20.55-1.821-25.5-2.874-15.475-3.293-36.291-5.545-38.016-4.113-1.812 1.503-1.906 4.03-.234 6.305.969 1.318 3.353 1.812 10.604 2.196 5.144.272 9.672.692 10.061.933 2.991 1.848 39.772 6.071 79.085 9.08 17.875 1.368 34.3 2.885 36.5 3.37l11.271 2.483c3.999.88 8.448 2.371 9.886 3.314 3.068 2.01 5.338 6.895 5.355 11.523.015 4.051 1.735 10.313 6.395 23.278 1.976 5.498 3.593 10.084 3.593 10.19 0 .106 1.688 2.206 3.75 4.667a783.822 783.822 0 017.056 8.561c2.858 3.532 3.842 4.086 7.25 4.086 2.169 0 3.944-.434 3.944-.965 0-.531-1.35-3.094-3-5.696s-3-5.285-3-5.962c0-.677-1.544-2.504-3.432-4.06-4.275-3.524-5.023-5.487-6.6-17.327-2.499-18.759-1.226-52.407 2.378-62.869.789-2.288 2.624-5.096 4.079-6.241 1.456-1.145 3.904-4.848 5.442-8.231 1.538-3.382 3.445-6.682 4.239-7.334 1.875-1.54 10.929-4.614 11.603-3.939.285.285-.377 2.005-1.473 3.821-1.095 1.817-2.563 5.778-3.262 8.803-.885 3.83-2.228 6.411-4.422 8.5-4.189 3.986-4.33 4.472-6.056 20.848-1.883 17.858-1.879 26.204.017 41.194 2.02 15.97 2.089 16.201 5.361 17.893 2.918 1.509 4.234 3.936 6.099 11.244.883 3.461 1.64 4.368 4.407 5.281 2.531.836 3.72 2.066 4.901 5.072 1.788 4.554 3.815 5.701 7.283 4.121 3.661-1.668 3.023-4.794-1.987-9.734-2.433-2.399-4.724-5.387-5.092-6.64-.367-1.253-2.666-6.615-5.11-11.915-5.312-11.52-6.362-17.192-6.369-34.404-.006-13.284 1.082-19.814 4.882-29.299 1.028-2.564 3.116-8.036 4.641-12.161 2.471-6.683 5.787-12.053 14.053-22.758 1.384-1.792 4.736-4.383 7.449-5.758s5.668-3.621 6.566-4.992c1.469-2.242 1.48-2.725.115-4.809-2.186-3.336-10.439-5.699-19.577-5.604-4.199.043-8.31.326-9.135.627m138.035 4.228c-2.086 3.898-.624 10.991 3.415 16.566 1.195 1.65 3.191 6.15 4.436 10 3.126 9.671 5.256 12.715 11.138 15.917l5.075 2.762 9.468-1.614c10.095-1.721 14.597-3.409 20.833-7.812 2.145-1.514 4.852-2.753 6.016-2.753 3.439 0 9.898-4.022 18.907-11.774 8.781-7.554 11.832-12.162 9.996-15.094-2.254-3.603-7.37-2.156-23.78 6.724-2.179 1.179-4.886 2.144-6.015 2.144-3.317 0-12.407 3.674-16.145 6.525-4.635 3.535-9.082 4.728-12.911 3.464-3.368-1.111-10.976-8.606-17.004-16.753-3.429-4.633-9.851-10.236-11.733-10.236-.363 0-1.126.87-1.696 1.934m-90.663 61.533c-6.731 2.87-11.178 18.602-7.041 24.915 1.461 2.23 2.436 2.618 6.578 2.618 4.569 0 4.963-.21 6.514-3.478 1.258-2.652 1.582-5.771 1.363-13.131-.248-8.37-.552-9.826-2.286-10.955-1.646-1.072-2.553-1.067-5.128.031m89.978 3.064c-1.61 4.194 3.323 12.991 14.15 25.237C698.805 801.9 708.755 809 712.445 809c4.677 0 15.488-6.785 28.829-18.094 2.176-1.844 2.862-3.109 2.375-4.378-.959-2.499-6.732-1.443-11.929 2.182-7.297 5.089-8.082 5.384-13.343 5.011-5.482-.39-10.269-3.292-20.987-12.721-8.358-7.353-15.803-12.987-17.171-12.994-.705-.003-1.546.683-1.869 1.525M752 827.568c-1.925.819-5.305 3.545-7.511 6.057-3.922 4.466-4.165 4.577-11 5.029-9.361.62-11.163 1.054-11.856 2.86-1.05 2.737 2.917 5.486 7.917 5.486 5.128 0 9.54-1.906 13.95-6.027 1.65-1.542 4.984-3.328 7.408-3.969 7.964-2.107 13.959-11.059 7.342-10.965-1.513.022-4.325.71-6.25 1.529m-452.262 14.124c-3.577.933-.442 2.308 5.262 2.308 5.783 0 8.51-1.207 5.412-2.395-1.754-.673-7.954-.623-10.674.087m-83.067 5.472c-.875.49-1.89 2.486-2.256 4.435-.435 2.321-1.399 3.82-2.79 4.341-1.827.684-21.22 2.743-43.625 4.633-6.305.532-9.201 1.425-24.963 7.694-6.058 2.409-10.273 3.224-22.398 4.33-17.012 1.552-16.723 1.486-26.16 5.979-6.111 2.91-8.897 3.537-21.5 4.836-15.175 1.564-19.723 2.535-23.517 5.021-2.214 1.451-8.392 3.102-20.962 5.603-6.66 1.324-9.5 2.531-9.5 4.035 0 1.371 7.632 4.53 13.048 5.401 2.449.393 8.502 1.844 13.452 3.223 11.544 3.217 18.481 2.808 27-1.595 3.564-1.841 10.003-3.893 15.86-5.053 5.423-1.074 11.948-3.034 14.5-4.356 5.953-3.084 12.626-5.197 22.64-7.169 4.4-.867 11.6-3.097 16-4.957 4.4-1.859 11.6-3.928 16-4.597 8.727-1.327 15.787-3.248 22-5.986 2.2-.97 6.475-2.26 9.5-2.868l15.476-3.115c5.487-1.104 12.687-3.314 16-4.909 4.987-2.402 7.832-3.015 16.524-3.561 11.966-.752 19.936-2.092 25-4.205l3.5-1.46-2.361-1.932c-2.124-1.738-4.038-1.932-19.091-1.932-11.241 0-18.216-.447-21.258-1.363-2.828-.851-5.126-1.028-6.119-.473m169.346 37.4c-3.566.773-8.066 2.034-10 2.802-1.935.768-5.992 1.7-9.017 2.071-14.479 1.777-50.107 6.747-55 7.673-3.025.573-10.225 2.31-16 3.861-5.775 1.55-16.704 3.785-24.286 4.965-7.582 1.18-17.482 3.427-22 4.992-8.835 3.063-16.271 4.566-29.748 6.015-4.694.505-10.544 1.671-13 2.592-12.947 4.854-16.244 5.789-24.966 7.083-14.299 2.121-23 6.259-23 10.939 0 3 3.819 4.269 16.5 5.484 5.5.527 12.025 1.218 14.5 1.537 6.304.81 18.924-2.04 27.913-6.306 4.254-2.019 11.428-4.326 16.548-5.321 4.972-.967 12.639-3.343 17.039-5.28 4.4-1.938 12.639-4.452 18.309-5.587 5.669-1.135 13.551-3.363 17.515-4.95 3.964-1.587 9.9-3.435 13.191-4.106 15.85-3.231 19.521-4.118 26.533-6.409 6.434-2.103 17.237-4.407 33.132-7.067 2.024-.339 6.749-2.146 10.5-4.016 6.146-3.063 8.126-3.503 20.042-4.449 14.481-1.15 26.576-3.694 25.985-5.465-.907-2.721-19.984-3.378-30.69-1.058m236.745 13.143c1.244.239 3.044.23 4-.02s-.062-.446-2.262-.435c-2.2.011-2.982.216-1.738.455M556 904.986c-3.025.456-9.004 1.756-13.286 2.89-10.633 2.814-21.085 4.743-41.714 7.697-9.625 1.379-19.75 3.128-22.5 3.887-2.75.759-9.05 2.526-14 3.925-4.95 1.399-13.05 3.002-18 3.562-8.875 1.004-21.05 3.792-28.291 6.478-5.903 2.19-11.867 3.429-24.603 5.112-6.542.865-13.742 2.264-16 3.111-6.324 2.369-16.428 5.099-23.582 6.372-7.689 1.368-10.14 2.515-9.414 4.405.59 1.538 10.728 4.136 19.542 5.01 3.109.307 8.509 1.455 12 2.549 8.409 2.636 10.299 2.539 17.363-.889 3.292-1.598 9.994-3.651 14.894-4.562 4.899-.911 11.874-3.027 15.5-4.702 7.343-3.392 13.857-5.375 22.136-6.74 3.049-.502 9.574-2.487 14.5-4.41 4.925-1.922 13.23-4.271 18.455-5.219 5.225-.949 14-3.202 19.5-5.007 5.5-1.805 12.475-3.766 15.5-4.358 3.025-.591 9.096-1.767 13.491-2.613 4.394-.847 10.919-2.715 14.5-4.152 4.006-1.607 10.739-3.131 17.509-3.963 15.49-1.903 21.023-3.184 22.953-5.317 1.347-1.488 1.418-2.016.362-2.678-1.811-1.136-20.097-1.4-26.815-.388m256 1.589c-3.025.793-7.975 2.306-11 3.362-3.025 1.056-9.1 2.186-13.5 2.512-19.255 1.427-50.009 5.952-65 9.563-8.8 2.12-18.7 4.139-22 4.488-9.77 1.032-21.309 3.507-32.5 6.972-6.497 2.011-15.838 3.905-24.5 4.967-11.214 1.375-15.592 2.394-22 5.123-5.161 2.198-11.549 3.935-18 4.894-12.06 1.793-18.064 3.604-25.993 7.841-6.469 3.457-8.169 6.277-4.323 7.169 4.97 1.154 28.681 3.516 35.316 3.518 9.091.003 22.035-3.084 31.686-7.555 4.251-1.97 10.554-3.968 14.103-4.471 7.415-1.05 7.2-.984 19.711-5.996 5.225-2.094 13.55-4.563 18.5-5.489 4.95-.925 12.6-3.005 17-4.622s13.4-4.032 20-5.366c6.6-1.334 14.609-3.35 17.797-4.48 7.702-2.731 15.932-4.578 28.973-6.503 11.258-1.662 18.717-4.22 22.422-7.689 1.943-1.819 4.048-2.14 18.5-2.821 15.696-.739 24.522-2.385 24.117-4.496-.105-.548-1.23-1.289-2.5-1.646-4.243-1.195-21.243-.736-26.809.725m156 31.436c-7.586.456-14.563 1.572-20.5 3.279-4.95 1.423-16.65 3.532-26 4.686-21.374 2.639-38.698 5.541-49 8.209-12.571 3.256-19.788 4.636-30.271 5.791-10.026 1.104-15.367 2.361-25.729 6.054-3.3 1.177-12.79 3.207-21.089 4.512-8.407 1.323-18.149 3.536-22 4.998-8.36 3.174-16.917 5.423-20.714 5.444-1.541.009-5.878.716-9.638 1.571-5.395 1.227-7.601 2.32-10.468 5.187-1.998 1.998-3.478 4.111-3.288 4.695 1.002 3.09 10.042 5.114 27.363 6.126 13.997.817 24.839-1.054 31.207-5.388 2.252-1.532 8.367-3.585 16.127-5.416 6.875-1.621 16.048-4.49 20.385-6.376 4.336-1.886 11.043-3.876 14.904-4.424 3.861-.548 11.563-2.611 17.116-4.586 5.552-1.975 16.17-4.901 23.595-6.502 7.425-1.601 15.3-3.552 17.5-4.337 6.784-2.418 14.648-4.322 23-5.567 9.931-1.481 17.792-3.63 21.874-5.981 3.805-2.191 9.982-3.428 27.626-5.532 15.021-1.792 21-3.065 21-4.473 0-2.056-8.9-2.818-23-1.97" fill="undefined" fill-rule="evenodd"/></svg>